<svg xmlns="http://www.w3.org/2000/svg" xmlns:xlink="http://www.w3.org/1999/xlink" preserveAspectRatio="xMidYMid" width="195.966" height="191.313" viewBox="0 0 195.966 191.313">
  <defs>
    <style>
      .cls-1 {
        fill: #ececec;
      }

      .cls-1, .cls-2, .cls-3, .cls-4 {
        fill-rule: evenodd;
      }

      .cls-2 {
        fill: #f9f9f9;
      }

      .cls-3, .cls-4 {
        fill: #fff;
      }

      .cls-3 {
        opacity: 0.49;
      }

      .cls-4 {
        opacity: 0.71;
      }
    </style>
  </defs>
  <g>
    <path d="M172.562,62.102 C166.958,66.342 145.528,54.368 145.528,54.368 C145.528,54.368 124.173,83.535 118.303,89.393 C103.541,104.125 97.365,108.839 97.365,108.839 L195.965,175.738 L186.226,187.563 C186.226,187.563 157.622,183.272 71.492,139.596 C67.535,143.553 26.071,189.962 17.267,190.946 C-5.947,193.539 0.263,182.615 2.308,172.323 C3.907,164.275 17.883,149.923 23.289,144.104 C34.714,131.806 46.436,120.565 49.067,117.795 C5.391,31.666 8.234,9.746 8.234,9.746 L20.059,0.007 L77.429,90.882 L128.976,38.528 C128.976,38.528 117.598,20.059 122.784,13.805 C124.056,13.805 132.080,6.498 132.080,6.498 L153.873,34.208 L153.137,39.720 L180.006,55.432 C180.006,55.432 172.562,60.830 172.562,62.102 Z" class="cls-1"/>
    <path d="M132.230,37.982 L132.054,17.530 C132.054,17.530 137.859,11.929 141.766,9.496 C145.672,7.063 150.725,29.602 150.725,29.602 L150.966,33.065 C151.355,32.748 145.035,38.330 142.090,41.130 C134.471,48.372 132.385,55.741 115.537,72.763 C100.005,88.457 67.154,123.647 41.414,149.870 C23.222,168.403 15.930,171.699 15.930,171.699 C16.809,173.920 -1.264,176.229 11.123,160.787 C23.373,145.516 86.480,83.230 86.480,83.230 L132.230,37.982 Z" class="cls-2"/>
    <path d="M54.123,116.745 C54.123,116.745 13.305,41.917 11.558,12.663 C12.139,11.874 11.247,8.602 11.247,8.602 L21.108,0.446 L79.495,92.366 L54.123,116.745 Z" class="cls-3"/>
    <path d="M97.553,109.775 C97.553,109.775 90.533,114.586 83.815,122.006 C77.096,129.427 74.115,136.725 74.115,136.725 C74.115,136.725 144.153,176.972 186.217,184.594 C187.521,185.109 194.596,175.689 194.596,175.689 L98.638,110.234 " class="cls-4"/>
  </g>
</svg>
