<svg xmlns="http://www.w3.org/2000/svg" xmlns:xlink="http://www.w3.org/1999/xlink" preserveAspectRatio="xMidYMid" width="76.44" height="84.25" viewBox="0 0 76.44 84.25">
  <defs>
    <style>
      .cls-1 {
        fill: #b38428;
      }

      .cls-1, .cls-2, .cls-3 {
        fill-rule: evenodd;
      }

      .cls-2 {
        fill: #8dc63f;
      }

      .cls-3 {
        fill: #197b30;
        opacity: 0.3;
      }
    </style>
  </defs>
  <g>
    <path d="M36.583,44.513 C40.318,44.513 43.345,47.540 43.345,51.275 L43.345,78.678 C43.345,82.413 40.318,84.241 36.583,84.241 C32.848,84.241 29.820,82.413 29.820,78.678 L29.820,51.275 C29.820,47.540 32.848,44.513 36.583,44.513 Z" class="cls-1"/>
    <path d="M74.654,47.404 C74.961,48.320 75.125,49.258 75.125,50.215 C75.125,60.041 58.308,68.007 37.562,68.007 C16.817,68.007 0.000,60.041 0.000,50.215 C0.000,49.061 0.240,47.933 0.684,46.840 L0.109,46.836 L36.063,0.006 L69.100,40.555 C71.862,42.574 73.785,44.874 74.632,47.345 L74.680,47.404 L74.654,47.404 Z" class="cls-2"/>
    <path d="M74.627,53.098 C71.716,61.553 56.234,68.007 37.562,68.007 C36.965,68.007 36.372,67.998 35.781,67.985 L35.781,2.246 L36.063,1.895 L64.175,37.660 C70.941,40.878 75.125,45.315 75.125,50.215 C75.125,50.634 75.083,51.049 75.023,51.461 L76.430,53.250 L74.627,53.098 Z" class="cls-3"/>
  </g>
</svg>
