<?xml version="1.0" encoding="UTF-8" standalone="no"?>
<svg width="44px" height="44px" viewBox="0 0 44 44" version="1.1" xmlns="http://www.w3.org/2000/svg" xmlns:xlink="http://www.w3.org/1999/xlink">
    <!-- Generator: Sketch 3.8.3 (29802) - http://www.bohemiancoding.com/sketch -->
    <title>unsubscribe-loading</title>
    <desc>Created with Sketch.</desc>
    <defs></defs>
    <g id="Icons" stroke="none" stroke-width="1" fill="none" fill-rule="evenodd">
        <g id="unsubscribe-loading">
            <polygon id="Bottom" fill="#2F3337" points="6.38547379 12.46454 12.7678738 12.46454 15.5229992 14.9416589 8.92989393 14.9416589 8.92989393 27.0297571 19.5376658 27.0297571 29.0706277 36.7539516 29.1059225 27.3346219 31.1736627 29.1644988 31.1736627 40.1289286 29.1059232 40.1289286 18.1981693 29.5385374 6.38547379 29.5385374"></polygon>
            <path d="M28,19 C31.3137085,19 34,16.3137085 34,13 C34,9.6862915 31.3137085,7 28,7 C24.6862915,7 22,9.6862915 22,13" id="Oval-4" stroke="#2F3337" stroke-width="2.5" transform="translate(28.000000, 13.000000) scale(1, -1) rotate(-90.000000) translate(-28.000000, -13.000000) "></path>
            <polygon id="Path-79" fill="#2F3337" points="28 3 28 10.5287197 34.5 6.93083802"></polygon>
        </g>
    </g>
</svg>