<svg xmlns="http://www.w3.org/2000/svg" xmlns:xlink="http://www.w3.org/1999/xlink" preserveAspectRatio="xMidYMid" width="910.876" height="706" viewBox="0 0 910.876 706">
  <defs>
    <style>
      .cls-1 {
        stroke: #005e20;
        stroke-linecap: round;
        stroke-width: 10px;
        fill: none;
        opacity: 0.1;
      }

      .cls-1, .cls-2 {
        fill-rule: evenodd;
      }

      .cls-2 {
        fill: #c2dd9f;
      }
    </style>
  </defs>
  <g>
    <path d="M785.669,184.251 L791.529,192.823 L800.297,168.937 " class="cls-1"/>
    <path d="M903.937,171.000 C900.106,171.000 897.000,167.894 897.000,164.063 L897.000,159.938 C897.000,156.106 900.106,153.000 903.937,153.000 C907.769,153.000 910.875,156.106 910.875,159.938 L910.875,164.063 C910.875,167.894 907.769,171.000 903.937,171.000 ZM832.937,434.000 C829.106,434.000 826.000,430.894 826.000,427.063 L826.000,416.938 C826.000,413.106 829.106,410.000 832.937,410.000 C836.769,410.000 839.875,413.106 839.875,416.938 L839.875,427.063 C839.875,430.894 836.769,434.000 832.937,434.000 ZM813.937,463.000 C810.106,463.000 807.000,459.894 807.000,456.063 L807.000,451.938 C807.000,448.106 810.106,445.000 813.937,445.000 C817.769,445.000 820.875,448.106 820.875,451.938 L820.875,456.063 C820.875,459.894 817.769,463.000 813.937,463.000 ZM752.937,202.000 C749.106,202.000 746.000,198.894 746.000,195.063 L746.000,184.938 C746.000,181.106 749.106,178.000 752.937,178.000 C756.769,178.000 759.875,181.106 759.875,184.938 L759.875,195.063 C759.875,198.894 756.769,202.000 752.937,202.000 ZM706.937,647.000 C703.106,647.000 700.000,643.894 700.000,640.063 L700.000,635.938 C700.000,632.106 703.106,629.000 706.937,629.000 C710.769,629.000 713.875,632.106 713.875,635.938 L713.875,640.063 C713.875,643.894 710.769,647.000 706.937,647.000 ZM703.937,385.000 C700.106,385.000 697.000,381.894 697.000,378.063 L697.000,367.938 C697.000,364.106 700.106,361.000 703.937,361.000 C707.769,361.000 710.875,364.106 710.875,367.938 L710.875,378.063 C710.875,381.894 707.769,385.000 703.937,385.000 ZM668.937,362.000 C665.106,362.000 662.000,358.894 662.000,355.063 L662.000,344.938 C662.000,341.106 665.106,338.000 668.937,338.000 C672.769,338.000 675.875,341.106 675.875,344.938 L675.875,355.063 C675.875,358.894 672.769,362.000 668.937,362.000 ZM584.937,463.000 C581.106,463.000 578.000,459.894 578.000,456.063 L578.000,451.938 C578.000,448.106 581.106,445.000 584.937,445.000 C588.769,445.000 591.875,448.106 591.875,451.938 L591.875,456.063 C591.875,459.894 588.769,463.000 584.937,463.000 ZM556.937,486.000 C553.106,486.000 550.000,482.894 550.000,479.063 L550.000,474.938 C550.000,471.106 553.106,468.000 556.937,468.000 C560.769,468.000 563.875,471.106 563.875,474.938 L563.875,479.063 C563.875,482.894 560.769,486.000 556.937,486.000 ZM498.937,648.000 C495.106,648.000 492.000,644.894 492.000,641.063 L492.000,630.938 C492.000,627.106 495.106,624.000 498.937,624.000 C502.769,624.000 505.875,627.106 505.875,630.938 L505.875,641.063 C505.875,644.894 502.769,648.000 498.937,648.000 ZM473.937,636.000 C470.106,636.000 467.000,632.894 467.000,629.063 L467.000,592.938 C467.000,589.106 470.106,586.000 473.937,586.000 C477.769,586.000 480.875,589.106 480.875,592.938 L480.875,629.063 C480.875,632.894 477.769,636.000 473.937,636.000 ZM261.937,287.000 C258.106,287.000 255.000,283.894 255.000,280.063 L255.000,269.938 C255.000,266.106 258.106,263.000 261.937,263.000 C265.769,263.000 268.875,266.106 268.875,269.938 L268.875,280.063 C268.875,283.894 265.769,287.000 261.937,287.000 ZM259.937,251.000 C256.106,251.000 253.000,247.894 253.000,244.063 L253.000,233.938 C253.000,230.106 256.106,227.000 259.937,227.000 C263.769,227.000 266.875,230.106 266.875,233.938 L266.875,244.063 C266.875,247.894 263.769,251.000 259.937,251.000 ZM257.937,541.000 C261.769,541.000 264.875,544.106 264.875,547.938 L264.875,552.063 C264.875,555.894 261.769,559.000 257.937,559.000 C254.106,559.000 251.000,555.894 251.000,552.063 L251.000,547.938 C251.000,544.106 254.106,541.000 257.937,541.000 ZM230.937,706.000 C227.106,706.000 224.000,702.894 224.000,699.063 L224.000,694.938 C224.000,691.106 227.106,688.000 230.937,688.000 C234.769,688.000 237.875,691.106 237.875,694.938 L237.875,699.063 C237.875,702.894 234.769,706.000 230.937,706.000 ZM209.937,697.000 C206.106,697.000 203.000,693.894 203.000,690.063 L203.000,679.938 C203.000,676.106 206.106,673.000 209.937,673.000 C213.769,673.000 216.875,676.106 216.875,679.938 L216.875,690.063 C216.875,693.894 213.769,697.000 209.937,697.000 ZM180.937,50.000 C177.106,50.000 174.000,46.894 174.000,43.063 L174.000,6.938 C174.000,3.106 177.106,0.000 180.937,0.000 C184.769,0.000 187.875,3.106 187.875,6.938 L187.875,43.063 C187.875,46.894 184.769,50.000 180.937,50.000 ZM178.875,272.938 L178.875,283.063 C178.875,286.894 175.769,290.000 171.937,290.000 C168.106,290.000 165.000,286.894 165.000,283.063 L165.000,272.938 C165.000,269.106 168.106,266.000 171.937,266.000 C175.769,266.000 178.875,269.106 178.875,272.938 ZM155.937,62.000 C152.106,62.000 149.000,58.894 149.000,55.063 L149.000,44.938 C149.000,41.106 152.106,38.000 155.937,38.000 C159.769,38.000 162.875,41.106 162.875,44.938 L162.875,55.063 C162.875,58.894 159.769,62.000 155.937,62.000 ZM153.875,234.946 L153.875,271.063 C153.875,274.899 150.765,278.008 146.929,278.008 C143.094,278.008 139.984,274.899 139.984,271.063 L139.984,234.946 C139.984,231.110 143.094,228.000 146.929,228.000 C150.765,228.000 153.875,231.110 153.875,234.946 ZM50.937,308.000 C47.106,308.000 44.000,304.894 44.000,301.063 L44.000,296.938 C44.000,293.106 47.106,290.000 50.937,290.000 C54.769,290.000 57.875,293.106 57.875,296.938 L57.875,301.063 C57.875,304.894 54.769,308.000 50.937,308.000 ZM6.937,336.000 C3.106,336.000 -0.000,332.894 -0.000,329.063 L-0.000,324.938 C-0.000,321.106 3.106,318.000 6.937,318.000 C10.769,318.000 13.875,321.106 13.875,324.938 L13.875,329.063 C13.875,332.894 10.769,336.000 6.937,336.000 Z" class="cls-2"/>
    <path d="M325.964,273.523 L331.598,282.060 L340.796,265.193 " class="cls-1"/>
  </g>
</svg>
