<?xml version="1.0" encoding="UTF-8" standalone="no"?>
<!DOCTYPE svg  PUBLIC '-//W3C//DTD SVG 1.1//EN'  'http://www.w3.org/Graphics/SVG/1.1/DTD/svg11.dtd'>
<svg xmlns="http://www.w3.org/2000/svg">
<defs>
<font id="FaktPro-Hair" horiz-adv-x="568">
<font-face underline-position="-50" font-weight="280" descent="-200" panose-1="2 0 0 0 0 0 0 0 0 0" units-per-em="1000" unicode-range="U+0020-25CA" bbox="-169 -240 1043 945" x-height="488" underline-thickness="50" font-family="FaktPro" ascent="800" cap-height="688"/>
<missing-glyph horiz-adv-x="1000"/>
<glyph glyph-name=".notdef" horiz-adv-x="1000"/>
<glyph glyph-name=".null" horiz-adv-x="0"/>
<glyph glyph-name="nonmarkingreturn" horiz-adv-x="333"/>
<glyph glyph-name="space" horiz-adv-x="204" unicode=" "/>
<glyph glyph-name="exclam" horiz-adv-x="194" unicode="!" d="M89 0v86h16v-86h-16zM90 181l-1 344v163h16v-163l-1 -344h-14z"/>
<glyph glyph-name="quotedbl" horiz-adv-x="363" unicode='&quot;' d="M264 436l-2 157v95h16v-95l-3 -157h-11zM88 436l-2 157v95h16v-95l-3 -157h-11z"/>
<glyph glyph-name="numbersign" horiz-adv-x="580" unicode="#" d="M203 489l-49 -283h220l49 283h-220zM67 489v13h124l32 186h15l-33 -186h221l32 186h15l-33 -186h124v-13h-126l-49 -283h124v-13h-127l-33 -193h-15l33 193h-220l-33 -193h-15l33 193h-120v13h123l49 283h-121z"/>
<glyph glyph-name="dollar" d="M52 178h15q6 -80 66 -126t147 -46h8q87 2 142 49t55 126q0 63 -33 96.5t-114 56.5l-121 34q-73 21 -111 54t-38 104q0 75 54 121.5t146 48.5v108h16v-108q81 -2 137.5 -47.5t63.5 -118.5h-15q-7 68 -59 109t-127 43h-16q-85 -2 -134.5 -44t-49.5 -111q0 -66 35 -96 t103 -49l121 -34q86 -24 122 -62t36 -105q0 -84 -60 -135.5t-153 -53.5v-112h-16v112q-91 2 -153 52t-67 134z" unicode="$"/>
<glyph glyph-name="percent" horiz-adv-x="733" unicode="%" d="M557 7q57 0 87.5 45.5t30.5 119.5t-30.5 119.5t-87.5 45.5t-87.5 -46t-30.5 -119t30.5 -119t87.5 -46zM557 -7q-64 0 -99 50.5t-35 128.5t35 128.5t99 50.5t99 -50.5t35 -128.5t-35 -128.5t-99 -50.5zM183 -12l351 712h16l-351 -712h-16zM176 351q57 0 87.5 45.5 t30.5 119.5t-30.5 119.5t-87.5 45.5t-87.5 -46t-30.5 -119t30.5 -119t87.5 -46zM176 337q-64 0 -99 50.5t-35 128.5t35 128.5t99 50.5t99 -50.5t35 -128.5t-35 -128.5t-99 -50.5z"/>
<glyph glyph-name="ampersand" horiz-adv-x="658" unicode="&amp;" d="M150 551q0 -42 26 -79.5t84 -95.5q100 49 132 76q53 44 53 103q0 54 -39 90.5t-104 36.5q-67 0 -109.5 -36.5t-42.5 -94.5zM282 6q149 0 221 107l-249 248q-85 -40 -130.5 -83t-45.5 -112q0 -76 52.5 -118t151.5 -42zM62 166q0 39 14.5 70.5t43.5 56t56.5 41t68.5 36.5 q-58 59 -84 97t-26 83q0 63 47 104.5t120 41.5q71 0 114.5 -41t43.5 -100q0 -35 -14.5 -63.5t-47.5 -52t-57 -36.5t-72 -36l243 -243q54 86 54 201v19h15v-20q0 -120 -59 -210l115 -114h-20l-103 102q-79 -110 -232 -110q-107 0 -163.5 45.5t-56.5 128.5z"/>
<glyph glyph-name="quotesingle" horiz-adv-x="187" unicode="&apos;" d="M88 436l-2 157v95h16v-95l-3 -157h-11z"/>
<glyph glyph-name="parenleft" horiz-adv-x="252" unicode="(" d="M49 260q0 143 49.5 270t114.5 214h15q-63 -87 -113 -215.5t-50 -268.5t50.5 -270.5t112.5 -217.5h-15q-64 87 -114 216t-50 272z"/>
<glyph glyph-name="parenright" horiz-adv-x="252" unicode=")" d="M23 -228q62 86 112.5 217t50.5 271t-50 268.5t-113 215.5h15q65 -86 114.5 -213.5t49.5 -270.5t-50 -272.5t-114 -215.5h-15z"/>
<glyph glyph-name="asterisk" horiz-adv-x="434" unicode="*" d="M210 696h14l-2 -154l146 50l4 -13l-148 -45l92 -123l-11 -8l-89 125l-87 -125l-11 8l91 123l-146 45l4 13l146 -50z"/>
<glyph glyph-name="plus" d="M60 246v14h216v220h16v-220h216v-14h-216v-218h-16v218h-216z" unicode="+"/>
<glyph glyph-name="comma" horiz-adv-x="205" unicode="," d="M97 0l-12 1v102h36v-100l-36 -156h-20z"/>
<glyph glyph-name="hyphen" horiz-adv-x="396" unicode="-" d="M60 245v15h276v-15h-276z"/>
<glyph glyph-name="period" horiz-adv-x="205" unicode="." d="M85 0v103h36v-103h-36z"/>
<glyph glyph-name="slash" horiz-adv-x="404" unicode="/" d="M40 -12l308 712h15l-308 -712h-15z"/>
<glyph glyph-name="zero" d="M284 7q71 0 120 45.5t71 119.5t22 172q0 150 -54 243.5t-159 93.5q-71 0 -120 -45.5t-71 -119.5t-22 -172q0 -150 54 -243.5t159 -93.5zM284 -8q-114 0 -171.5 97t-57.5 255t57.5 255t171.5 97t171.5 -97t57.5 -255t-57.5 -255t-171.5 -97z" unicode="0"/>
<glyph glyph-name="one" d="M87 524l-6 12l220 153h11v-675h204v-14h-432v14h212v655z" unicode="1"/>
<glyph glyph-name="two" d="M74 0q4 110 38.5 164.5t122.5 106.5l76 45q5 3 28 16t30.5 17.5t27.5 18t27.5 21.5t21.5 23t19.5 28.5t10.5 32t5 38.5q0 79 -52 125t-134 46q-84 0 -143 -46.5t-62 -147.5h-15q2 74 36.5 122.5t81 67t102.5 18.5q87 0 144.5 -50t57.5 -135q0 -21 -5 -40.5t-11 -33.5 t-19.5 -29.5t-22 -24.5t-28.5 -22.5t-29 -19t-32 -19t-30 -17.5l-76 -45q-84 -50 -116.5 -100.5t-36.5 -145.5h410v-14h-427z" unicode="2"/>
<glyph glyph-name="three" d="M59 197h15q0 -92 56.5 -141.5t149.5 -49.5q94 0 153.5 46.5t59.5 132.5q0 81 -60 125t-153 44h-52v14h52q81 0 133 43t52 114q0 74 -52 115.5t-129 41.5q-80 0 -134.5 -45t-54.5 -130h-15q0 92 58 140.5t146 48.5q85 0 141 -45.5t56 -125.5q0 -63 -41 -107t-108 -56 q80 -12 128.5 -57.5t48.5 -120.5q0 -92 -64 -142t-165 -50q-100 0 -160.5 52.5t-60.5 152.5z" unicode="3"/>
<glyph glyph-name="four" d="M57 222h331v442zM39 208v11l352 473h13v-470h118v-14h-118v-208h-16v208h-349z" unicode="4"/>
<glyph glyph-name="five" d="M70 170h16q9 -66 60.5 -115t141.5 -49q88 0 146.5 58t58.5 155q0 92 -55.5 149.5t-146.5 57.5q-121 0 -187 -116l-18 1l20 377h363v-14h-347l-20 -344h1q68 110 189 110q98 0 157.5 -61t59.5 -159q0 -104 -63 -166t-158 -62q-96 0 -151.5 51.5t-66.5 126.5z" unicode="5"/>
<glyph glyph-name="six" d="M98 213q0 -36 9 -63q48 -144 193 -144q89 0 147 58t58 156q0 91 -55 148.5t-146 57.5q-89 0 -147.5 -58.5t-58.5 -154.5zM66 328q0 191 65.5 279.5t172.5 88.5q88 0 139.5 -49t60.5 -131h-15q-9 75 -56 120.5t-129 45.5q-100 0 -161 -85t-61 -269q0 -46 4 -78h2 q10 86 70.5 138t146.5 52q98 0 157 -61.5t59 -158.5q0 -103 -63 -165.5t-158 -62.5q-108 0 -171 81.5t-63 254.5z" unicode="6"/>
<glyph glyph-name="seven" d="M204 0l292 674h-433v14h450v-12l-292 -676h-17z" unicode="7"/>
<glyph glyph-name="eight" d="M284 368q81 0 133.5 43t52.5 114q0 73 -54 115t-132 42t-132 -42t-54 -115q0 -71 52.5 -114t133.5 -43zM71 181q0 -83 56.5 -129t156.5 -46t156.5 46t56.5 129q0 77 -58 125t-155 48t-155 -48t-58 -125zM55 180q0 71 47 120.5t130 61.5q-67 12 -108 56t-41 107 q0 80 57.5 125.5t143.5 45.5t143.5 -45.5t57.5 -125.5q0 -63 -41 -107t-108 -56q83 -12 130 -61.5t47 -120.5q0 -89 -61 -138.5t-168 -49.5t-168 49.5t-61 138.5z" unicode="8"/>
<glyph glyph-name="nine" d="M470 476q0 27 -4 41q-46 165 -198 165q-88 0 -146.5 -58t-58.5 -156q0 -91 55 -148.5t146 -57.5q89 0 147.5 58.5t58.5 155.5zM502 360q0 -192 -63.5 -280t-170.5 -88q-89 0 -142 49.5t-62 130.5h15q9 -75 58 -120.5t131 -45.5q101 0 159.5 84.5t58.5 269.5q0 39 -5 82 h-1q-8 -88 -69.5 -141t-147.5 -53q-98 0 -157 61.5t-59 158.5q0 103 63 165.5t158 62.5q108 0 171 -81.5t63 -254.5z" unicode="9"/>
<glyph glyph-name="colon" horiz-adv-x="205" unicode=":" d="M85 0v103h36v-103h-36zM85 385v103h36v-103h-36z"/>
<glyph glyph-name="semicolon" horiz-adv-x="205" unicode=";" d="M97 0l-12 1v102h36v-100l-36 -156h-20zM85 385v103h36v-103h-36z"/>
<glyph glyph-name="less" d="M76 248v15l416 180v-15l-400 -172l400 -172v-16z" unicode="&lt;"/>
<glyph glyph-name="equal" d="M60 142v14h448v-14h-448zM60 352v14h448v-14h-448z" unicode="="/>
<glyph glyph-name="greater" d="M492 263v-15l-416 -180v16l400 171l-400 173v15z" unicode="&gt;"/>
<glyph glyph-name="question" horiz-adv-x="436" unicode="?" d="M207 0v86h17v-86h-17zM208 196v28q0 54 20 88t57 66l27 23q34 30 52.5 60.5t18.5 76.5q0 67 -45 105.5t-114 38.5q-80 0 -127.5 -48t-47.5 -140h-16q0 98 52.5 150t138.5 52q77 0 126.5 -42t49.5 -116q0 -50 -19.5 -82.5t-56.5 -63.5l-27 -23q-35 -31 -54 -63t-19 -82 v-28h-16z"/>
<glyph glyph-name="at" horiz-adv-x="1032" unicode="@" d="M468 6q82 0 137.5 55t55.5 160v71q-16 -23 -68 -31l-130 -20q-128 -20 -128 -120q0 -52 35.5 -83.5t97.5 -31.5zM319 120q0 113 141 134l131 21q35 6 52.5 16.5t17.5 32.5q0 79 -39.5 118.5t-109.5 39.5q-67 0 -111 -37t-50 -109h-15q5 77 53.5 118.5t122.5 41.5 q76 0 120.5 -44t44.5 -128v-210q0 -55 31.5 -82t78.5 -27q75 0 121 67t46 200q0 123 -59.5 218t-158 144t-216.5 49q-189 0 -315.5 -123.5t-126.5 -323.5q0 -199 123 -324.5t303 -125.5q179 0 281 115h17q-100 -129 -298 -129q-91 0 -171.5 34t-140.5 93.5t-95 147 t-35 189.5q0 205 131.5 333t326.5 128q122 0 224 -51t164 -149.5t62 -224.5q0 -138 -51.5 -208.5t-132.5 -70.5q-53 0 -89 30t-36 89v16q-20 -61 -70.5 -98.5t-122.5 -37.5q-71 0 -110 35t-39 93z"/>
<glyph glyph-name="A" horiz-adv-x="597" unicode="A" d="M298 671l-159 -414h319l-159 414h-1zM23 0l266 688h19l266 -688h-17l-94 243h-330l-93 -243h-17z"/>
<glyph glyph-name="B" horiz-adv-x="632" unicode="B" d="M354 674h-239v-303h246q79 0 125 45t46 114q0 144 -178 144zM363 357h-248v-343h248q95 0 144 49t49 130q0 73 -49.5 118.5t-143.5 45.5zM99 0v688h255q195 0 195 -158q0 -62 -37 -107t-102 -58q79 -10 121 -57t42 -115q0 -87 -54 -140t-156 -53h-264z"/>
<glyph glyph-name="C" horiz-adv-x="698" unicode="C" d="M55 344q0 147 87 249.5t227 102.5q109 0 181.5 -56.5t99.5 -153.5h-16q-27 91 -95 143t-170 52q-133 0 -215 -98t-82 -239q0 -140 81.5 -238.5t214.5 -98.5q102 0 169 52t97 143h16q-30 -98 -101.5 -154t-180.5 -56q-139 0 -226 102.5t-87 249.5z"/>
<glyph glyph-name="D" horiz-adv-x="675" unicode="D" d="M257 674h-142v-660h142q169 0 258 90.5t89 239.5t-89 239.5t-258 90.5zM99 0v688h158q177 0 270 -94t93 -250t-93 -250t-270 -94h-158z"/>
<glyph glyph-name="E" horiz-adv-x="590" unicode="E" d="M99 0v688h435v-14h-419v-314h343v-14h-343v-332h427v-14h-443z"/>
<glyph glyph-name="F" horiz-adv-x="554" unicode="F" d="M99 0v688h427v-14h-411v-317h335v-14h-335v-343h-16z"/>
<glyph glyph-name="G" horiz-adv-x="742" unicode="G" d="M641 0v166h-1q-28 -87 -101 -130.5t-170 -43.5q-138 0 -226 103t-88 249q0 153 90.5 252.5t231.5 99.5q113 0 184 -57.5t91 -147.5h-17q-18 82 -85.5 136t-172.5 54q-135 0 -220 -94.5t-85 -242.5q0 -140 83 -238.5t214 -98.5q53 0 100.5 14.5t86.5 44t61.5 80.5 t22.5 118v71h-267v15h282v-350h-14z"/>
<glyph glyph-name="H" horiz-adv-x="685" unicode="H" d="M99 0v688h16v-329h455v329h16v-688h-16v345h-455v-345h-16z"/>
<glyph glyph-name="I" horiz-adv-x="214" unicode="I" d="M99 0v688h16v-688h-16z"/>
<glyph glyph-name="J" horiz-adv-x="516" unicode="J" d="M69 185v43h16v-42q0 -92 44.5 -136t120.5 -44q71 0 116.5 45.5t45.5 134.5v502h16v-503q0 -96 -49.5 -144.5t-128.5 -48.5q-83 0 -132 47.5t-49 145.5z"/>
<glyph glyph-name="K" horiz-adv-x="630" unicode="K" d="M99 0v688h16v-482l438 482h21l-270 -296l289 -392h-19l-281 380l-178 -196v-184h-16z"/>
<glyph glyph-name="L" horiz-adv-x="535" unicode="L" d="M99 0v688h16v-674h390v-14h-406z"/>
<glyph glyph-name="M" horiz-adv-x="843" unicode="M" d="M99 0v688h18l304 -665h1l304 665h18v-688h-16l1 657h-1l-300 -657h-13l-300 656h-1l1 -656h-16z"/>
<glyph glyph-name="N" horiz-adv-x="689" unicode="N" d="M99 0v688h16l458 -660h1v660h16v-688h-16l-458 660h-1v-660h-16z"/>
<glyph glyph-name="O" horiz-adv-x="753" unicode="O" d="M72 344q0 -145 85.5 -241t218.5 -96q132 0 218.5 96.5t86.5 240.5t-86.5 240.5t-218.5 96.5q-133 0 -218.5 -96t-85.5 -241zM55 344q0 152 89.5 252t231.5 100q139 0 230.5 -100.5t91.5 -251.5t-91.5 -251.5t-230.5 -100.5q-141 0 -231 100.5t-90 251.5z"/>
<glyph glyph-name="P" horiz-adv-x="600" unicode="P" d="M342 674h-227v-384h227q91 0 142.5 53t51.5 139q0 87 -51.5 139.5t-142.5 52.5zM99 0v688h242q99 0 155.5 -56.5t56.5 -149.5q0 -92 -56.5 -149t-155.5 -57h-226v-276h-16z"/>
<glyph glyph-name="Q" horiz-adv-x="760" unicode="Q" d="M72 344q0 -145 85.5 -241t218.5 -96q132 0 218.5 96.5t86.5 240.5t-86.5 240.5t-218.5 96.5q-133 0 -218.5 -96t-85.5 -241zM55 344q0 152 89.5 252t231.5 100q139 0 230.5 -100.5t91.5 -251.5q0 -89 -34.5 -164t-94.5 -122l139 -143l-11 -11l-142 144q-82 -56 -179 -56 q-141 0 -231 100.5t-90 251.5z"/>
<glyph glyph-name="R" horiz-adv-x="627" unicode="R" d="M352 674h-237v-345h237q91 0 141 48.5t50 128.5q0 79 -49 123.5t-142 44.5zM99 0v688h253q100 0 154 -48t54 -134q0 -84 -53 -136.5t-146 -54.5l208 -315h-18l-207 315h-229v-315h-16z"/>
<glyph glyph-name="S" horiz-adv-x="612" unicode="S" d="M68 182h15q0 -88 61 -132t165 -44q101 0 158.5 47.5t57.5 127.5q0 43 -15 73t-44.5 47.5t-59 26.5t-73.5 16l-48 8q-39 7 -64 12.5t-55.5 18t-48 29t-30 44.5t-12.5 65q0 75 63 125t164 50q103 0 164.5 -44.5t61.5 -129.5h-16q0 78 -57.5 119t-152.5 41q-92 0 -151 -45.5 t-59 -114.5q0 -41 15 -69.5t46 -45t60 -24.5t75 -16l48 -8q37 -6 62.5 -12.5t55 -20t47 -31t29.5 -46.5t12 -67q0 -87 -61.5 -138.5t-171.5 -51.5q-112 0 -176.5 47t-64.5 143z"/>
<glyph glyph-name="T" horiz-adv-x="556" unicode="T" d="M8 674v14h540v-14h-262v-674h-16v674h-262z"/>
<glyph glyph-name="U" horiz-adv-x="667" unicode="U" d="M86 268v420h17v-420q0 -130 62 -196t169 -66q106 0 168 66t62 196v420h17v-420q0 -137 -66.5 -206.5t-180.5 -69.5t-181 69.5t-67 206.5z"/>
<glyph glyph-name="V" horiz-adv-x="580" unicode="V" d="M281 0l-266 688h17l258 -671h1l258 671h17l-266 -688h-19z"/>
<glyph glyph-name="W" horiz-adv-x="871" unicode="W" d="M206 0l-190 688h16l184 -669h1l211 669h17l210 -669h1l183 669h17l-190 -688h-21l-208 664h-1l-209 -664h-21z"/>
<glyph glyph-name="X" horiz-adv-x="556" unicode="X" d="M19 0l248 351l-240 337h19l230 -323l229 323h17l-237 -335l253 -353h-20l-242 339l-239 -339h-18z"/>
<glyph glyph-name="Y" horiz-adv-x="558" unicode="Y" d="M270 0v285l-254 403h18l244 -385h1l245 385h18l-255 -401v-287h-17z"/>
<glyph glyph-name="Z" horiz-adv-x="552" unicode="Z" d="M60 674v14h452v-9l-452 -665h448v-14h-468v9l451 665h-431z"/>
<glyph glyph-name="bracketleft" horiz-adv-x="282" unicode="[" d="M115 -214h143v-14h-159v972h159v-14h-143v-944z"/>
<glyph glyph-name="backslash" horiz-adv-x="404" unicode="\" d="M348 -12l-308 712h15l308 -712h-15z"/>
<glyph glyph-name="bracketright" horiz-adv-x="282" unicode="]" d="M23 -214h144v944h-144v14h160v-972h-160v14z"/>
<glyph glyph-name="asciicircum" d="M76 352l198 336h16l199 -336h-16l-191 323l-190 -323h-16z" unicode="^"/>
<glyph glyph-name="underscore" horiz-adv-x="500" unicode="_" d="M0 -72h500v-13h-500v13z"/>
<glyph glyph-name="grave" horiz-adv-x="524" unicode="`" d="M257 568l-116 164h20l110 -164h-14z"/>
<glyph glyph-name="a" horiz-adv-x="499" unicode="a" d="M397 222v75q-13 -22 -68 -31l-130 -20q-64 -10 -96 -39.5t-32 -84.5q0 -52 35 -84t96 -32q85 0 140 55.5t55 160.5zM55 121q0 61 35 93.5t106 43.5l131 21q70 10 70 46q0 77 -40.5 117t-110.5 40q-67 0 -110 -37t-49 -109h-15q5 77 52.5 118.5t121.5 41.5q77 0 122 -44 t45 -128v-324h-16v133q-19 -63 -69.5 -101.5t-126.5 -38.5q-69 0 -107.5 34.5t-38.5 93.5z"/>
<glyph glyph-name="b" horiz-adv-x="554" unicode="b" d="M106 244q0 -107 54.5 -172.5t137.5 -65.5q81 0 135.5 68t54.5 174q0 105 -54.5 169.5t-135.5 64.5t-135 -62t-57 -165v-11zM90 0v732h16v-163q0 -1 -0.5 -112.5t-0.5 -114.5h1q20 70 72 112t120 42q89 0 147.5 -68.5t58.5 -179.5q0 -112 -59.5 -184t-146.5 -72 q-68 0 -120 42t-72 112h-1l1 -146h-16z"/>
<glyph glyph-name="c" horiz-adv-x="498" unicode="c" d="M51 244q0 111 60 181.5t150 70.5q72 0 122 -43.5t65 -118.5h-16q-16 69 -61 108.5t-110 39.5q-83 0 -138.5 -67t-55.5 -171q0 -106 53.5 -172t140.5 -66q65 0 110 39.5t61 108.5h16q-15 -75 -65 -118.5t-122 -43.5q-95 0 -152.5 69.5t-57.5 182.5z"/>
<glyph glyph-name="d" horiz-adv-x="555" unicode="d" d="M67 240q0 -105 54.5 -169.5t135.5 -64.5t135 62t57 165v22q-3 103 -57 165t-134 62q-82 0 -136.5 -68t-54.5 -174zM51 240q0 112 59.5 184t147.5 72q68 0 119.5 -42t71.5 -112h1q0 4 -0.5 114t-0.5 112v164h16v-732h-15v146h-1q-20 -70 -72 -112t-120 -42 q-89 0 -147.5 68.5t-58.5 179.5z"/>
<glyph glyph-name="e" horiz-adv-x="506" unicode="e" d="M258 482q-79 0 -131 -59t-59 -154h368q-1 98 -50.5 155.5t-127.5 57.5zM51 244q0 111 58.5 181.5t148.5 70.5q85 0 139.5 -62.5t54.5 -169.5v-8h-385v-13q1 -107 51.5 -172t139.5 -65q69 0 117 38.5t57 103.5h16q-9 -71 -61.5 -113.5t-128.5 -42.5q-97 0 -152 69t-55 183 z"/>
<glyph glyph-name="f" horiz-adv-x="265" unicode="f" d="M110 0v475h-110v13h110v102q0 142 132 142h35v-14h-34q-58 0 -87.5 -30.5t-29.5 -98.5v-101h135v-13h-135v-475h-16z"/>
<glyph glyph-name="g" horiz-adv-x="555" unicode="g" d="M67 240q0 -105 54.5 -169.5t135.5 -64.5q83 0 137.5 65.5t54.5 172.5t-54 172.5t-137 65.5q-82 0 -136.5 -68t-54.5 -174zM63 -60h15q0 -71 49 -112.5t130 -41.5q192 0 192 227l1 133h-1q-20 -70 -72 -112t-120 -42q-89 0 -147.5 68.5t-58.5 179.5q0 112 59.5 184 t147.5 72q68 0 119.5 -42t71.5 -112h1v146h15v-475q0 -240 -208 -240q-88 0 -141 44.5t-53 122.5z"/>
<glyph glyph-name="h" horiz-adv-x="542" unicode="h" d="M90 0v732h16v-163q0 -1 -0.5 -106t-0.5 -108h1q19 71 69 106t113 35q77 0 122.5 -46.5t45.5 -142.5v-307h-16v306q0 89 -41 132.5t-111 43.5q-78 0 -130 -56t-52 -166v-260h-16z"/>
<glyph glyph-name="i" horiz-adv-x="197" unicode="i" d="M90 0v488h16v-488h-16zM90 646v86h17v-86h-17z"/>
<glyph glyph-name="j" horiz-adv-x="197" unicode="j" d="M90 -115v603h16v-605q0 -103 -96 -103h-25v14h24q41 0 61 20.5t20 70.5zM90 646v86h17v-86h-17z"/>
<glyph glyph-name="k" horiz-adv-x="475" unicode="k" d="M90 0v732h16v-584l307 340h19l-184 -204l209 -284h-20l-200 272l-131 -145v-127h-16z"/>
<glyph glyph-name="l" horiz-adv-x="196" unicode="l" d="M90 0v732h16v-732h-16z"/>
<glyph glyph-name="m" horiz-adv-x="860" unicode="m" d="M90 0v488h15v-133h1q19 70 67.5 105.5t106.5 35.5q62 0 104.5 -36.5t52.5 -109.5h1q22 76 70.5 111t105.5 35q71 0 115.5 -47t44.5 -142v-307h-16v306q0 88 -40 132t-104 44q-73 0 -123.5 -57t-50.5 -165v-260h-16v306q0 88 -40 132t-104 44q-72 0 -123 -56.5t-51 -166.5 v-259h-16z"/>
<glyph glyph-name="n" horiz-adv-x="542" unicode="n" d="M90 0v488h15v-133h1q19 71 69 106t113 35q77 0 122.5 -46.5t45.5 -142.5v-307h-16v306q0 89 -41 132.5t-111 43.5q-78 0 -130 -56.5t-52 -166.5v-259h-16z"/>
<glyph glyph-name="o" horiz-adv-x="524" unicode="o" d="M67 244q0 -109 54.5 -173.5t140.5 -64.5q82 0 138.5 65t56.5 173q0 109 -54.5 173.5t-140.5 64.5q-82 0 -138.5 -65t-56.5 -173zM51 244q0 114 61 183t150 69q94 0 152.5 -68t58.5 -184q0 -114 -61 -183t-150 -69q-94 0 -152.5 68t-58.5 184z"/>
<glyph glyph-name="p" horiz-adv-x="555" unicode="p" d="M488 248q0 105 -54.5 169.5t-135.5 64.5t-135 -62t-57 -165v-11q0 -107 54.5 -172.5t137.5 -65.5q81 0 135.5 68t54.5 174zM106 -80v-140h-16v708h16l-1 -146h1q20 70 72 112t120 42q89 0 147.5 -68.5t58.5 -179.5q0 -112 -59.5 -184t-146.5 -72q-68 0 -120 42t-72 112 h-1q0 -3 0.5 -114t0.5 -112z"/>
<glyph glyph-name="q" horiz-adv-x="555" unicode="q" d="M67 240q0 -105 54.5 -169.5t135.5 -64.5q83 0 137.5 65.5t54.5 172.5t-54 172.5t-137 65.5q-82 0 -136.5 -68t-54.5 -174zM449 -80q0 1 0.5 112t0.5 114h-1q-20 -70 -72 -112t-120 -42q-89 0 -147.5 68.5t-58.5 179.5q0 112 59.5 184t147.5 72q68 0 119.5 -42t71.5 -112 h1v146h15v-708h-16v140z"/>
<glyph glyph-name="r" horiz-adv-x="324" unicode="r" d="M90 0v488h15v-120h1q14 56 51.5 92t89.5 36q40 0 70 -18l-7 -14q-28 17 -63 17q-62 0 -101.5 -58t-39.5 -140v-283h-16z"/>
<glyph glyph-name="s" horiz-adv-x="444" unicode="s" d="M40 137h15q0 -67 46 -99t117 -32q70 0 114.5 31t44.5 92q0 49 -26.5 72t-88.5 35l-85 16q-60 11 -92.5 35.5t-32.5 78.5q0 60 46 95t120 35q70 0 118 -35t48 -103h-15q0 62 -43.5 93t-107.5 31q-67 0 -108.5 -30.5t-41.5 -84.5q0 -47 29 -69t83 -32l85 -16 q68 -14 98 -39.5t30 -81.5q0 -67 -49.5 -102t-125.5 -35q-79 0 -128.5 35.5t-49.5 109.5z"/>
<glyph glyph-name="t" horiz-adv-x="290" unicode="t" d="M102 130v345h-106v13h106v148h16v-148h148v-13h-148v-345q0 -64 25 -90t79 -26h44v-14h-45q-60 0 -89.5 30t-29.5 100z"/>
<glyph glyph-name="u" horiz-adv-x="534" unicode="u" d="M82 181v307h16v-306q0 -89 41 -132.5t109 -43.5q77 0 128.5 57t51.5 165v260h16v-488h-15v133h-1q-19 -71 -68.5 -106t-111.5 -35q-75 0 -120.5 47t-45.5 142z"/>
<glyph glyph-name="v" horiz-adv-x="440" unicode="v" d="M212 0l-192 488h16l184 -470h1l184 470h16l-192 -488h-17z"/>
<glyph glyph-name="w" horiz-adv-x="677" unicode="w" d="M175 0l-155 488h15l148 -470h1l147 470h17l146 -470h1l148 470h15l-155 -488h-18l-145 471h-1l-146 -471h-18z"/>
<glyph glyph-name="x" horiz-adv-x="410" unicode="x" d="M20 0l176 243l-176 245h19l166 -231l168 231h18l-176 -244l176 -244h-20l-166 230l-166 -230h-19z"/>
<glyph glyph-name="y" horiz-adv-x="440" unicode="y" d="M33 -211h14q51 0 78.5 28.5t50.5 87.5l36 95l-192 488h16l184 -470h1l184 470h16l-232 -589q-24 -62 -54 -92.5t-86 -30.5h-16v13z"/>
<glyph glyph-name="z" horiz-adv-x="404" unicode="z" d="M28 475v13h344v-10l-320 -465h324v-13h-344v9l321 466h-325z"/>
<glyph glyph-name="braceleft" horiz-adv-x="363" unicode="{" d="M168 -83v220q0 54 -24.5 78t-83.5 40v12q59 16 83.5 40t24.5 77v215q0 69 35 107t96 38h41v-14h-41q-54 0 -84.5 -34t-30.5 -96v-218q0 -54 -24.5 -79.5t-77.5 -41.5v-1q54 -16 78 -41.5t24 -79.5v-223q0 -62 30.5 -96t84.5 -34h41v-14h-41q-61 0 -96 38t-35 107z"/>
<glyph glyph-name="bar" horiz-adv-x="256" unicode="|" d="M120 -240v1000h16v-1000h-16z"/>
<glyph glyph-name="braceright" horiz-adv-x="363" unicode="}" d="M23 -214h41q54 0 84.5 34t30.5 96v223q0 53 24.5 78.5t78.5 42.5v1q-55 16 -79 41.5t-24 79.5v218q0 62 -30.5 96t-84.5 34h-41v14h41q61 0 96 -38t35 -107v-215q0 -53 25 -77t84 -40v-12q-59 -16 -84 -40.5t-25 -77.5v-220q0 -69 -35 -107t-96 -38h-41v14z"/>
<glyph glyph-name="asciitilde" d="M81 191q0 58 26 89t70 31q28 0 58 -15.5t51.5 -34t50 -34t54.5 -15.5q38 0 59.5 27t21.5 79h15q0 -58 -25.5 -89t-69.5 -31q-36 0 -73.5 25t-73.5 49.5t-68 24.5q-38 0 -59.5 -27t-21.5 -79h-15z" unicode="~"/>
<glyph glyph-name="uni00A0" horiz-adv-x="204" unicode=" "/>
<glyph glyph-name="exclamdown" horiz-adv-x="194" unicode="¡" d="M89 -37l1 344h14l1 -344v-163h-16v163zM89 402v86h16v-86h-16z"/>
<glyph glyph-name="cent" d="M288 -8v105q-95 3 -156 72.5t-61 178.5q0 108 61.5 178.5t155.5 73.5v96h16v-96q76 -2 128.5 -45.5t65.5 -115.5h-16q-13 68 -62.5 107.5t-123.5 39.5q-91 0 -150 -67t-59 -171t59 -170.5t150 -66.5q74 0 123.5 39t62.5 107h16q-13 -72 -65.5 -115t-128.5 -45v-105h-16z " unicode="¢"/>
<glyph glyph-name="sterling" d="M108 5q81 0 107 109q-56 47 -103 47q-36 0 -59 -24t-23 -57q0 -32 20.5 -53.5t57.5 -21.5zM76 350v13h98q-18 37 -25.5 54.5t-16 48.5t-8.5 58q0 79 48.5 125.5t131.5 46.5q79 0 125.5 -44.5t49.5 -127.5h-15q-3 75 -45.5 116.5t-114.5 41.5q-77 0 -120.5 -42.5 t-43.5 -114.5q0 -26 9.5 -58t16.5 -47.5t27 -56.5h200v-13h-194q41 -86 41 -150q0 -42 -9 -82q8 -7 40 -36t46 -40t40.5 -23.5t50.5 -12.5q27 0 47 11.5t30.5 24.5t18 39.5t9.5 40t6 42.5h15q-3 -28 -6 -45.5t-12 -44.5t-21.5 -42.5t-35 -27.5t-52.5 -12q-20 0 -39 6 t-39.5 20t-32.5 24t-35.5 31.5t-32.5 29.5q-31 -111 -120 -111q-45 0 -69 25t-24 63t27.5 66t70.5 28q47 0 105 -45q6 35 6 68q0 59 -43 153h-105z" unicode="£"/>
<glyph glyph-name="currency" d="M284 193q63 0 104.5 43.5t41.5 107.5t-41.5 107.5t-104.5 43.5t-104.5 -43.5t-41.5 -107.5t41.5 -107.5t104.5 -43.5zM113 163l-9 9l60 61q-41 48 -41 111q0 65 41 111l-59 60l9 9l59 -60q46 44 111 44q64 0 110 -43l58 59l9 -9l-59 -59q43 -48 43 -112t-43 -112l60 -60 l-9 -9l-59 60q-45 -43 -110 -43q-67 0 -111 44z" unicode="¤"/>
<glyph glyph-name="yen" d="M99 279v13h175l-244 396h19l235 -383h1l235 383h18l-245 -396h176v-13h-177v-119h177v-13h-177v-147h-16v147h-177v13h177v119h-177z" unicode="¥"/>
<glyph glyph-name="brokenbar" horiz-adv-x="256" unicode="¦" d="M120 -164v352h16v-352h-16zM120 336v352h16v-352h-16z"/>
<glyph glyph-name="section" horiz-adv-x="529" unicode="§" d="M316 371l-69 21q-69 -1 -118 -41.5t-49 -106.5q0 -57 32 -89t101 -53l69 -21q69 1 118 41.5t49 106.5q0 57 -32 89t-101 53zM69 -82h15q3 -64 53.5 -97.5t121.5 -33.5t120.5 38.5t49.5 97.5q0 61 -34 90t-94 47l-92 28q-74 23 -109.5 58.5t-35.5 96.5q0 63 42.5 106 t106.5 53q-60 19 -94.5 51.5t-34.5 96.5t54 107t132 43q77 0 131.5 -37.5t58.5 -107.5h-15q-3 64 -53.5 97.5t-121.5 33.5t-120.5 -38.5t-49.5 -97.5q0 -61 34 -90t94 -47l92 -28q74 -23 109.5 -58.5t35.5 -96.5q0 -64 -42.5 -107t-106.5 -52q60 -19 94.5 -51.5t34.5 -96.5 t-54 -107t-132 -43q-77 0 -131.5 37.5t-58.5 107.5z"/>
<glyph glyph-name="dieresis" horiz-adv-x="524" unicode="¨" d="M161 608v84h16v-84h-16zM350 608v84h16v-84h-16z"/>
<glyph glyph-name="copyright" horiz-adv-x="776" unicode="©" d="M226 348q0 73 46 124t116 51q58 0 96 -31t49 -82h-15q-11 45 -44.5 72t-85.5 27q-64 0 -105 -46.5t-41 -114.5t41 -114.5t105 -46.5q53 0 86 27t44 72h15q-11 -51 -49 -82t-96 -31q-70 0 -116 51t-46 124zM59 348q0 -144 92 -243t237 -99t237 99t92 243 q0 143 -92.5 238.5t-236.5 95.5q-145 0 -237 -95t-92 -239zM43 348q0 149 97 248.5t248 99.5q149 0 247 -100t98 -248q0 -150 -97 -253t-248 -103t-248 103t-97 253z"/>
<glyph glyph-name="ordfeminine" horiz-adv-x="365" unicode="ª" d="M287 496v48q-9 -13 -41 -18l-103 -14q-88 -12 -88 -83q0 -36 24 -57t67 -21q60 0 100.5 37t40.5 108zM39 429q0 83 101 96l103 14q23 3 33.5 10.5t10.5 23.5q0 53 -28.5 80.5t-76.5 27.5q-47 0 -79.5 -25.5t-36.5 -74.5h-14q4 55 40.5 84.5t89.5 29.5q54 0 87.5 -31.5 t33.5 -90.5v-229h-15v86h-1q-14 -40 -50.5 -66.5t-90.5 -26.5q-48 0 -77.5 25.5t-29.5 66.5z"/>
<glyph glyph-name="guillemotleft" horiz-adv-x="487" unicode="«" d="M212 48l-149 204l149 204h14l-146 -204l146 -204h-14zM262 252l149 204h14l-146 -204l146 -204h-14z"/>
<glyph glyph-name="logicalnot" d="M60 246v14h448v-232h-15v218h-433z" unicode="¬"/>
<glyph glyph-name="uni00AD" horiz-adv-x="396" unicode="­" d="M60 245v15h276v-15h-276z"/>
<glyph glyph-name="registered" horiz-adv-x="776" unicode="®" d="M418 506h-137v-169h137q44 0 68 24t24 62q0 37 -24 60t-68 23zM265 176v344h154q51 0 79 -26.5t28 -70.5q0 -42 -25.5 -69.5t-71.5 -30.5l97 -147h-17l-97 147h-131v-147h-16zM59 348q0 -144 92 -243t237 -99t237 99t92 243q0 143 -92.5 238.5t-236.5 95.5 q-145 0 -237 -95t-92 -239zM43 348q0 149 97 248.5t248 99.5q149 0 247 -100t98 -248q0 -150 -97 -253t-248 -103t-248 103t-97 253z"/>
<glyph glyph-name="macron" horiz-adv-x="524" unicode="¯" d="M126 642v12h276v-12h-276z"/>
<glyph glyph-name="degree" horiz-adv-x="346" unicode="°" d="M173 684q-51 0 -84.5 -35.5t-33.5 -86.5t33.5 -86.5t84.5 -35.5t84.5 35.5t33.5 86.5t-33.5 86.5t-84.5 35.5zM173 427q-57 0 -95 39.5t-38 95.5t38 95.5t95 39.5t95 -39.5t38 -95.5t-38 -95.5t-95 -39.5z"/>
<glyph glyph-name="plusminus" d="M60 0v14h448v-14h-448zM60 277v14h216v205h16v-205h216v-14h-216v-202h-16v202h-216z" unicode="±"/>
<glyph glyph-name="twosuperior" horiz-adv-x="352" unicode="²" d="M56 496q2 56 26 87t76 57l43 21q22 11 32.5 17t25.5 17.5t21 25t6 30.5q0 38 -27 59t-76 21t-83 -25.5t-35 -81.5h-15q2 63 40.5 92t92.5 29q55 0 87 -25t32 -69q0 -20 -7 -35t-23 -28t-28 -19.5t-37 -19.5l-42 -21q-48 -24 -69.5 -49.5t-22.5 -68.5h235v-14h-252z"/>
<glyph glyph-name="threesuperior" horiz-adv-x="352" unicode="³" d="M46 593h15q0 -46 31.5 -68.5t83.5 -22.5q53 0 84 21.5t31 61.5q0 39 -32 62t-83 23h-32v13h32q45 0 74 20t29 55q0 36 -30 55.5t-73 19.5t-73.5 -23.5t-30.5 -67.5h-14q0 50 34 77.5t84 27.5q49 0 84 -24.5t35 -64.5q0 -30 -21 -52t-52 -29v-1q36 -7 60.5 -31t24.5 -61 q0 -45 -35.5 -70.5t-95.5 -25.5q-58 0 -94 26.5t-36 78.5z"/>
<glyph glyph-name="acute" horiz-adv-x="524" unicode="´" d="M253 568l110 164h20l-116 -164h-14z"/>
<glyph glyph-name="mu" horiz-adv-x="546" unicode="µ" d="M439 0v133h-1q-19 -71 -68.5 -106t-111.5 -35q-114 0 -151 94q1 -66 1 -228v-78h-16v708h16v-306q0 -89 41 -132.5t109 -43.5q76 0 128 56.5t52 167.5v258h16v-488h-15z"/>
<glyph glyph-name="paragraph" horiz-adv-x="545" unicode="¶" d="M289 0v299q-103 1 -161.5 55t-58.5 139q0 89 59.5 142t163.5 53h13v-688h-16zM429 0v688h16v-688h-16z"/>
<glyph glyph-name="periodcentered" horiz-adv-x="208" unicode="·" d="M85 201v102h38v-102h-38z"/>
<glyph glyph-name="cedilla" horiz-adv-x="524" unicode="¸" d="M228 -62l28 62h12l-21 -50q45 -1 68 -22.5t23 -53.5t-22 -56t-69 -24h-45v13h44q41 0 59 20t18 47q0 28 -20 46t-60 18h-15z"/>
<glyph glyph-name="onesuperior" horiz-adv-x="352" unicode="¹" d="M68 755l-6 12l127 73h11v-330h113v-14h-250v14h121v311z"/>
<glyph glyph-name="ordmasculine" horiz-adv-x="389" unicode="º" d="M55 516q0 -73 38.5 -118t101.5 -45q59 0 99 45.5t40 117.5q0 73 -38.5 118t-100.5 45q-60 0 -100 -45.5t-40 -117.5zM39 516q0 78 45 127.5t111 49.5q69 0 112 -49t43 -128q0 -78 -44.5 -127.5t-110.5 -49.5q-70 0 -113 49t-43 128z"/>
<glyph glyph-name="guillemotright" horiz-adv-x="487" unicode="»" d="M62 48l146 204l-146 204h13l150 -204l-150 -204h-13zM261 48l146 204l-146 204h14l149 -204l-149 -204h-14z"/>
<glyph glyph-name="onequarter" horiz-adv-x="733" unicode="¼" d="M435 110h182v215zM416 96v12l203 240h14v-238h65v-14h-65v-96h-16v96h-201zM207 -12l351 712h16l-351 -712h-16zM68 603l-6 12l127 73h11v-330h113v-14h-250v14h121v311z"/>
<glyph glyph-name="onehalf" horiz-adv-x="733" unicode="½" d="M437 0q2 56 26 87t76 57l43 21q22 11 32.5 17t25.5 17.5t21 25t6 30.5q0 38 -27 59t-76 21t-83 -25.5t-35 -81.5h-15q2 63 40.5 92t92.5 29q55 0 87 -25t32 -69q0 -20 -7 -35t-23 -28t-28 -19.5t-37 -19.5l-42 -21q-48 -24 -69.5 -49.5t-22.5 -68.5h235v-14h-252z M199 -12l351 712h16l-351 -712h-16zM68 603l-6 12l127 73h11v-330h113v-14h-250v14h121v311z"/>
<glyph glyph-name="threequarters" horiz-adv-x="733" unicode="¾" d="M435 110h182v215zM416 96v12l203 240h14v-238h65v-14h-65v-96h-16v96h-201zM199 -12l351 712h16l-351 -712h-16zM46 441h15q0 -46 31.5 -68.5t83.5 -22.5q53 0 84 21.5t31 61.5q0 39 -32 62t-83 23h-32v13h32q45 0 74 20t29 55q0 36 -30 55.5t-73 19.5t-73.5 -23.5 t-30.5 -67.5h-14q0 50 34 77.5t84 27.5q49 0 84 -24.5t35 -64.5q0 -30 -21 -52t-52 -29v-1q36 -7 60.5 -31t24.5 -61q0 -45 -35.5 -70.5t-95.5 -25.5q-58 0 -94 26.5t-36 78.5z"/>
<glyph glyph-name="questiondown" horiz-adv-x="436" unicode="¿" d="M229 487v-86h-17v86h17zM228 291v-28q0 -54 -20 -88t-57 -66l-27 -23q-35 -30 -53 -60t-18 -77q0 -67 45 -105.5t114 -38.5q80 0 127.5 48.5t47.5 140.5h16q0 -98 -52.5 -150t-138.5 -52q-76 0 -126 42t-50 115q0 50 19.5 82.5t56.5 63.5l27 23q35 31 54 63t19 82v28h16z "/>
<glyph glyph-name="Agrave" horiz-adv-x="597" unicode="À" d="M293 768l-116 164h20l110 -164h-14zM298 671l-159 -414h319l-159 414h-1zM23 0l266 688h19l266 -688h-17l-94 243h-330l-93 -243h-17z"/>
<glyph glyph-name="Aacute" horiz-adv-x="597" unicode="Á" d="M289 768l110 164h20l-116 -164h-14zM298 671l-159 -414h319l-159 414h-1zM23 0l266 688h19l266 -688h-17l-94 243h-330l-93 -243h-17z"/>
<glyph glyph-name="Acircumflex" horiz-adv-x="597" unicode="Â" d="M161 768l129 164h16l129 -164h-17l-120 153l-120 -153h-17zM298 671l-159 -414h319l-159 414h-1zM23 0l266 688h19l266 -688h-17l-94 243h-330l-93 -243h-17z"/>
<glyph glyph-name="Atilde" horiz-adv-x="597" unicode="Ã" d="M166 768q8 76 64 76q25 0 74 -30t70 -30q43 0 51 64h12q-3 -30 -19 -53t-45 -23q-25 0 -73.5 30t-69.5 30q-44 0 -52 -64h-12zM298 671l-159 -414h319l-159 414h-1zM23 0l266 688h19l266 -688h-17l-94 243h-330l-93 -243h-17z"/>
<glyph glyph-name="Adieresis" horiz-adv-x="597" unicode="Ä" d="M197 768v84h16v-84h-16zM386 768v84h16v-84h-16zM298 671l-159 -414h319l-159 414h-1zM23 0l266 688h19l266 -688h-17l-94 243h-330l-93 -243h-17z"/>
<glyph glyph-name="Aring" horiz-adv-x="597" unicode="Å" d="M298 788q28 0 50 19.5t22 52.5t-22 52.5t-50 19.5t-50 -19.5t-22 -52.5t22 -52.5t50 -19.5zM298 775q-33 0 -59.5 24t-26.5 61q0 38 26.5 61.5t59.5 23.5t59.5 -23.5t26.5 -61.5q0 -37 -26.5 -61t-59.5 -24zM298 671l-159 -414h319l-159 414h-1zM23 0l266 688h19 l266 -688h-17l-94 243h-330l-93 -243h-17z"/>
<glyph glyph-name="AE" horiz-adv-x="1018" unicode="Æ" d="M170 190h357v478zM8 0l514 688h439v-14h-418v-314h342v-14h-342v-332h426v-14h-442v176h-367l-131 -176h-21z"/>
<glyph glyph-name="Ccedilla" horiz-adv-x="698" unicode="Ç" d="M334 -62l24 55q-135 4 -219 105.5t-84 245.5q0 147 87 249.5t227 102.5q109 0 181.5 -56.5t99.5 -153.5h-16q-27 91 -95 143t-170 52q-133 0 -215 -98t-82 -239q0 -140 81.5 -238.5t214.5 -98.5q102 0 169 52t97 143h16q-30 -97 -101 -153t-179 -57l-17 -42 q45 -1 68 -22.5t23 -53.5t-22 -56t-69 -24h-45v13h44q41 0 59 20t18 47q0 28 -20 46t-60 18h-15z"/>
<glyph glyph-name="Egrave" horiz-adv-x="590" unicode="È" d="M315 768l-116 164h20l110 -164h-14zM99 0v688h435v-14h-419v-314h343v-14h-343v-332h427v-14h-443z"/>
<glyph glyph-name="Eacute" horiz-adv-x="590" unicode="É" d="M311 768l110 164h20l-116 -164h-14zM99 0v688h435v-14h-419v-314h343v-14h-343v-332h427v-14h-443z"/>
<glyph glyph-name="Ecircumflex" horiz-adv-x="590" unicode="Ê" d="M183 768l129 164h16l129 -164h-17l-120 153l-120 -153h-17zM99 0v688h435v-14h-419v-314h343v-14h-343v-332h427v-14h-443z"/>
<glyph glyph-name="Edieresis" horiz-adv-x="590" unicode="Ë" d="M219 768v84h16v-84h-16zM408 768v84h16v-84h-16zM99 0v688h435v-14h-419v-314h343v-14h-343v-332h427v-14h-443z"/>
<glyph glyph-name="Igrave" horiz-adv-x="214" unicode="Ì" d="M102 768l-116 164h20l110 -164h-14zM99 0v688h16v-688h-16z"/>
<glyph glyph-name="Iacute" horiz-adv-x="214" unicode="Í" d="M98 768l110 164h20l-116 -164h-14zM99 0v688h16v-688h-16z"/>
<glyph glyph-name="Icircumflex" horiz-adv-x="214" unicode="Î" d="M-30 768l129 164h16l129 -164h-17l-120 153l-120 -153h-17zM99 0v688h16v-688h-16z"/>
<glyph glyph-name="Idieresis" horiz-adv-x="214" unicode="Ï" d="M6 768v84h16v-84h-16zM195 768v84h16v-84h-16zM99 0v688h16v-688h-16z"/>
<glyph glyph-name="Eth" horiz-adv-x="675" unicode="Ð" d="M257 674h-142v-322h167v-13h-167v-325h142q170 0 258.5 90.5t88.5 239.5t-88.5 239.5t-258.5 90.5zM4 339v13h95v336h158q177 0 270 -94t93 -250t-93 -250t-270 -94h-158v339h-95z"/>
<glyph glyph-name="Ntilde" horiz-adv-x="689" unicode="Ñ" d="M212 768q8 76 64 76q25 0 74 -30t70 -30q43 0 51 64h12q-3 -30 -19 -53t-45 -23q-25 0 -73.5 30t-69.5 30q-44 0 -52 -64h-12zM99 0v688h16l458 -660h1v660h16v-688h-16l-458 660h-1v-660h-16z"/>
<glyph glyph-name="Ograve" horiz-adv-x="753" unicode="Ò" d="M371 768l-116 164h20l110 -164h-14zM72 344q0 -145 85.5 -241t218.5 -96q132 0 218.5 96.5t86.5 240.5t-86.5 240.5t-218.5 96.5q-133 0 -218.5 -96t-85.5 -241zM55 344q0 152 89.5 252t231.5 100q139 0 230.5 -100.5t91.5 -251.5t-91.5 -251.5t-230.5 -100.5 q-141 0 -231 100.5t-90 251.5z"/>
<glyph glyph-name="Oacute" horiz-adv-x="753" unicode="Ó" d="M367 768l110 164h20l-116 -164h-14zM72 344q0 -145 85.5 -241t218.5 -96q132 0 218.5 96.5t86.5 240.5t-86.5 240.5t-218.5 96.5q-133 0 -218.5 -96t-85.5 -241zM55 344q0 152 89.5 252t231.5 100q139 0 230.5 -100.5t91.5 -251.5t-91.5 -251.5t-230.5 -100.5 q-141 0 -231 100.5t-90 251.5z"/>
<glyph glyph-name="Ocircumflex" horiz-adv-x="753" unicode="Ô" d="M239 768l129 164h16l129 -164h-17l-120 153l-120 -153h-17zM72 344q0 -145 85.5 -241t218.5 -96q132 0 218.5 96.5t86.5 240.5t-86.5 240.5t-218.5 96.5q-133 0 -218.5 -96t-85.5 -241zM55 344q0 152 89.5 252t231.5 100q139 0 230.5 -100.5t91.5 -251.5t-91.5 -251.5 t-230.5 -100.5q-141 0 -231 100.5t-90 251.5z"/>
<glyph glyph-name="Otilde" horiz-adv-x="753" unicode="Õ" d="M244 768q8 76 64 76q25 0 74 -30t70 -30q43 0 51 64h12q-3 -30 -19 -53t-45 -23q-25 0 -73.5 30t-69.5 30q-44 0 -52 -64h-12zM72 344q0 -145 85.5 -241t218.5 -96q132 0 218.5 96.5t86.5 240.5t-86.5 240.5t-218.5 96.5q-133 0 -218.5 -96t-85.5 -241zM55 344 q0 152 89.5 252t231.5 100q139 0 230.5 -100.5t91.5 -251.5t-91.5 -251.5t-230.5 -100.5q-141 0 -231 100.5t-90 251.5z"/>
<glyph glyph-name="Odieresis" horiz-adv-x="753" unicode="Ö" d="M275 768v84h16v-84h-16zM464 768v84h16v-84h-16zM72 344q0 -145 85.5 -241t218.5 -96q132 0 218.5 96.5t86.5 240.5t-86.5 240.5t-218.5 96.5q-133 0 -218.5 -96t-85.5 -241zM55 344q0 152 89.5 252t231.5 100q139 0 230.5 -100.5t91.5 -251.5t-91.5 -251.5 t-230.5 -100.5q-141 0 -231 100.5t-90 251.5z"/>
<glyph glyph-name="multiply" d="M99 436l11 10l176 -179l177 179l10 -11l-176 -178l177 -179l-11 -10l-177 178l-177 -179l-10 11l177 179z" unicode="×"/>
<glyph glyph-name="Oslash" horiz-adv-x="753" unicode="Ø" d="M72 344q0 -153 92 -248l416 504q-87 81 -204 81q-133 0 -218.5 -96t-85.5 -241zM681 344q0 149 -93 247l-416 -503q84 -81 204 -81q132 0 218.5 96.5t86.5 240.5zM74 -12l79 96q-98 101 -98 260q0 152 89.5 252t231.5 100q124 0 214 -84l73 88h16l-80 -97 q99 -102 99 -259q0 -150 -92 -251t-230 -101q-124 0 -214 83l-72 -87h-16z"/>
<glyph glyph-name="Ugrave" horiz-adv-x="667" unicode="Ù" d="M328 768l-116 164h20l110 -164h-14zM86 268v420h17v-420q0 -130 62 -196t169 -66q106 0 168 66t62 196v420h17v-420q0 -137 -66.5 -206.5t-180.5 -69.5t-181 69.5t-67 206.5z"/>
<glyph glyph-name="Uacute" horiz-adv-x="667" unicode="Ú" d="M324 768l110 164h20l-116 -164h-14zM86 268v420h17v-420q0 -130 62 -196t169 -66q106 0 168 66t62 196v420h17v-420q0 -137 -66.5 -206.5t-180.5 -69.5t-181 69.5t-67 206.5z"/>
<glyph glyph-name="Ucircumflex" horiz-adv-x="667" unicode="Û" d="M196 768l129 164h16l129 -164h-17l-120 153l-120 -153h-17zM86 268v420h17v-420q0 -130 62 -196t169 -66q106 0 168 66t62 196v420h17v-420q0 -137 -66.5 -206.5t-180.5 -69.5t-181 69.5t-67 206.5z"/>
<glyph glyph-name="Udieresis" horiz-adv-x="667" unicode="Ü" d="M232 768v84h16v-84h-16zM421 768v84h16v-84h-16zM86 268v420h17v-420q0 -130 62 -196t169 -66q106 0 168 66t62 196v420h17v-420q0 -137 -66.5 -206.5t-180.5 -69.5t-181 69.5t-67 206.5z"/>
<glyph glyph-name="Yacute" horiz-adv-x="558" unicode="Ý" d="M270 768l110 164h20l-116 -164h-14zM270 0v285l-254 403h18l244 -385h1l245 385h18l-255 -401v-287h-17z"/>
<glyph glyph-name="Thorn" horiz-adv-x="600" unicode="Þ" d="M342 552h-227v-385h227q91 0 142.5 53t51.5 140q0 86 -51.5 139t-142.5 53zM99 0v688h16v-123h226q99 0 155.5 -56.5t56.5 -148.5q0 -93 -56.5 -150t-155.5 -57h-226v-153h-16z"/>
<glyph glyph-name="germandbls" horiz-adv-x="503" unicode="ß" d="M69 0v508q0 118 50 175t133 57q73 0 112.5 -35.5t39.5 -94.5q0 -30 -12 -54t-29.5 -40.5t-35 -31.5t-29.5 -34t-12 -42q0 -29 27.5 -56.5t60 -48t60 -58.5t27.5 -87q0 -77 -48.5 -117.5t-119.5 -40.5h-66v14h66q62 0 107 36.5t45 106.5q0 46 -27.5 82.5t-60 56.5t-60 49 t-27.5 62q0 25 12.5 45.5t30 36t34.5 31.5t29.5 39t12.5 51q0 53 -35.5 84.5t-101.5 31.5q-77 0 -122 -53t-45 -165v-508h-16z"/>
<glyph glyph-name="agrave" horiz-adv-x="499" unicode="à" d="M243 568l-116 164h20l110 -164h-14zM397 222v75q-13 -22 -68 -31l-130 -20q-64 -10 -96 -39.5t-32 -84.5q0 -52 35 -84t96 -32q85 0 140 55.5t55 160.5zM55 121q0 61 35 93.5t106 43.5l131 21q70 10 70 46q0 77 -40.5 117t-110.5 40q-67 0 -110 -37t-49 -109h-15 q5 77 52.5 118.5t121.5 41.5q77 0 122 -44t45 -128v-324h-16v133q-19 -63 -69.5 -101.5t-126.5 -38.5q-69 0 -107.5 34.5t-38.5 93.5z"/>
<glyph glyph-name="aacute" horiz-adv-x="499" unicode="á" d="M239 568l110 164h20l-116 -164h-14zM397 222v75q-13 -22 -68 -31l-130 -20q-64 -10 -96 -39.5t-32 -84.5q0 -52 35 -84t96 -32q85 0 140 55.5t55 160.5zM55 121q0 61 35 93.5t106 43.5l131 21q70 10 70 46q0 77 -40.5 117t-110.5 40q-67 0 -110 -37t-49 -109h-15 q5 77 52.5 118.5t121.5 41.5q77 0 122 -44t45 -128v-324h-16v133q-19 -63 -69.5 -101.5t-126.5 -38.5q-69 0 -107.5 34.5t-38.5 93.5z"/>
<glyph glyph-name="acircumflex" horiz-adv-x="499" unicode="â" d="M111 568l129 164h16l129 -164h-17l-120 153l-120 -153h-17zM397 222v75q-13 -22 -68 -31l-130 -20q-64 -10 -96 -39.5t-32 -84.5q0 -52 35 -84t96 -32q85 0 140 55.5t55 160.5zM55 121q0 61 35 93.5t106 43.5l131 21q70 10 70 46q0 77 -40.5 117t-110.5 40 q-67 0 -110 -37t-49 -109h-15q5 77 52.5 118.5t121.5 41.5q77 0 122 -44t45 -128v-324h-16v133q-19 -63 -69.5 -101.5t-126.5 -38.5q-69 0 -107.5 34.5t-38.5 93.5z"/>
<glyph glyph-name="atilde" horiz-adv-x="499" unicode="ã" d="M116 610q8 76 64 76q25 0 74 -30t70 -30q43 0 51 64h12q-3 -30 -19 -53t-45 -23q-25 0 -73.5 30t-69.5 30q-44 0 -52 -64h-12zM397 222v75q-13 -22 -68 -31l-130 -20q-64 -10 -96 -39.5t-32 -84.5q0 -52 35 -84t96 -32q85 0 140 55.5t55 160.5zM55 121q0 61 35 93.5 t106 43.5l131 21q70 10 70 46q0 77 -40.5 117t-110.5 40q-67 0 -110 -37t-49 -109h-15q5 77 52.5 118.5t121.5 41.5q77 0 122 -44t45 -128v-324h-16v133q-19 -63 -69.5 -101.5t-126.5 -38.5q-69 0 -107.5 34.5t-38.5 93.5z"/>
<glyph glyph-name="adieresis" horiz-adv-x="499" unicode="ä" d="M147 608v84h16v-84h-16zM336 608v84h16v-84h-16zM397 222v75q-13 -22 -68 -31l-130 -20q-64 -10 -96 -39.5t-32 -84.5q0 -52 35 -84t96 -32q85 0 140 55.5t55 160.5zM55 121q0 61 35 93.5t106 43.5l131 21q70 10 70 46q0 77 -40.5 117t-110.5 40q-67 0 -110 -37t-49 -109 h-15q5 77 52.5 118.5t121.5 41.5q77 0 122 -44t45 -128v-324h-16v133q-19 -63 -69.5 -101.5t-126.5 -38.5q-69 0 -107.5 34.5t-38.5 93.5z"/>
<glyph glyph-name="aring" horiz-adv-x="499" unicode="å" d="M248 588q28 0 50 19.5t22 52.5t-22 52.5t-50 19.5t-50 -19.5t-22 -52.5t22 -52.5t50 -19.5zM248 575q-33 0 -59.5 24t-26.5 61q0 38 26.5 61.5t59.5 23.5t59.5 -23.5t26.5 -61.5q0 -37 -26.5 -61t-59.5 -24zM397 222v75q-13 -22 -68 -31l-130 -20q-64 -10 -96 -39.5 t-32 -84.5q0 -52 35 -84t96 -32q85 0 140 55.5t55 160.5zM55 121q0 61 35 93.5t106 43.5l131 21q70 10 70 46q0 77 -40.5 117t-110.5 40q-67 0 -110 -37t-49 -109h-15q5 77 52.5 118.5t121.5 41.5q77 0 122 -44t45 -128v-324h-16v133q-19 -63 -69.5 -101.5t-126.5 -38.5 q-69 0 -107.5 34.5t-38.5 93.5z"/>
<glyph glyph-name="ae" horiz-adv-x="844" unicode="æ" d="M600 482q-74 0 -127 -59.5t-59 -153.5h360q-1 97 -51 155t-123 58zM203 6q84 0 139 55t55 160v75q-16 -22 -68 -30l-130 -20q-64 -10 -96 -39.5t-32 -84.5q0 -53 35 -84.5t97 -31.5zM72 336q6 79 53.5 119.5t120.5 40.5q74 0 118 -42t46 -126q19 76 70.5 122t119.5 46 q81 0 135.5 -63t54.5 -169v-8h-377v-23q2 -102 54 -164.5t137 -62.5q65 0 111 39t55 103h16q-9 -70 -60.5 -113t-121.5 -43q-77 0 -129 46.5t-70 126.5q-12 -82 -68 -127.5t-136 -45.5q-69 0 -107.5 35t-38.5 94q0 61 35 93.5t106 43.5l131 21q70 10 70 46q0 77 -40.5 117 t-110.5 40q-67 0 -110 -37t-49 -109h-15z"/>
<glyph glyph-name="ccedilla" horiz-adv-x="498" unicode="ç" d="M228 -62l24 55q-89 2 -145 72t-56 179q0 111 60 181.5t150 70.5q72 0 122 -43.5t65 -118.5h-16q-16 69 -61 108.5t-110 39.5q-83 0 -138.5 -67t-55.5 -171q0 -105 53.5 -171.5t140.5 -66.5q63 0 109 39.5t62 108.5h16q-15 -74 -65 -117t-119 -44l-19 -43 q45 -1 68.5 -22.5t23.5 -53.5t-22 -56t-69 -24h-45v12h45q41 0 59 20.5t18 47.5q0 28 -20 46t-60 18h-15z"/>
<glyph glyph-name="egrave" horiz-adv-x="506" unicode="è" d="M253 568l-116 164h20l110 -164h-14zM258 482q-79 0 -131 -59t-59 -154h368q-1 98 -50.5 155.5t-127.5 57.5zM51 244q0 111 58.5 181.5t148.5 70.5q85 0 139.5 -62.5t54.5 -169.5v-8h-385v-13q1 -107 51.5 -172t139.5 -65q69 0 117 38.5t57 103.5h16q-9 -71 -61.5 -113.5 t-128.5 -42.5q-97 0 -152 69t-55 183z"/>
<glyph glyph-name="eacute" horiz-adv-x="506" unicode="é" d="M249 568l110 164h20l-116 -164h-14zM258 482q-79 0 -131 -59t-59 -154h368q-1 98 -50.5 155.5t-127.5 57.5zM51 244q0 111 58.5 181.5t148.5 70.5q85 0 139.5 -62.5t54.5 -169.5v-8h-385v-13q1 -107 51.5 -172t139.5 -65q69 0 117 38.5t57 103.5h16q-9 -71 -61.5 -113.5 t-128.5 -42.5q-97 0 -152 69t-55 183z"/>
<glyph glyph-name="ecircumflex" horiz-adv-x="506" unicode="ê" d="M121 568l129 164h16l129 -164h-17l-120 153l-120 -153h-17zM258 482q-79 0 -131 -59t-59 -154h368q-1 98 -50.5 155.5t-127.5 57.5zM51 244q0 111 58.5 181.5t148.5 70.5q85 0 139.5 -62.5t54.5 -169.5v-8h-385v-13q1 -107 51.5 -172t139.5 -65q69 0 117 38.5t57 103.5 h16q-9 -71 -61.5 -113.5t-128.5 -42.5q-97 0 -152 69t-55 183z"/>
<glyph glyph-name="edieresis" horiz-adv-x="506" unicode="ë" d="M157 608v84h16v-84h-16zM346 608v84h16v-84h-16zM258 482q-79 0 -131 -59t-59 -154h368q-1 98 -50.5 155.5t-127.5 57.5zM51 244q0 111 58.5 181.5t148.5 70.5q85 0 139.5 -62.5t54.5 -169.5v-8h-385v-13q1 -107 51.5 -172t139.5 -65q69 0 117 38.5t57 103.5h16 q-9 -71 -61.5 -113.5t-128.5 -42.5q-97 0 -152 69t-55 183z"/>
<glyph glyph-name="igrave" horiz-adv-x="197" unicode="ì" d="M93 568l-116 164h20l110 -164h-14zM90 0v488h16v-488h-16z"/>
<glyph glyph-name="iacute" horiz-adv-x="197" unicode="í" d="M89 568l110 164h20l-116 -164h-14zM90 0v488h16v-488h-16z"/>
<glyph glyph-name="icircumflex" horiz-adv-x="197" unicode="î" d="M-39 568l129 164h16l129 -164h-17l-120 153l-120 -153h-17zM90 0v488h16v-488h-16z"/>
<glyph glyph-name="idieresis" horiz-adv-x="197" unicode="ï" d="M-3 608v84h16v-84h-16zM186 608v84h16v-84h-16zM90 0v488h16v-488h-16z"/>
<glyph glyph-name="eth" horiz-adv-x="518" unicode="ð" d="M53 228q0 -96 54.5 -159t140.5 -63q83 0 139.5 62.5t56.5 159.5q0 98 -55 160t-141 62q-82 0 -138.5 -63.5t-56.5 -158.5zM168 567l-7 10l120 79q-64 46 -153 74l2 14q97 -30 165 -80l101 67l6 -10l-98 -64q155 -122 156 -385v-40q0 -106 -60.5 -173t-151.5 -67 q-94 0 -152.5 66.5t-58.5 169.5q0 102 61 169t150 67q67 0 117.5 -36t74.5 -97h1q-18 214 -150 317z"/>
<glyph glyph-name="ntilde" horiz-adv-x="542" unicode="ñ" d="M136 610q8 76 64 76q25 0 74 -30t70 -30q43 0 51 64h12q-3 -30 -19 -53t-45 -23q-25 0 -73.5 30t-69.5 30q-44 0 -52 -64h-12zM90 0v488h15v-133h1q19 71 69 106t113 35q77 0 122.5 -46.5t45.5 -142.5v-307h-16v306q0 89 -41 132.5t-111 43.5q-78 0 -130 -56.5 t-52 -166.5v-259h-16z"/>
<glyph glyph-name="ograve" horiz-adv-x="524" unicode="ò" d="M257 568l-116 164h20l110 -164h-14zM67 244q0 -109 54.5 -173.5t140.5 -64.5q82 0 138.5 65t56.5 173q0 109 -54.5 173.5t-140.5 64.5q-82 0 -138.5 -65t-56.5 -173zM51 244q0 114 61 183t150 69q94 0 152.5 -68t58.5 -184q0 -114 -61 -183t-150 -69q-94 0 -152.5 68 t-58.5 184z"/>
<glyph glyph-name="oacute" horiz-adv-x="524" unicode="ó" d="M253 568l110 164h20l-116 -164h-14zM67 244q0 -109 54.5 -173.5t140.5 -64.5q82 0 138.5 65t56.5 173q0 109 -54.5 173.5t-140.5 64.5q-82 0 -138.5 -65t-56.5 -173zM51 244q0 114 61 183t150 69q94 0 152.5 -68t58.5 -184q0 -114 -61 -183t-150 -69q-94 0 -152.5 68 t-58.5 184z"/>
<glyph glyph-name="ocircumflex" horiz-adv-x="524" unicode="ô" d="M125 568l129 164h16l129 -164h-17l-120 153l-120 -153h-17zM67 244q0 -109 54.5 -173.5t140.5 -64.5q82 0 138.5 65t56.5 173q0 109 -54.5 173.5t-140.5 64.5q-82 0 -138.5 -65t-56.5 -173zM51 244q0 114 61 183t150 69q94 0 152.5 -68t58.5 -184q0 -114 -61 -183 t-150 -69q-94 0 -152.5 68t-58.5 184z"/>
<glyph glyph-name="otilde" horiz-adv-x="524" unicode="õ" d="M130 610q8 76 64 76q25 0 74 -30t70 -30q43 0 51 64h12q-3 -30 -19 -53t-45 -23q-25 0 -73.5 30t-69.5 30q-44 0 -52 -64h-12zM67 244q0 -109 54.5 -173.5t140.5 -64.5q82 0 138.5 65t56.5 173q0 109 -54.5 173.5t-140.5 64.5q-82 0 -138.5 -65t-56.5 -173zM51 244 q0 114 61 183t150 69q94 0 152.5 -68t58.5 -184q0 -114 -61 -183t-150 -69q-94 0 -152.5 68t-58.5 184z"/>
<glyph glyph-name="odieresis" horiz-adv-x="524" unicode="ö" d="M161 608v84h16v-84h-16zM350 608v84h16v-84h-16zM67 244q0 -109 54.5 -173.5t140.5 -64.5q82 0 138.5 65t56.5 173q0 109 -54.5 173.5t-140.5 64.5q-82 0 -138.5 -65t-56.5 -173zM51 244q0 114 61 183t150 69q94 0 152.5 -68t58.5 -184q0 -114 -61 -183t-150 -69 q-94 0 -152.5 68t-58.5 184z"/>
<glyph glyph-name="divide" d="M276 35v93h16v-93h-16zM60 246v14h448v-14h-448zM276 380v93h16v-93h-16z" unicode="÷"/>
<glyph glyph-name="oslash" horiz-adv-x="524" unicode="ø" d="M457 244q0 106 -53 170l-275 -351q52 -57 133 -57q82 0 138.5 65t56.5 173zM67 244q0 -106 53 -172l276 352q-55 58 -134 58q-82 0 -138.5 -65t-56.5 -173zM54 -12l56 71q-59 70 -59 185q0 114 61 183t150 69q86 0 144 -60l50 64h15l-57 -73q59 -69 59 -183t-61 -183 t-150 -69q-87 0 -143 59l-49 -63h-16z"/>
<glyph glyph-name="ugrave" horiz-adv-x="534" unicode="ù" d="M262 568l-116 164h20l110 -164h-14zM82 181v307h16v-306q0 -89 41 -132.5t109 -43.5q77 0 128.5 57t51.5 165v260h16v-488h-15v133h-1q-19 -71 -68.5 -106t-111.5 -35q-75 0 -120.5 47t-45.5 142z"/>
<glyph glyph-name="uacute" horiz-adv-x="534" unicode="ú" d="M258 568l110 164h20l-116 -164h-14zM82 181v307h16v-306q0 -89 41 -132.5t109 -43.5q77 0 128.5 57t51.5 165v260h16v-488h-15v133h-1q-19 -71 -68.5 -106t-111.5 -35q-75 0 -120.5 47t-45.5 142z"/>
<glyph glyph-name="ucircumflex" horiz-adv-x="534" unicode="û" d="M130 568l129 164h16l129 -164h-17l-120 153l-120 -153h-17zM82 181v307h16v-306q0 -89 41 -132.5t109 -43.5q77 0 128.5 57t51.5 165v260h16v-488h-15v133h-1q-19 -71 -68.5 -106t-111.5 -35q-75 0 -120.5 47t-45.5 142z"/>
<glyph glyph-name="udieresis" horiz-adv-x="534" unicode="ü" d="M166 608v84h16v-84h-16zM355 608v84h16v-84h-16zM82 181v307h16v-306q0 -89 41 -132.5t109 -43.5q77 0 128.5 57t51.5 165v260h16v-488h-15v133h-1q-19 -71 -68.5 -106t-111.5 -35q-75 0 -120.5 47t-45.5 142z"/>
<glyph glyph-name="yacute" horiz-adv-x="440" unicode="ý" d="M211 568l110 164h20l-116 -164h-14zM33 -211h14q51 0 78.5 28.5t50.5 87.5l36 95l-192 488h16l184 -470h1l184 470h16l-232 -589q-24 -62 -54 -92.5t-86 -30.5h-16v13z"/>
<glyph glyph-name="thorn" horiz-adv-x="555" unicode="þ" d="M488 248q0 105 -54.5 169.5t-135.5 64.5q-83 0 -137.5 -65.5t-54.5 -172.5t54.5 -172.5t137.5 -65.5q81 0 135.5 68t54.5 174zM504 248q0 -112 -59.5 -184t-146.5 -72q-68 0 -120 42t-72 112h-1l1 -227v-139h-16v952h16v-163q0 -1 -0.5 -112.5t-0.5 -114.5h1 q20 70 72 112t120 42q89 0 147.5 -68.5t58.5 -179.5z"/>
<glyph glyph-name="OE" horiz-adv-x="1039" unicode="Œ" d="M72 344q0 -149 88.5 -239.5t257.5 -90.5h130v660h-130q-169 0 -257.5 -90.5t-88.5 -239.5zM418 0q-177 0 -270 94t-93 250t93 250t270 94h565v-14h-419v-314h343v-14h-343v-332h427v-14h-573z"/>
<glyph glyph-name="oe" horiz-adv-x="912" unicode="œ" d="M663 482q-78 0 -130.5 -59t-59.5 -154h368q0 98 -50 155.5t-128 57.5zM67 244q0 -109 54.5 -173.5t140.5 -64.5q82 0 138.5 65t56.5 173t-56.5 173t-138.5 65t-138.5 -65t-56.5 -173zM51 244q0 114 61 183t150 69q78 0 133 -50t70 -138q15 85 69 136.5t129 51.5 q86 0 140.5 -62.5t54.5 -169.5v-8h-385v-23q2 -103 52.5 -165t138.5 -62q69 0 117 38.5t57 103.5h16q-9 -70 -62 -113t-128 -43q-83 0 -134.5 50t-65.5 137q-15 -86 -71.5 -136.5t-130.5 -50.5q-94 0 -152.5 68t-58.5 184z"/>
<glyph glyph-name="Scaron" horiz-adv-x="612" unicode="Š" d="M294 768l-129 164h17l120 -153l120 153h17l-129 -164h-16zM68 182h15q0 -88 61 -132t165 -44q101 0 158.5 47.5t57.5 127.5q0 43 -15 73t-44.5 47.5t-59 26.5t-73.5 16l-48 8q-39 7 -64 12.5t-55.5 18t-48 29t-30 44.5t-12.5 65q0 75 63 125t164 50q103 0 164.5 -44.5 t61.5 -129.5h-16q0 78 -57.5 119t-152.5 41q-92 0 -151 -45.5t-59 -114.5q0 -41 15 -69.5t46 -45t60 -24.5t75 -16l48 -8q37 -6 62.5 -12.5t55 -20t47 -31t29.5 -46.5t12 -67q0 -87 -61.5 -138.5t-171.5 -51.5q-112 0 -176.5 47t-64.5 143z"/>
<glyph glyph-name="scaron" horiz-adv-x="444" unicode="š" d="M210 568l-129 164h17l120 -153l120 153h17l-129 -164h-16zM40 137h15q0 -67 46 -99t117 -32q70 0 114.5 31t44.5 92q0 49 -26.5 72t-88.5 35l-85 16q-60 11 -92.5 35.5t-32.5 78.5q0 60 46 95t120 35q70 0 118 -35t48 -103h-15q0 62 -43.5 93t-107.5 31 q-67 0 -108.5 -30.5t-41.5 -84.5q0 -47 29 -69t83 -32l85 -16q68 -14 98 -39.5t30 -81.5q0 -67 -49.5 -102t-125.5 -35q-79 0 -128.5 35.5t-49.5 109.5z"/>
<glyph glyph-name="Ydieresis" horiz-adv-x="558" unicode="Ÿ" d="M178 768v84h16v-84h-16zM367 768v84h16v-84h-16zM270 0v285l-254 403h18l244 -385h1l245 385h18l-255 -401v-287h-17z"/>
<glyph glyph-name="circumflex" horiz-adv-x="524" unicode="ˆ" d="M125 568l129 164h16l129 -164h-17l-120 153l-120 -153h-17z"/>
<glyph glyph-name="tilde" horiz-adv-x="524" unicode="˜" d="M130 610q8 76 64 76q25 0 74 -30t70 -30q43 0 51 64h12q-3 -30 -19 -53t-45 -23q-25 0 -73.5 30t-69.5 30q-44 0 -52 -64h-12z"/>
<glyph glyph-name="uni0394" horiz-adv-x="590" unicode="Δ" d="M295 673l-242 -659h484zM31 0l254 688h20l254 -688h-528z"/>
<glyph glyph-name="uni03BC" horiz-adv-x="546" unicode="μ" d="M439 0v133h-1q-19 -71 -68.5 -106t-111.5 -35q-114 0 -151 94q1 -66 1 -228v-78h-16v708h16v-306q0 -89 41 -132.5t109 -43.5q76 0 128 56.5t52 167.5v258h16v-488h-15z"/>
<glyph glyph-name="pi" horiz-adv-x="556" unicode="π" d="M91 0v488h373v-488h-16v474h-341v-474h-16z"/>
<glyph glyph-name="endash" horiz-adv-x="556" unicode="–" d="M60 245v15h436v-15h-436z"/>
<glyph glyph-name="emdash" horiz-adv-x="840" unicode="—" d="M60 245v15h720v-15h-720z"/>
<glyph glyph-name="quoteleft" horiz-adv-x="187" unicode="‘" d="M86 436v100l35 152h10l-31 -152h4v-100h-18z"/>
<glyph glyph-name="quotesinglbase" horiz-adv-x="187" unicode="‚" d="M87 0h-4v101h17v-101l-34 -151h-10z"/>
<glyph glyph-name="quotedblleft" horiz-adv-x="338" unicode="“" d="M238 436v100l34 152h10l-31 -152h4v-100h-17zM86 436v100l35 152h10l-31 -152h4v-100h-18z"/>
<glyph glyph-name="quotedblright" horiz-adv-x="338" unicode="”" d="M207 436l31 152h-4v100h18v-100l-35 -152h-10zM56 436l31 152h-4v100h17v-100l-34 -152h-10z"/>
<glyph glyph-name="dagger" horiz-adv-x="404" unicode="†" d="M44 481v14h150v193h16v-193h150v-14h-150v-481h-16v481h-150z"/>
<glyph glyph-name="daggerdbl" horiz-adv-x="404" unicode="‡" d="M44 481v14h150v193h16v-193h150v-14h-150v-274h150v-13h-150v-194h-16v194h-150v13h150v274h-150z"/>
<glyph glyph-name="ellipsis" horiz-adv-x="621" unicode="…" d="M85 0v99h36v-99h-36zM292 0v99h37v-99h-37zM500 0v99h36v-99h-36z"/>
<glyph glyph-name="perthousand" horiz-adv-x="1085" unicode="‰" d="M909 7q57 0 87.5 45.5t30.5 119.5t-30.5 119.5t-87.5 45.5t-87.5 -46t-30.5 -119t30.5 -119t87.5 -46zM909 -7q-64 0 -99 50.5t-35 128.5t35 128.5t99 50.5t99 -50.5t35 -128.5t-35 -128.5t-99 -50.5zM557 7q57 0 87.5 45.5t30.5 119.5t-30.5 119.5t-87.5 45.5t-87.5 -46 t-30.5 -119t30.5 -119t87.5 -46zM557 -7q-64 0 -99 50.5t-35 128.5t35 128.5t99 50.5t99 -50.5t35 -128.5t-35 -128.5t-99 -50.5zM183 -12l351 712h16l-351 -712h-16zM176 351q57 0 87.5 45.5t30.5 119.5t-30.5 119.5t-87.5 45.5t-87.5 -46t-30.5 -119t30.5 -119t87.5 -46z M176 337q-64 0 -99 50.5t-35 128.5t35 128.5t99 50.5t99 -50.5t35 -128.5t-35 -128.5t-99 -50.5z"/>
<glyph glyph-name="guilsinglleft" horiz-adv-x="288" unicode="‹" d="M212 48l-149 204l149 204h14l-146 -204l146 -204h-14z"/>
<glyph glyph-name="guilsinglright" horiz-adv-x="288" unicode="›" d="M62 48l146 204l-146 204h13l150 -204l-150 -204h-13z"/>
<glyph glyph-name="fraction" horiz-adv-x="29" unicode="⁄" d="M-169 -12l351 712h16l-351 -712h-16z"/>
<glyph glyph-name="Euro" d="M35 422l2 11h70q16 120 76 191.5t157 71.5q77 0 126 -47t68 -131h-16q-38 164 -178 164q-91 0 -146 -67t-71 -182h237l-2 -11h-236q-4 -33 -4 -78q0 -37 3 -70h223l-1 -11h-221q15 -118 70.5 -187.5t147.5 -69.5q132 0 171 144h15q-42 -158 -187 -158q-99 0 -158.5 73.5 t-74.5 197.5h-87l1 11h84q-2 44 -2 70q0 40 3 78h-70z" unicode="€"/>
<glyph glyph-name="trademark" horiz-adv-x="732" unicode="™" d="M8 674v14h275v-14h-130v-330h-16v330h-129zM334 344v344h19l158 -325h1l158 325h19v-344h-15v317h-1l-155 -317h-13l-155 317h-1v-317h-15z"/>
<glyph glyph-name="uni2190" horiz-adv-x="660" unicode="←" d="M266 34l-10 -9l-228 227l228 227l10 -9l-213 -212q6 1 147 1h432v-14h-432q-141 0 -147 1z"/>
<glyph glyph-name="uni2191" horiz-adv-x="660" unicode="↑" d="M112 316l-9 10l227 228l227 -228l-9 -10l-212 213q1 -6 1 -147v-432h-14v432q0 141 1 147z"/>
<glyph glyph-name="uni2192" horiz-adv-x="660" unicode="→" d="M404 25l-10 9l213 212q-6 -1 -147 -1h-432v14h432q141 0 147 -1l-213 212l10 9l228 -227z"/>
<glyph glyph-name="uni2193" horiz-adv-x="660" unicode="↓" d="M548 188l9 -10l-227 -228l-227 228l9 10l212 -213q-1 6 -1 147v432h14v-432q0 -141 -1 -147z"/>
<glyph glyph-name="partialdiff" d="M243 6q58 0 105.5 25t74 61.5t40.5 72.5t14 65q0 55 -20 96t-52 61.5t-63 29.5t-60 9q-100 0 -164 -66.5t-64 -167.5q0 -84 54 -135t135 -51zM38 192q0 107 68.5 177.5t175.5 70.5q47 0 90 -17t77.5 -61t38.5 -108q16 78 16 157q0 139 -55.5 205t-142.5 66 q-83 0 -134 -45t-68 -121h-16q18 82 73.5 131t145.5 49q93 0 153 -70t60 -215q0 -77 -13.5 -146t-43 -133t-86.5 -102t-135 -38q-88 0 -146 54.5t-58 145.5z" unicode="∂"/>
<glyph glyph-name="product" horiz-adv-x="677" unicode="∏" d="M99 0v688h479v-688h-16v674h-447v-674h-16z"/>
<glyph glyph-name="summation" horiz-adv-x="496" unicode="∑" d="M31 0v9l236 335l-235 334v10h431v-14h-409l232 -329l-234 -331h420v-14h-441z"/>
<glyph glyph-name="minus" d="M60 246v14h448v-14h-448z" unicode="−"/>
<glyph glyph-name="radical" horiz-adv-x="588" unicode="√" d="M42 354v15l108 33l163 -382h1l245 668h16l-252 -688h-19l-165 384z"/>
<glyph glyph-name="infinity" horiz-adv-x="708" unicode="∞" d="M363 252q90 -139 177 -139q57 0 92 40t35 99t-35 99t-92 40q-87 0 -177 -139zM168 113q90 0 177 139q-87 139 -177 139q-57 0 -92 -40t-35 -99t35 -99t92 -40zM168 99q-63 0 -102.5 44t-39.5 109t39.5 109t102.5 44q99 0 186 -142q87 142 186 142q63 0 102.5 -44 t39.5 -109t-39.5 -109t-102.5 -44q-98 0 -186 141q-90 -141 -186 -141z"/>
<glyph glyph-name="approxequal" d="M81 90q0 58 26 89t70 31q28 0 58 -15.5t51.5 -33.5t50 -33.5t54.5 -15.5q38 0 59.5 26.5t21.5 78.5h15q0 -58 -25.5 -88.5t-69.5 -30.5q-36 0 -73.5 25t-73.5 49.5t-68 24.5q-38 0 -59.5 -27.5t-21.5 -79.5h-15zM81 291q0 58 26 89t70 31q28 0 58 -15.5t51.5 -34t50 -34 t54.5 -15.5q38 0 59.5 27t21.5 79h15q0 -58 -25.5 -89t-69.5 -31q-36 0 -73.5 25t-73.5 49.5t-68 24.5q-38 0 -59.5 -27t-21.5 -79h-15z" unicode="≈"/>
<glyph glyph-name="notequal" d="M60 352v14h274l87 156l13 -8l-82 -148h156v-14h-164l-108 -196h272v-14h-280l-86 -156l-13 8l82 148h-151v14h158l109 196h-267z" unicode="≠"/>
<glyph glyph-name="lessequal" d="M76 0v14h416v-14h-416zM76 277v15l416 180v-16l-401 -172l401 -172v-15z" unicode="≤"/>
<glyph glyph-name="greaterequal" d="M76 0v14h416v-14h-416zM492 292v-15l-416 -180v15l399 172l-399 172v16z" unicode="≥"/>
<glyph glyph-name="lozenge" horiz-adv-x="637" unicode="◊" d="M577 344l-257 330l-260 -330l260 -332zM312 0l-271 344l271 344h17l266 -344l-266 -344h-17z"/>
</font>
</defs>
</svg>
