<?xml version="1.0" encoding="UTF-8" standalone="no"?>
<!DOCTYPE svg  PUBLIC '-//W3C//DTD SVG 1.1//EN'  'http://www.w3.org/Graphics/SVG/1.1/DTD/svg11.dtd'>
<svg xmlns="http://www.w3.org/2000/svg">
<defs>
<font id="FaktPro-Medium" horiz-adv-x="568">
<font-face underline-position="-50" font-weight="500" descent="-200" panose-1="2 0 0 0 0 0 0 0 0 0" units-per-em="1000" unicode-range="U+0020-25CA" bbox="-174 -240 1127 957" x-height="488" underline-thickness="50" font-family="Fakt Pro Med" ascent="800" cap-height="688"/>
<missing-glyph horiz-adv-x="1000"/>
<glyph glyph-name=".notdef" horiz-adv-x="1000"/>
<glyph glyph-name=".null" horiz-adv-x="0"/>
<glyph glyph-name="nonmarkingreturn" horiz-adv-x="333"/>
<glyph glyph-name="space" horiz-adv-x="220" unicode=" "/>
<glyph glyph-name="exclam" horiz-adv-x="284" unicode="!" d="M82 0v120h119v-120h-119zM111 198l-30 300v190h122v-190l-31 -300h-61z"/>
<glyph glyph-name="quotedbl" horiz-adv-x="411" unicode='&quot;' d="M264 421l-17 176v91h103v-91l-17 -176h-69zM78 421l-17 176v91h103v-91l-17 -176h-69z"/>
<glyph glyph-name="numbersign" horiz-adv-x="623" unicode="#" d="M263 450l-36 -209h134l36 209h-134zM61 450v78h124l28 160h92l-28 -160h134l28 160h92l-28 -160h102v-78h-116l-36 -209h109v-79h-123l-28 -162h-92l28 162h-134l-28 -162h-92l28 162h-103v79h117l36 209h-110z"/>
<glyph glyph-name="dollar" d="M38 194h108q4 -58 40.5 -90t93.5 -32q59 0 94.5 29.5t35.5 82.5q0 44 -27.5 66t-87.5 41l-85 26q-29 9 -54 22.5t-49.5 35t-38.5 55.5t-14 76q0 75 48.5 126t129.5 64v108h96v-108q75 -12 123.5 -61t53.5 -123h-107q-6 52 -38 77.5t-80 25.5q-50 0 -82.5 -25t-32.5 -73 q0 -44 24.5 -65.5t82.5 -40.5l85 -26q83 -25 124 -71t41 -120q0 -83 -53 -137t-141 -66v-111h-96v111q-88 12 -139.5 65t-54.5 138z" unicode="$"/>
<glyph glyph-name="percent" horiz-adv-x="793" unicode="%" d="M614 60q67 0 67 112t-67 112q-68 0 -68 -112t68 -112zM614 -8q-76 0 -115.5 50t-39.5 130t39.5 130t115.5 50t115 -50t39 -130t-39 -130t-115 -50zM185 -12l348 712h75l-348 -712h-75zM180 404q67 0 67 112t-67 112q-68 0 -68 -112t68 -112zM180 336q-76 0 -115.5 50 t-39.5 130t39.5 130t115.5 50t115 -50t39 -130t-39 -130t-115 -50z"/>
<glyph glyph-name="ampersand" horiz-adv-x="720" unicode="&amp;" d="M219 536q0 -27 16 -52t54 -65q60 28 91 54t31 66q0 37 -25 60t-69 23q-47 0 -72.5 -24.5t-25.5 -61.5zM310 72q89 0 146 49l-198 197q-51 -26 -78.5 -55.5t-27.5 -72.5q0 -55 44.5 -86.5t113.5 -31.5zM43 180q0 71 41.5 117t114.5 81q-45 48 -62.5 80.5t-17.5 73.5 q0 69 53 118.5t145 49.5t144.5 -43.5t52.5 -114.5q0 -35 -13 -63.5t-39 -50t-51.5 -36t-62.5 -31.5l166 -167q27 60 27 139v11h97v-20q0 -110 -56 -199l126 -125h-129l-58 58q-82 -70 -211 -70q-127 0 -197 52t-70 140z"/>
<glyph glyph-name="quotesingle" horiz-adv-x="225" unicode="&apos;" d="M78 421l-17 176v91h103v-91l-17 -176h-69z"/>
<glyph glyph-name="parenleft" horiz-adv-x="297" unicode="(" d="M19 260q0 144 49.5 270.5t114.5 213.5h99q-56 -73 -108 -207.5t-52 -276.5q0 -141 52 -275.5t108 -212.5h-99q-65 86 -114.5 215t-49.5 273z"/>
<glyph glyph-name="parenright" horiz-adv-x="297" unicode=")" d="M15 -228q56 78 108 212.5t52 275.5q0 142 -52 276.5t-108 207.5h98q65 -87 114.5 -213.5t49.5 -270.5t-49.5 -273t-114.5 -215h-98z"/>
<glyph glyph-name="asterisk" horiz-adv-x="463" unicode="*" d="M190 696h83l-16 -129l117 56l26 -80l-127 -25l88 -93l-67 -49l-63 112l-62 -111l-67 48l86 94l-124 24l25 80l116 -54z"/>
<glyph glyph-name="plus" d="M57 210v88h181v182h92v-182h181v-88h-181v-181h-92v181h-181z" unicode="+"/>
<glyph glyph-name="comma" horiz-adv-x="267" unicode="," d="M124 0h-52v122h123v-114l-47 -161h-57z"/>
<glyph glyph-name="hyphen" horiz-adv-x="396" unicode="-" d="M56 205v94h284v-94h-284z"/>
<glyph glyph-name="period" horiz-adv-x="267" unicode="." d="M72 0v122h123v-122h-123z"/>
<glyph glyph-name="slash" horiz-adv-x="413" unicode="/" d="M6 -12l308 712h93l-308 -712h-93z"/>
<glyph glyph-name="zero" d="M284 81q133 0 133 263t-133 263t-133 -263t133 -263zM284 -12q-125 0 -185.5 97.5t-60.5 258.5t60.5 258.5t185.5 97.5t185.5 -97.5t60.5 -258.5t-60.5 -258.5t-185.5 -97.5z" unicode="0"/>
<glyph glyph-name="one" d="M103 453l-47 80l226 155h76v-598h160v-90h-439v90h171v464z" unicode="1"/>
<glyph glyph-name="two" d="M50 0q4 114 42 181.5t123 122.5l78 51q32 21 46.5 32.5t31.5 29t23.5 37.5t6.5 46q0 45 -29 77.5t-86 32.5q-115 0 -124 -129h-102q5 115 68.5 167t158.5 52q100 0 161.5 -53t61.5 -145q0 -42 -10.5 -74.5t-34 -58.5t-44.5 -42.5t-58 -40.5l-77 -51q-64 -42 -86 -75 t-26 -70h341l1 -90h-466z" unicode="2"/>
<glyph glyph-name="three" d="M42 208h106q0 -66 36 -99t96 -33q61 0 96.5 30.5t35.5 87.5q0 55 -38 86t-96 31h-51v89h52q48 0 80.5 30.5t32.5 79.5q0 48 -32 75.5t-81 27.5t-81 -29.5t-32 -85.5h-98q0 93 59 147.5t153 54.5q96 0 155.5 -51t59.5 -135q0 -54 -28.5 -95.5t-70.5 -57.5q56 -16 91 -62 t35 -114q0 -92 -66.5 -144.5t-175.5 -52.5q-111 0 -174.5 55t-63.5 165z" unicode="3"/>
<glyph glyph-name="four" d="M136 251h202v275zM28 161v73l328 454h90v-437h94v-90h-94v-161h-108v161h-310z" unicode="4"/>
<glyph glyph-name="five" d="M44 184h108q7 -45 39.5 -76.5t91.5 -31.5q54 0 92.5 36.5t38.5 100.5t-37 101.5t-94 37.5q-66 0 -118 -65l-99 8l21 393h396v-93h-299l-12 -197h5q45 42 124 42q96 0 158.5 -59t62.5 -161q0 -112 -69 -172t-170 -60q-107 0 -169 52.5t-70 143.5z" unicode="5"/>
<glyph glyph-name="six" d="M302 352q-58 0 -96 -39t-38 -98v-1q0 -61 36 -99.5t92 -38.5q57 0 94 37.5t37 102.5q0 60 -36 98t-89 38zM43 328q0 195 72.5 283.5t190.5 88.5q201 0 213 -188h-106q-5 48 -28.5 74t-78.5 26q-143 0 -150 -251v-2q20 37 66 59t97 22q94 0 155 -59.5t61 -163.5 q0 -106 -69.5 -167.5t-166.5 -61.5q-115 0 -185.5 80.5t-70.5 259.5z" unicode="6"/>
<glyph glyph-name="seven" d="M131 0l280 592h-363v96h480v-71l-285 -617h-112z" unicode="7"/>
<glyph glyph-name="eight" d="M284 400q50 0 83 30.5t33 79.5q0 48 -33 77t-83 29t-83 -29t-33 -77q0 -49 33 -79.5t83 -30.5zM149 193q0 -57 35.5 -87.5t99.5 -30.5t99.5 30.5t35.5 87.5q0 54 -36.5 86t-98.5 32t-98.5 -32t-36.5 -86zM39 185q0 64 33.5 110.5t92.5 62.5q-43 15 -71.5 59.5t-28.5 95.5 q0 84 60 135.5t159 51.5t159 -51.5t60 -135.5q0 -51 -28.5 -95.5t-71.5 -59.5q59 -16 92.5 -62.5t33.5 -110.5q0 -93 -65.5 -145t-179.5 -52t-179.5 52t-65.5 145z" unicode="8"/>
<glyph glyph-name="nine" d="M265 336q58 0 96 39t38 98v1q0 60 -36 99t-91 39q-56 0 -93.5 -37.5t-37.5 -102.5q0 -60 36 -98t88 -38zM524 360q0 -198 -67 -285t-191 -87q-201 0 -219 188h107q11 -100 114 -100q70 0 105 58t38 193v1q-20 -36 -65.5 -58t-97.5 -22q-94 0 -155 59.5t-61 163.5 q0 106 69.5 167.5t166.5 61.5q115 0 185.5 -81t70.5 -259z" unicode="9"/>
<glyph glyph-name="colon" horiz-adv-x="267" unicode=":" d="M72 0v122h123v-122h-123zM72 366v122h123v-122h-123z"/>
<glyph glyph-name="semicolon" horiz-adv-x="267" unicode=";" d="M124 0h-52v122h123v-114l-47 -161h-57zM72 366v122h123v-122h-123z"/>
<glyph glyph-name="less" d="M72 210v89l424 179v-95l-320 -127l320 -128v-98z" unicode="&lt;"/>
<glyph glyph-name="equal" d="M56 104v88h456v-88h-456zM56 316v88h456v-88h-456z" unicode="="/>
<glyph glyph-name="greater" d="M496 298v-89l-424 -179v95l320 127l-320 128v98z" unicode="&gt;"/>
<glyph glyph-name="question" horiz-adv-x="510" unicode="?" d="M190 0v120h119v-120h-119zM198 202v26q0 63 23 101t63 68l24 18q20 16 31.5 27t21 29.5t9.5 39.5q0 43 -29.5 71t-78.5 28q-62 0 -92.5 -36.5t-30.5 -93.5h-105q0 93 58 156.5t170 63.5q98 0 158 -49.5t60 -134.5q0 -54 -22.5 -88t-63.5 -66l-24 -18q-33 -24 -50.5 -48 t-17.5 -60v-34h-104z"/>
<glyph glyph-name="at" horiz-adv-x="1033" unicode="@" d="M612 200v45q-14 -17 -50 -23l-87 -14q-77 -12 -77 -73q0 -32 22.5 -51t61.5 -19q55 0 92.5 34.5t37.5 100.5zM291 128q0 123 163 148l95 15q39 6 51 13t12 25q0 90 -96 90q-98 0 -104 -86h-102q5 76 59 121.5t144 45.5q103 0 155 -47.5t52 -137.5v-150q0 -107 73 -107 q46 0 78 54t32 160q0 164 -107.5 261t-275.5 97q-176 0 -283 -114.5t-107 -285.5q0 -172 103.5 -280t268.5 -108q140 0 212 72h107q-108 -142 -319 -142q-199 0 -326.5 129t-127.5 329q0 199 131 334.5t341 135.5q202 0 333.5 -118t131.5 -310q0 -142 -59 -213t-150 -71 q-113 0 -144 83q-49 -83 -176 -83q-78 0 -121.5 38.5t-43.5 101.5z"/>
<glyph glyph-name="A" horiz-adv-x="665" unicode="A" d="M333 576h-4l-112 -315h227zM10 0l256 688h133l256 -688h-119l-59 167h-294l-59 -167h-114z"/>
<glyph glyph-name="B" horiz-adv-x="682" unicode="B" d="M377 595h-183v-194h182q58 0 88.5 28.5t30.5 74.5q0 91 -118 91zM396 310h-202v-217h202q62 0 94 30.5t32 82.5q0 47 -32 75.5t-94 28.5zM81 0v688h304q111 0 167 -47t56 -133q0 -51 -27.5 -90t-80.5 -56q63 -11 99.5 -54.5t36.5 -103.5q0 -91 -60.5 -147.5t-170.5 -56.5 h-324z"/>
<glyph glyph-name="C" horiz-adv-x="723" unicode="C" d="M44 344q0 155 93.5 255.5t244.5 100.5q122 0 200.5 -63.5t99.5 -172.5h-116q-37 136 -184 136q-100 0 -160.5 -71t-60.5 -185q0 -112 60.5 -184t157.5 -72q150 0 187 136h116q-21 -109 -101 -172.5t-203 -63.5q-150 0 -242 99.5t-92 256.5z"/>
<glyph glyph-name="D" horiz-adv-x="720" unicode="D" d="M308 592h-111v-496h111q129 0 189.5 69.5t60.5 178.5t-60.5 178.5t-189.5 69.5zM84 0v688h227q175 0 270 -94.5t95 -249.5t-95 -249.5t-270 -94.5h-227z"/>
<glyph glyph-name="E" horiz-adv-x="626" unicode="E" d="M84 0v688h482v-96h-369v-195h296v-93h-296v-208h378v-96h-491z"/>
<glyph glyph-name="F" horiz-adv-x="590" unicode="F" d="M84 0v688h472v-96h-359v-221h286v-95h-286v-276h-113z"/>
<glyph glyph-name="G" horiz-adv-x="767" unicode="G" d="M620 0l-15 91h-3q-72 -103 -219 -103q-151 0 -245 100t-94 256t96 256t250 100q122 0 202.5 -62t100.5 -160h-115q-16 54 -64 88t-124 34q-103 0 -166 -71.5t-63 -184.5t63 -184.5t163 -71.5q85 0 144.5 46.5t59.5 126.5v16h-201v91h303v-368h-73z"/>
<glyph glyph-name="H" horiz-adv-x="741" unicode="H" d="M84 0v688h113v-292h346v292h114v-688h-114v300h-346v-300h-113z"/>
<glyph glyph-name="I" horiz-adv-x="282" unicode="I" d="M84 0v688h113v-688h-113z"/>
<glyph glyph-name="J" horiz-adv-x="534" unicode="J" d="M36 198v35h112v-32q0 -117 100 -117t100 119v485h113v-485q0 -215 -213 -215q-212 0 -212 210z"/>
<glyph glyph-name="K" horiz-adv-x="674" unicode="K" d="M84 0v688h113v-348l323 348h132l-281 -298l295 -390h-129l-239 313l-101 -107v-206h-113z"/>
<glyph glyph-name="L" horiz-adv-x="561" unicode="L" d="M84 0v688h113v-591h333v-97h-446z"/>
<glyph glyph-name="M" horiz-adv-x="921" unicode="M" d="M84 0v688h146l231 -535h3l228 535h144v-688h-113l9 524h-4l-224 -524h-87l-224 515h-4l8 -515h-113z"/>
<glyph glyph-name="N" horiz-adv-x="749" unicode="N" d="M84 0v688h105l362 -496h4l-4 496h114v-688h-104l-364 494h-4l4 -494h-113z"/>
<glyph glyph-name="O" horiz-adv-x="775" unicode="O" d="M161 344q0 -112 62.5 -184t163.5 -72q102 0 164.5 72t62.5 184t-62.5 184t-164.5 72q-101 0 -163.5 -72t-62.5 -184zM44 344q0 156 94.5 256t248.5 100q151 0 247.5 -100.5t96.5 -255.5t-96.5 -255.5t-247.5 -100.5q-154 0 -248.5 100t-94.5 256z"/>
<glyph glyph-name="P" horiz-adv-x="655" unicode="P" d="M358 594h-161v-268h161q68 0 104 38.5t36 98.5t-36 95.5t-104 35.5zM84 0v688h279q118 0 183.5 -61.5t65.5 -162.5q0 -102 -66 -166.5t-183 -64.5h-166v-233h-113z"/>
<glyph glyph-name="Q" horiz-adv-x="778" unicode="Q" d="M161 344q0 -112 62.5 -184t163.5 -72q102 0 164.5 72t62.5 184t-62.5 184t-164.5 72q-101 0 -163.5 -72t-62.5 -184zM44 344q0 156 94.5 256t248.5 100q151 0 247.5 -100.5t96.5 -255.5q0 -162 -105 -264l130 -134l-74 -73l-141 148q-71 -33 -154 -33q-154 0 -248.5 100 t-94.5 256z"/>
<glyph glyph-name="R" horiz-adv-x="673" unicode="R" d="M361 594h-164v-242h164q64 0 99 35t35 91q0 54 -35 85t-99 31zM84 0v688h278q120 0 183.5 -55t63.5 -154q0 -76 -38 -130.5t-110 -76.5l173 -272h-123l-165 259h-149v-259h-113z"/>
<glyph glyph-name="S" horiz-adv-x="658" unicode="S" d="M53 204h112q0 -59 43 -93.5t117 -34.5q78 0 121 30.5t43 85.5q0 46 -37.5 68t-109.5 35l-45 8q-41 7 -68 14t-61 21.5t-54.5 33.5t-34.5 51t-14 73q0 90 71.5 147t189.5 57q117 0 187.5 -54.5t70.5 -150.5h-111q0 57 -40.5 87t-106.5 30t-107.5 -27.5t-41.5 -77.5 q0 -25 11.5 -43t36 -29.5t49 -18t63.5 -13.5l45 -8q38 -7 66 -14t59.5 -22t51.5 -34.5t33 -51t13 -72.5q0 -97 -74 -155t-206 -58q-130 0 -201 57.5t-71 158.5z"/>
<glyph glyph-name="T" horiz-adv-x="602" unicode="T" d="M8 593v95h586v-95h-237v-593h-113v593h-236z"/>
<glyph glyph-name="U" horiz-adv-x="713" unicode="U" d="M70 274v414h113v-413q0 -90 43.5 -138.5t129.5 -48.5t129.5 48t43.5 139v413h113v-414q0 -286 -286 -286q-134 0 -210 68.5t-76 217.5z"/>
<glyph glyph-name="V" horiz-adv-x="645" unicode="V" d="M257 0l-249 688h119l195 -576h4l197 576h114l-250 -688h-130z"/>
<glyph glyph-name="W" horiz-adv-x="957" unicode="W" d="M191 0l-180 688h120l135 -568h4l149 568h126l151 -568h4l130 568h116l-177 -688h-141l-146 551h-4l-146 -551h-141z"/>
<glyph glyph-name="X" horiz-adv-x="625" unicode="X" d="M8 0l239 351l-231 337h129l167 -251l166 251h123l-227 -334l243 -354h-128l-180 267l-177 -267h-124z"/>
<glyph glyph-name="Y" horiz-adv-x="637" unicode="Y" d="M260 0v266l-249 422h128l178 -310h4l185 310h119l-252 -417v-271h-113z"/>
<glyph glyph-name="Z" horiz-adv-x="598" unicode="Z" d="M52 594v94h511v-69l-383 -525h380v-94h-525v69l383 525h-366z"/>
<glyph glyph-name="bracketleft" horiz-adv-x="340" unicode="[" d="M180 -142h145v-86h-243v972h243v-86h-145v-800z"/>
<glyph glyph-name="backslash" horiz-adv-x="413" unicode="\" d="M314 -12l-308 712h93l308 -712h-93z"/>
<glyph glyph-name="bracketright" horiz-adv-x="340" unicode="]" d="M15 -142h145v800h-145v86h244v-972h-244v86z"/>
<glyph glyph-name="asciicircum" d="M50 352l185 336h93v-1l6 1l185 -336h-104l-132 249l-132 -249h-101z" unicode="^"/>
<glyph glyph-name="underscore" horiz-adv-x="500" unicode="_" d="M0 -72h500v-85h-500v85z"/>
<glyph glyph-name="grave" horiz-adv-x="573" unicode="`" d="M249 568l-146 164h120l102 -164h-76z"/>
<glyph glyph-name="a" horiz-adv-x="541" unicode="a" d="M366 204v45q-14 -18 -50 -23l-84 -15q-41 -6 -60 -22.5t-19 -47.5t20.5 -49.5t56.5 -18.5q57 0 96.5 34.5t39.5 96.5zM45 130q0 65 38 100t121 48l99 16q41 6 52 13t11 28q0 37 -24.5 60.5t-71.5 23.5t-73.5 -23t-29.5 -63h-103q5 76 60 121.5t146 45.5 q101 0 152.5 -46.5t51.5 -133.5v-320h-103v76h-4q-37 -84 -160 -84q-76 0 -119 36.5t-43 101.5z"/>
<glyph glyph-name="b" horiz-adv-x="600" unicode="b" d="M181 244q0 -78 37.5 -123.5t96.5 -45.5t96 47t37 126q0 78 -37 121.5t-96 43.5q-57 0 -94.5 -43t-39.5 -118v-8zM73 0v732h108v-153q0 -100 -4 -164h4q43 85 162 85q95 0 156.5 -67t61.5 -185t-64.5 -189t-161.5 -71q-111 0 -154 85h-4v-73h-104z"/>
<glyph glyph-name="c" horiz-adv-x="534" unicode="c" d="M38 244q0 117 68 186.5t175 69.5q100 0 156.5 -51t65.5 -137h-106q-15 101 -116 101q-57 0 -94 -47t-37 -122t37 -122t94 -47q101 0 116 101h106q-9 -86 -65.5 -137t-156.5 -51q-113 0 -178 68t-65 188z"/>
<glyph glyph-name="d" horiz-adv-x="600" unicode="d" d="M151 240q0 -78 37 -121.5t96 -43.5t96.5 45t37.5 124t-37.5 124t-96.5 45q-58 0 -95.5 -47t-37.5 -126zM39 240q0 118 64.5 189t161.5 71q111 0 154 -85h4q-5 64 -5 164v153h108v-732h-103v73h-4q-43 -85 -162 -85q-95 0 -156.5 67t-61.5 185z"/>
<glyph glyph-name="e" horiz-adv-x="543" unicode="e" d="M280 415q-48 0 -82 -31t-44 -86h244q-12 117 -118 117zM38 243q0 115 68 186t174 71q104 0 166 -63t62 -175v-36h-359q4 -72 40 -112.5t95 -40.5q48 0 77 22t37 55h105q-11 -70 -69 -116t-151 -46q-117 0 -181 67.5t-64 187.5z"/>
<glyph glyph-name="f" horiz-adv-x="325" unicode="f" d="M95 0v404h-92v84h92v73q0 171 179 171h62v-88h-52q-45 0 -63 -20.5t-18 -66.5v-69h117v-84h-117v-404h-108z"/>
<glyph glyph-name="g" horiz-adv-x="600" unicode="g" d="M151 240q0 -78 37 -121.5t96 -43.5t96.5 45t37.5 123q0 79 -37.5 124.5t-96.5 45.5q-58 0 -95.5 -47t-37.5 -126zM52 -57h102q1 -42 35 -66t89 -24q145 0 145 173v47h-4q-43 -85 -162 -85q-95 0 -156.5 67t-61.5 185t64.5 189t161.5 71q111 0 154 -85h4v73h103v-462 q0 -131 -67 -192.5t-182 -61.5q-101 0 -162.5 44t-62.5 127z"/>
<glyph glyph-name="h" horiz-adv-x="581" unicode="h" d="M73 0v732h108v-151q0 -100 -4 -164h4q42 83 151 83q81 0 132 -48.5t51 -155.5v-296h-108v282q0 130 -104 130q-53 0 -87.5 -43.5t-34.5 -114.5v-254h-108z"/>
<glyph glyph-name="i" horiz-adv-x="255" unicode="i" d="M73 0v488h108v-488h-108zM69 622v110h116v-110h-116z"/>
<glyph glyph-name="j" horiz-adv-x="255" unicode="j" d="M73 -60v548h108v-559q0 -72 -35 -110.5t-118 -38.5h-37v90h25q32 0 44.5 16t12.5 54zM69 622v110h116v-110h-116z"/>
<glyph glyph-name="k" horiz-adv-x="527" unicode="k" d="M73 0v732h108v-463l201 219h122l-182 -196l201 -292h-126l-147 216l-69 -75v-141h-108z"/>
<glyph glyph-name="l" horiz-adv-x="255" unicode="l" d="M73 0v732h108v-732h-108z"/>
<glyph glyph-name="m" horiz-adv-x="887" unicode="m" d="M73 0v488h104v-71h4q42 83 148 83q116 0 155 -97q47 97 164 97q78 0 125.5 -47.5t47.5 -150.5v-302h-108v289q0 66 -23 94.5t-71 28.5q-50 0 -84 -42t-34 -113v-257h-108v289q0 66 -24 94.5t-70 28.5q-50 0 -84 -42.5t-34 -113.5v-256h-108z"/>
<glyph glyph-name="n" horiz-adv-x="581" unicode="n" d="M73 0v488h104v-71h4q42 83 151 83q81 0 132 -48.5t51 -155.5v-296h-108v282q0 130 -104 130q-53 0 -87.5 -42.5t-34.5 -114.5v-255h-108z"/>
<glyph glyph-name="o" horiz-adv-x="577" unicode="o" d="M151 244q0 -76 37.5 -122.5t99.5 -46.5t99.5 46.5t37.5 122.5q0 79 -37.5 124t-99.5 45t-99.5 -46.5t-37.5 -122.5zM39 244q0 117 69.5 186.5t179.5 69.5q114 0 181.5 -68.5t67.5 -187.5q0 -117 -69.5 -186.5t-179.5 -69.5q-114 0 -181.5 68.5t-67.5 187.5z"/>
<glyph glyph-name="p" horiz-adv-x="600" unicode="p" d="M448 248q0 78 -37 121.5t-96 43.5q-57 0 -94.5 -43t-39.5 -118v-8q0 -78 37.5 -123.5t96.5 -45.5t96 47t37 126zM181 -91v-129h-108v708h104v-73h4q43 85 162 85q95 0 156.5 -67t61.5 -185t-64.5 -189t-161.5 -71q-111 0 -154 85h-4q4 -64 4 -164z"/>
<glyph glyph-name="q" horiz-adv-x="597" unicode="q" d="M151 240q0 -78 37 -121.5t96 -43.5q58 0 95 43t39 118v8q0 79 -37.5 124t-96.5 45q-58 0 -95.5 -47t-37.5 -126zM418 -91q0 100 5 164h-4q-43 -85 -162 -85q-95 0 -156.5 67t-61.5 185t64.5 189t161.5 71q111 0 154 -85h4v73h103v-708h-108v129z"/>
<glyph glyph-name="r" horiz-adv-x="377" unicode="r" d="M73 0v488h104v-71h3q38 83 129 83q39 0 68 -20l-28 -96q-32 16 -60 16q-52 0 -80 -44t-28 -112v-244h-108z"/>
<glyph glyph-name="s" horiz-adv-x="503" unicode="s" d="M38 146h103q0 -41 31 -61.5t76 -20.5q105 0 105 72q0 27 -16.5 40.5t-53.5 19.5l-90 15q-144 24 -144 134q0 73 55.5 114t144.5 41q88 0 143.5 -41t55.5 -116h-101q0 37 -27 59t-71 22q-43 0 -69.5 -18t-26.5 -50q0 -25 17.5 -39t60.5 -21l90 -15q65 -10 102.5 -41 t37.5 -97q0 -77 -57 -116t-156 -39q-98 0 -154 40.5t-56 117.5z"/>
<glyph glyph-name="t" horiz-adv-x="345" unicode="t" d="M88 150v254h-92v84h92v148h108v-148h125v-84h-125v-248q0 -35 15 -50.5t51 -15.5h59v-90h-73q-84 0 -122 35.5t-38 114.5z"/>
<glyph glyph-name="u" horiz-adv-x="577" unicode="u" d="M65 192v296h108v-282q0 -130 104 -130q53 0 86 43t33 117v252h108v-488h-103v71h-4q-42 -83 -148 -83q-81 0 -132.5 48.5t-51.5 155.5z"/>
<glyph glyph-name="v" horiz-adv-x="493" unicode="v" d="M186 0l-182 488h118l127 -376h4l127 376h109l-177 -488h-126z"/>
<glyph glyph-name="w" horiz-adv-x="750" unicode="w" d="M146 0l-141 488h110l95 -379h4l105 379h115l106 -379h4l94 379h107l-141 -488h-126l-101 378h-4l-101 -378h-126z"/>
<glyph glyph-name="x" horiz-adv-x="484" unicode="x" d="M10 0l173 246l-169 242h124l110 -165l107 165h115l-169 -241l173 -247h-124l-114 171l-111 -171h-115z"/>
<glyph glyph-name="y" horiz-adv-x="493" unicode="y" d="M186 0l-182 488h118l127 -376h4l127 376h109l-201 -556q-57 -160 -187 -160h-54v89h32q84 0 118 95l15 44h-26z"/>
<glyph glyph-name="z" horiz-adv-x="461" unicode="z" d="M32 403v85h393v-67l-251 -336h255v-85h-394v61l256 342h-259z"/>
<glyph glyph-name="braceleft" horiz-adv-x="370" unicode="{" d="M128 -72v169q0 72 -22.5 99.5t-89.5 27.5v76q67 0 89.5 27.5t22.5 99.5v161q0 81 37.5 118.5t128.5 37.5h61v-83h-50q-45 0 -61.5 -18t-16.5 -62v-183q0 -55 -23.5 -87t-76.5 -47v-4q53 -15 76.5 -47t23.5 -87v-191q0 -44 16.5 -62t61.5 -18h50v-83h-61 q-91 0 -128.5 37.5t-37.5 118.5z"/>
<glyph glyph-name="bar" horiz-adv-x="271" unicode="|" d="M88 -240v1000h95v-1000h-95z"/>
<glyph glyph-name="braceright" horiz-adv-x="370" unicode="}" d="M15 -145h50q45 0 61.5 18t16.5 62v191q0 55 23.5 87t76.5 47v4q-53 15 -76.5 47t-23.5 87v183q0 44 -16.5 62t-61.5 18h-50v83h60q92 0 129 -37.5t37 -118.5v-161q0 -72 22.5 -99.5t89.5 -27.5v-76q-67 0 -89.5 -27.5t-22.5 -99.5v-169q0 -81 -37 -118.5t-129 -37.5h-60 v83z"/>
<glyph glyph-name="asciitilde" d="M52 179q0 81 38 122t95 41q39 0 76 -18t67 -36.5t53 -18.5q50 0 50 75h86q0 -80 -37.5 -121.5t-92.5 -41.5q-39 0 -77 19.5t-69 38.5t-53 19q-50 0 -50 -79h-86z" unicode="~"/>
<glyph glyph-name="uni00A0" horiz-adv-x="220" unicode=" "/>
<glyph glyph-name="exclamdown" horiz-adv-x="284" unicode="¡" d="M82 -10l29 300h61l30 -300v-190h-120v190zM82 368v120h119v-120h-119z"/>
<glyph glyph-name="cent" d="M248 -12v107q-93 15 -145.5 82t-52.5 171q0 102 56 170t146 83v99h96v-100q77 -13 122 -62t53 -122h-107q-7 47 -36.5 74t-82.5 27q-60 0 -97.5 -47t-37.5 -122t37.5 -122t97.5 -47q53 0 82.5 27t36.5 74h107q-8 -75 -54 -124t-125 -61v-107h-96z" unicode="¢"/>
<glyph glyph-name="sterling" d="M116 46q44 0 62 67q-34 22 -60 22q-20 0 -33.5 -13t-13.5 -32q0 -20 11.5 -32t33.5 -12zM60 322v68h84q-29 83 -29 134q0 80 52 128t140 48q172 0 183 -183h-100q-4 55 -25 78t-61 23q-36 0 -59.5 -23t-23.5 -64q0 -50 33 -141h157v-68h-133q14 -51 14 -87 q0 -50 -15 -103q2 -2 13.5 -9.5t15 -9.5t13.5 -8.5t14 -8.5t12.5 -7t14 -6.5t13 -4t13.5 -3.5t13 -1q60 0 64 96h87q-10 -182 -147 -182q-40 0 -76 19.5t-82 55.5q-48 -75 -131 -75q-50 0 -80.5 26.5t-30.5 71.5q0 51 33 80.5t87 29.5q29 0 66 -14q0 5 0.5 14.5t0.5 13.5 q0 44 -22 112h-108z" unicode="£"/>
<glyph glyph-name="currency" d="M284 250q39 0 64.5 26t25.5 68t-25.5 68t-64.5 26t-64.5 -26t-25.5 -68t25.5 -68t64.5 -26zM135 144l-51 50l59 60q-28 44 -28 90q0 47 30 91l-60 60l51 50l59 -61q42 24 89 24q46 0 88 -24l60 61l51 -50l-60 -60q30 -44 30 -91q0 -45 -29 -90l60 -60l-51 -50l-60 60 q-37 -24 -89 -24q-53 0 -89 24z" unicode="¤"/>
<glyph glyph-name="yen" d="M85 241v61h145v2l-221 384h124l153 -279h4l154 279h115l-221 -385v-1h145v-61h-145v-71h145v-61h-145v-109h-108v109h-145v61h145v71h-145z" unicode="¥"/>
<glyph glyph-name="brokenbar" horiz-adv-x="271" unicode="¦" d="M88 -164v352h95v-352h-95zM88 336v352h95v-352h-95z"/>
<glyph glyph-name="section" horiz-adv-x="574" unicode="§" d="M319 334l-62 17q-49 -12 -75.5 -41.5t-26.5 -66.5q0 -43 23.5 -66t76.5 -39l56 -17q52 12 80 41.5t28 66.5q0 43 -23.5 65.5t-76.5 39.5zM64 -58h101q7 -93 118 -93q55 0 84.5 23t29.5 64q0 34 -22.5 52.5t-71.5 33.5l-92 28q-81 23 -118.5 66t-37.5 109q0 52 31 93.5 t85 62.5q-97 44 -97 143q0 81 58.5 128.5t159.5 47.5q98 0 155.5 -42.5t62.5 -127.5h-101q-7 93 -117 93q-55 0 -85 -23t-30 -64q0 -34 22 -52.5t71 -33.5l92 -28q81 -23 118.5 -65.5t37.5 -109.5q0 -52 -30.5 -93.5t-84.5 -62.5q97 -45 97 -143q0 -81 -58.5 -128.5 t-159.5 -47.5q-99 0 -156.5 42.5t-61.5 127.5z"/>
<glyph glyph-name="dieresis" horiz-adv-x="573" unicode="¨" d="M130 600v104h103v-104h-103zM340 600v104h102v-104h-102z"/>
<glyph glyph-name="copyright" horiz-adv-x="776" unicode="©" d="M215 348q0 78 47 127t127 49q65 0 104.5 -34.5t47.5 -92.5h-78q-15 60 -74 60q-41 0 -67 -31.5t-26 -77.5q0 -47 26 -78.5t67 -31.5q60 0 74 61h78q-8 -58 -49 -92.5t-106 -34.5q-79 0 -125 48.5t-46 127.5zM112 348q0 -124 78 -210t198 -86q118 0 197 86t79 210 q0 123 -77.5 203.5t-198.5 80.5t-198.5 -80.5t-77.5 -203.5zM35 348q0 151 100 251.5t253 100.5q150 0 251.5 -101t101.5 -251q0 -152 -100.5 -256t-252.5 -104t-252.5 104t-100.5 256z"/>
<glyph glyph-name="ordfeminine" horiz-adv-x="396" unicode="ª" d="M259 485v26q-9 -13 -33 -16l-50 -6q-50 -7 -50 -46q0 -41 53 -41q35 0 57.5 21t22.5 62zM35 434q0 47 27.5 73t87.5 34l65 8q28 4 36 9t8 19q0 23 -15 38.5t-44 15.5q-61 0 -65 -55h-85q4 61 45.5 90.5t104.5 29.5q150 0 150 -127v-225h-88v41h-3q-30 -49 -109 -49 q-54 0 -84.5 27t-30.5 71z"/>
<glyph glyph-name="guillemotleft" horiz-adv-x="537" unicode="«" d="M193 48l-143 204l143 204h89l-114 -204l114 -204h-89zM255 252l143 204h89l-114 -204l114 -204h-89z"/>
<glyph glyph-name="logicalnot" d="M57 210v88h454v-270h-93v182h-361z" unicode="¬"/>
<glyph glyph-name="uni00AD" horiz-adv-x="396" unicode="­" d="M56 205v94h284v-94h-284z"/>
<glyph glyph-name="registered" horiz-adv-x="776" unicode="®" d="M404 454h-79v-93h79q27 0 41 13t14 35q0 45 -55 45zM244 176v344h163q64 0 98.5 -29t34.5 -81q0 -34 -20.5 -62t-54.5 -42l87 -130h-88l-74 120h-65v-120h-81zM112 348q0 -124 78 -210t198 -86q118 0 197 86t79 210q0 123 -77.5 203.5t-198.5 80.5t-198.5 -80.5 t-77.5 -203.5zM35 348q0 151 100 251.5t253 100.5q150 0 251.5 -101t101.5 -251q0 -152 -100.5 -256t-252.5 -104t-252.5 104t-100.5 256z"/>
<glyph glyph-name="macron" horiz-adv-x="573" unicode="¯" d="M141 611v78h287v-78h-287z"/>
<glyph glyph-name="degree" horiz-adv-x="378" unicode="°" d="M189 629q-29 0 -48.5 -20t-19.5 -52t19.5 -52t48.5 -20q30 0 49 19.5t19 52.5q0 32 -19 52t-49 20zM189 413q-64 0 -106.5 40t-42.5 104q0 63 42.5 103t106.5 40t106.5 -40t42.5 -103q0 -64 -42.5 -104t-106.5 -40z"/>
<glyph glyph-name="plusminus" d="M56 0v88h456v-88h-456zM58 322v87h180v168h92v-168h182v-87h-182v-168h-92v168h-180z" unicode="±"/>
<glyph glyph-name="twosuperior" horiz-adv-x="359" unicode="²" d="M30 496q0 72 31 110t85 64l21 10q69 32 69 59q0 43 -55 43q-60 0 -63 -59h-84q2 63 44 94t104 31q65 0 103 -28t38 -78q0 -43 -27.5 -68t-81.5 -50l-21 -10q-59 -28 -59 -48h188v-70h-292z"/>
<glyph glyph-name="threesuperior" horiz-adv-x="359" unicode="³" d="M34 601h83q0 -51 63 -51t63 47q0 23 -17.5 35.5t-47.5 12.5h-24v56h24q58 0 58 44q0 41 -56 41q-26 0 -41 -12.5t-15 -34.5h-82q1 52 39 80.5t104 28.5q62 0 98.5 -27t36.5 -70q0 -29 -15.5 -50t-41.5 -27q30 -7 49 -30t19 -55q0 -49 -39.5 -75t-111.5 -26 q-145 0 -146 113z"/>
<glyph glyph-name="acute" horiz-adv-x="573" unicode="´" d="M248 568l102 164h120l-146 -164h-76z"/>
<glyph glyph-name="mu" horiz-adv-x="582" unicode="µ" d="M168 11q12 -96 12 -162v-69h-109v708h109v-282q0 -70 26 -100t77 -30q53 0 86 43t33 115v254h108v-488h-103v71h-4q-41 -83 -147 -83q-47 0 -85 23h-3z"/>
<glyph glyph-name="paragraph" horiz-adv-x="628" unicode="¶" d="M256 0v249q-101 10 -158.5 68t-57.5 151q0 100 67.5 160t184.5 60h66v-688h-102zM436 0v688h102v-688h-102z"/>
<glyph glyph-name="periodcentered" horiz-adv-x="273" unicode="·" d="M72 190v124h129v-124h-129z"/>
<glyph glyph-name="cedilla" horiz-adv-x="573" unicode="¸" d="M239 -86l30 86h36v-37q44 -2 68 -26.5t24 -60.5q0 -43 -30 -69.5t-87 -26.5h-61v59h53q49 0 49 38q0 37 -49 37h-33z"/>
<glyph glyph-name="onesuperior" horiz-adv-x="359" unicode="¹" d="M75 693l-36 61l145 86h54v-274h92v-70h-279v70h98v170z"/>
<glyph glyph-name="ordmasculine" horiz-adv-x="424" unicode="º" d="M125 516q0 -49 23.5 -79t63.5 -30t63.5 30t23.5 79q0 50 -23.5 79.5t-63.5 29.5t-63.5 -29.5t-23.5 -79.5zM31 516q0 82 49.5 131.5t131.5 49.5q84 0 132.5 -49t48.5 -132q0 -82 -49.5 -131t-131.5 -49q-84 0 -132.5 48.5t-48.5 131.5z"/>
<glyph glyph-name="guillemotright" horiz-adv-x="537" unicode="»" d="M50 48l114 204l-114 204h89l143 -204l-143 -204h-89zM255 48l114 204l-114 204h89l143 -204l-143 -204h-89z"/>
<glyph glyph-name="onequarter" horiz-adv-x="793" unicode="¼" d="M546 128h85v107zM456 61v52l188 232h75v-217h47v-67h-47v-61h-88v61h-175zM213 -12l348 712h75l-348 -712h-75zM75 541l-36 61l145 86h54v-274h92v-70h-279v70h98v170z"/>
<glyph glyph-name="onehalf" horiz-adv-x="793" unicode="½" d="M464 0q0 72 31 110t85 64l21 10q69 32 69 59q0 43 -55 43q-60 0 -63 -59h-84q2 63 44 94t104 31q65 0 103 -28t38 -78q0 -43 -27.5 -68t-81.5 -50l-21 -10q-59 -28 -59 -48h188v-70h-292zM205 -12l348 712h75l-348 -712h-75zM75 541l-36 61l145 86h54v-274h92v-70h-279 v70h98v170z"/>
<glyph glyph-name="threequarters" horiz-adv-x="793" unicode="¾" d="M546 128h85v107zM456 61v52l188 232h75v-217h47v-67h-47v-61h-88v61h-175zM209 -12l348 712h75l-348 -712h-75zM34 449h83q0 -51 63 -51t63 47q0 23 -17.5 35.5t-47.5 12.5h-24v56h24q58 0 58 44q0 41 -56 41q-26 0 -41 -12.5t-15 -34.5h-82q1 52 39 80.5t104 28.5 q62 0 98.5 -27t36.5 -70q0 -29 -15.5 -50t-41.5 -27q30 -7 49 -30t19 -55q0 -49 -39.5 -75t-111.5 -26q-145 0 -146 113z"/>
<glyph glyph-name="questiondown" horiz-adv-x="510" unicode="¿" d="M323 488v-120h-119v120h119zM316 286v-26q0 -63 -23 -101t-63 -68l-25 -18q-20 -16 -31 -27t-20.5 -29.5t-9.5 -39.5q0 -43 29.5 -71t78.5 -28q61 0 91.5 36.5t30.5 93.5h106q0 -93 -58 -156.5t-170 -63.5q-98 0 -158 49.5t-60 134.5q0 54 22.5 88t63.5 66l24 18 q33 24 50 48t17 60v34h105z"/>
<glyph glyph-name="Agrave" horiz-adv-x="665" unicode="À" d="M294 768l-146 164h120l102 -164h-76zM333 576h-4l-112 -315h227zM10 0l256 688h133l256 -688h-119l-59 167h-294l-59 -167h-114z"/>
<glyph glyph-name="Aacute" horiz-adv-x="665" unicode="Á" d="M293 768l102 164h120l-146 -164h-76zM333 576h-4l-112 -315h227zM10 0l256 688h133l256 -688h-119l-59 167h-294l-59 -167h-114z"/>
<glyph glyph-name="Acircumflex" horiz-adv-x="665" unicode="Â" d="M159 768l128 164h89l128 -164h-95l-78 106l-77 -106h-95zM333 576h-4l-112 -315h227zM10 0l256 688h133l256 -688h-119l-59 167h-294l-59 -167h-114z"/>
<glyph glyph-name="Atilde" horiz-adv-x="665" unicode="Ã" d="M162 767q2 53 27.5 85t72.5 32q32 0 79.5 -23t63.5 -23q34 0 42 48h54q-2 -53 -27.5 -85t-72.5 -32q-32 0 -80 23t-63 23q-36 0 -42 -48h-54zM333 576h-4l-112 -315h227zM10 0l256 688h133l256 -688h-119l-59 167h-294l-59 -167h-114z"/>
<glyph glyph-name="Adieresis" horiz-adv-x="665" unicode="Ä" d="M175 768v104h103v-104h-103zM385 768v104h102v-104h-102zM333 576h-4l-112 -315h227zM10 0l256 688h133l256 -688h-119l-59 167h-294l-59 -167h-114z"/>
<glyph glyph-name="Aring" horiz-adv-x="665" unicode="Å" d="M331 808q21 0 36 14.5t15 35.5t-15 35.5t-36 14.5t-35.5 -14.5t-14.5 -35.5t15 -35.5t35 -14.5zM331 759q-43 0 -73 28t-30 71t30.5 71t72.5 28q43 0 73.5 -28t30.5 -71t-30.5 -71t-73.5 -28zM333 576h-4l-112 -315h227zM10 0l256 688h133l256 -688h-119l-59 167h-294 l-59 -167h-114z"/>
<glyph glyph-name="AE" horiz-adv-x="1091" unicode="Æ" d="M544 567l-226 -317h230v317h-4zM11 0l497 688h523v-96h-370v-195h296v-93h-296v-208h379v-96h-492v157h-296l-113 -157h-128z"/>
<glyph glyph-name="Ccedilla" horiz-adv-x="723" unicode="Ç" d="M332 -86l25 75q-142 7 -227.5 105.5t-85.5 249.5q0 155 93.5 255.5t244.5 100.5q122 0 200.5 -63.5t99.5 -172.5h-116q-37 136 -184 136q-100 0 -160.5 -71t-60.5 -185q0 -112 60.5 -184t157.5 -72q150 0 187 136h116q-20 -106 -94.5 -168.5t-189.5 -67.5v-25 q44 -2 68 -26.5t24 -60.5q0 -43 -30 -69.5t-87 -26.5h-61v59h53q49 0 49 38q0 37 -49 37h-33z"/>
<glyph glyph-name="Egrave" horiz-adv-x="626" unicode="È" d="M289 768l-146 164h120l102 -164h-76zM84 0v688h482v-96h-369v-195h296v-93h-296v-208h378v-96h-491z"/>
<glyph glyph-name="Eacute" horiz-adv-x="626" unicode="É" d="M288 768l102 164h120l-146 -164h-76zM84 0v688h482v-96h-369v-195h296v-93h-296v-208h378v-96h-491z"/>
<glyph glyph-name="Ecircumflex" horiz-adv-x="626" unicode="Ê" d="M154 768l128 164h89l128 -164h-95l-78 106l-77 -106h-95zM84 0v688h482v-96h-369v-195h296v-93h-296v-208h378v-96h-491z"/>
<glyph glyph-name="Edieresis" horiz-adv-x="626" unicode="Ë" d="M170 768v104h103v-104h-103zM380 768v104h102v-104h-102zM84 0v688h482v-96h-369v-195h296v-93h-296v-208h378v-96h-491z"/>
<glyph glyph-name="Igrave" horiz-adv-x="282" unicode="Ì" d="M104 768l-146 164h120l102 -164h-76zM84 0v688h113v-688h-113z"/>
<glyph glyph-name="Iacute" horiz-adv-x="282" unicode="Í" d="M103 768l102 164h120l-146 -164h-76zM84 0v688h113v-688h-113z"/>
<glyph glyph-name="Icircumflex" horiz-adv-x="282" unicode="Î" d="M-31 768l128 164h89l128 -164h-95l-78 106l-77 -106h-95zM84 0v688h113v-688h-113z"/>
<glyph glyph-name="Idieresis" horiz-adv-x="282" unicode="Ï" d="M-15 768v104h103v-104h-103zM195 768v104h102v-104h-102zM84 0v688h113v-688h-113z"/>
<glyph glyph-name="Eth" horiz-adv-x="720" unicode="Ð" d="M308 592h-111v-207h155v-79h-155v-210h111q129 0 189.5 69.5t60.5 178.5t-60.5 178.5t-189.5 69.5zM4 306v79h80v303h227q175 0 270 -94.5t95 -249.5t-95 -249.5t-270 -94.5h-227v306h-80z"/>
<glyph glyph-name="Ntilde" horiz-adv-x="749" unicode="Ñ" d="M205 767q2 53 27.5 85t72.5 32q32 0 79.5 -23t63.5 -23q34 0 42 48h54q-2 -53 -27.5 -85t-72.5 -32q-32 0 -80 23t-63 23q-36 0 -42 -48h-54zM84 0v688h105l362 -496h4l-4 496h114v-688h-104l-364 494h-4l4 -494h-113z"/>
<glyph glyph-name="Ograve" horiz-adv-x="775" unicode="Ò" d="M350 768l-146 164h120l102 -164h-76zM161 344q0 -112 62.5 -184t163.5 -72q102 0 164.5 72t62.5 184t-62.5 184t-164.5 72q-101 0 -163.5 -72t-62.5 -184zM44 344q0 156 94.5 256t248.5 100q151 0 247.5 -100.5t96.5 -255.5t-96.5 -255.5t-247.5 -100.5 q-154 0 -248.5 100t-94.5 256z"/>
<glyph glyph-name="Oacute" horiz-adv-x="775" unicode="Ó" d="M349 768l102 164h120l-146 -164h-76zM161 344q0 -112 62.5 -184t163.5 -72q102 0 164.5 72t62.5 184t-62.5 184t-164.5 72q-101 0 -163.5 -72t-62.5 -184zM44 344q0 156 94.5 256t248.5 100q151 0 247.5 -100.5t96.5 -255.5t-96.5 -255.5t-247.5 -100.5 q-154 0 -248.5 100t-94.5 256z"/>
<glyph glyph-name="Ocircumflex" horiz-adv-x="775" unicode="Ô" d="M215 768l128 164h89l128 -164h-95l-78 106l-77 -106h-95zM161 344q0 -112 62.5 -184t163.5 -72q102 0 164.5 72t62.5 184t-62.5 184t-164.5 72q-101 0 -163.5 -72t-62.5 -184zM44 344q0 156 94.5 256t248.5 100q151 0 247.5 -100.5t96.5 -255.5t-96.5 -255.5 t-247.5 -100.5q-154 0 -248.5 100t-94.5 256z"/>
<glyph glyph-name="Otilde" horiz-adv-x="775" unicode="Õ" d="M218 767q2 53 27.5 85t72.5 32q32 0 79.5 -23t63.5 -23q34 0 42 48h54q-2 -53 -27.5 -85t-72.5 -32q-32 0 -80 23t-63 23q-36 0 -42 -48h-54zM161 344q0 -112 62.5 -184t163.5 -72q102 0 164.5 72t62.5 184t-62.5 184t-164.5 72q-101 0 -163.5 -72t-62.5 -184zM44 344 q0 156 94.5 256t248.5 100q151 0 247.5 -100.5t96.5 -255.5t-96.5 -255.5t-247.5 -100.5q-154 0 -248.5 100t-94.5 256z"/>
<glyph glyph-name="Odieresis" horiz-adv-x="775" unicode="Ö" d="M231 768v104h103v-104h-103zM441 768v104h102v-104h-102zM161 344q0 -112 62.5 -184t163.5 -72q102 0 164.5 72t62.5 184t-62.5 184t-164.5 72q-101 0 -163.5 -72t-62.5 -184zM44 344q0 156 94.5 256t248.5 100q151 0 247.5 -100.5t96.5 -255.5t-96.5 -255.5 t-247.5 -100.5q-154 0 -248.5 100t-94.5 256z"/>
<glyph glyph-name="multiply" d="M71 406l63 62l150 -152l150 152l63 -62l-151 -152l152 -153l-63 -62l-151 152l-151 -152l-63 62l152 153z" unicode="×"/>
<glyph glyph-name="Oslash" horiz-adv-x="775" unicode="Ø" d="M161 344q0 -99 49 -167l309 380q-57 43 -132 43q-101 0 -163.5 -72t-62.5 -184zM614 344q0 98 -50 167l-309 -381q56 -42 132 -42q102 0 164.5 72t62.5 184zM57 -12l82 101q-95 100 -95 255t95.5 255.5t247.5 100.5q111 0 199 -61l49 61h83l-83 -103q96 -101 96 -253 q0 -154 -97 -255t-247 -101q-113 0 -199 59l-49 -59h-82z"/>
<glyph glyph-name="Ugrave" horiz-adv-x="713" unicode="Ù" d="M319 768l-146 164h120l102 -164h-76zM70 274v414h113v-413q0 -90 43.5 -138.5t129.5 -48.5t129.5 48t43.5 139v413h113v-414q0 -286 -286 -286q-134 0 -210 68.5t-76 217.5z"/>
<glyph glyph-name="Uacute" horiz-adv-x="713" unicode="Ú" d="M318 768l102 164h120l-146 -164h-76zM70 274v414h113v-413q0 -90 43.5 -138.5t129.5 -48.5t129.5 48t43.5 139v413h113v-414q0 -286 -286 -286q-134 0 -210 68.5t-76 217.5z"/>
<glyph glyph-name="Ucircumflex" horiz-adv-x="713" unicode="Û" d="M184 768l128 164h89l128 -164h-95l-78 106l-77 -106h-95zM70 274v414h113v-413q0 -90 43.5 -138.5t129.5 -48.5t129.5 48t43.5 139v413h113v-414q0 -286 -286 -286q-134 0 -210 68.5t-76 217.5z"/>
<glyph glyph-name="Udieresis" horiz-adv-x="713" unicode="Ü" d="M200 768v104h103v-104h-103zM410 768v104h102v-104h-102zM70 274v414h113v-413q0 -90 43.5 -138.5t129.5 -48.5t129.5 48t43.5 139v413h113v-414q0 -286 -286 -286q-134 0 -210 68.5t-76 217.5z"/>
<glyph glyph-name="Yacute" horiz-adv-x="637" unicode="Ý" d="M280 768l102 164h120l-146 -164h-76zM260 0v266l-249 422h128l178 -310h4l185 310h119l-252 -417v-271h-113z"/>
<glyph glyph-name="Thorn" horiz-adv-x="655" unicode="Þ" d="M358 485h-161v-268h161q68 0 104 38.5t36 98.5q0 59 -36 95t-104 36zM84 0v688h113v-109h166q118 0 183.5 -61.5t65.5 -162.5q0 -102 -66 -167t-183 -65h-166v-123h-113z"/>
<glyph glyph-name="germandbls" horiz-adv-x="591" unicode="ß" d="M73 0v508q0 117 62 176.5t168 59.5q98 0 147.5 -45.5t49.5 -110.5q0 -34 -15.5 -63t-34 -44.5t-34 -35t-15.5 -38.5t16.5 -36.5t40.5 -34t48 -36t40.5 -51.5t16.5 -73q0 -84 -55.5 -130t-142.5 -46h-95v86h88q45 0 71 21t26 59q0 28 -16 49.5t-38.5 36.5t-45.5 31 t-39 44.5t-16 66.5q0 35 15.5 63t34.5 43.5t34.5 37.5t15.5 47q0 31 -26 53t-75 22q-55 0 -86.5 -36.5t-31.5 -114.5v-509h-108z"/>
<glyph glyph-name="agrave" horiz-adv-x="541" unicode="à" d="M230 568l-146 164h120l102 -164h-76zM366 204v45q-14 -18 -50 -23l-84 -15q-41 -6 -60 -22.5t-19 -47.5t20.5 -49.5t56.5 -18.5q57 0 96.5 34.5t39.5 96.5zM45 130q0 65 38 100t121 48l99 16q41 6 52 13t11 28q0 37 -24.5 60.5t-71.5 23.5t-73.5 -23t-29.5 -63h-103 q5 76 60 121.5t146 45.5q101 0 152.5 -46.5t51.5 -133.5v-320h-103v76h-4q-37 -84 -160 -84q-76 0 -119 36.5t-43 101.5z"/>
<glyph glyph-name="aacute" horiz-adv-x="541" unicode="á" d="M229 568l102 164h120l-146 -164h-76zM366 204v45q-14 -18 -50 -23l-84 -15q-41 -6 -60 -22.5t-19 -47.5t20.5 -49.5t56.5 -18.5q57 0 96.5 34.5t39.5 96.5zM45 130q0 65 38 100t121 48l99 16q41 6 52 13t11 28q0 37 -24.5 60.5t-71.5 23.5t-73.5 -23t-29.5 -63h-103 q5 76 60 121.5t146 45.5q101 0 152.5 -46.5t51.5 -133.5v-320h-103v76h-4q-37 -84 -160 -84q-76 0 -119 36.5t-43 101.5z"/>
<glyph glyph-name="acircumflex" horiz-adv-x="541" unicode="â" d="M95 568l128 164h89l128 -164h-95l-78 106l-77 -106h-95zM366 204v45q-14 -18 -50 -23l-84 -15q-41 -6 -60 -22.5t-19 -47.5t20.5 -49.5t56.5 -18.5q57 0 96.5 34.5t39.5 96.5zM45 130q0 65 38 100t121 48l99 16q41 6 52 13t11 28q0 37 -24.5 60.5t-71.5 23.5t-73.5 -23 t-29.5 -63h-103q5 76 60 121.5t146 45.5q101 0 152.5 -46.5t51.5 -133.5v-320h-103v76h-4q-37 -84 -160 -84q-76 0 -119 36.5t-43 101.5z"/>
<glyph glyph-name="atilde" horiz-adv-x="541" unicode="ã" d="M98 591q2 53 27.5 85t72.5 32q32 0 79.5 -23t63.5 -23q34 0 42 48h54q-2 -53 -27.5 -85t-72.5 -32q-32 0 -80 23t-63 23q-36 0 -42 -48h-54zM366 204v45q-14 -18 -50 -23l-84 -15q-41 -6 -60 -22.5t-19 -47.5t20.5 -49.5t56.5 -18.5q57 0 96.5 34.5t39.5 96.5zM45 130 q0 65 38 100t121 48l99 16q41 6 52 13t11 28q0 37 -24.5 60.5t-71.5 23.5t-73.5 -23t-29.5 -63h-103q5 76 60 121.5t146 45.5q101 0 152.5 -46.5t51.5 -133.5v-320h-103v76h-4q-37 -84 -160 -84q-76 0 -119 36.5t-43 101.5z"/>
<glyph glyph-name="adieresis" horiz-adv-x="541" unicode="ä" d="M111 600v104h103v-104h-103zM321 600v104h102v-104h-102zM366 204v45q-14 -18 -50 -23l-84 -15q-41 -6 -60 -22.5t-19 -47.5t20.5 -49.5t56.5 -18.5q57 0 96.5 34.5t39.5 96.5zM45 130q0 65 38 100t121 48l99 16q41 6 52 13t11 28q0 37 -24.5 60.5t-71.5 23.5t-73.5 -23 t-29.5 -63h-103q5 76 60 121.5t146 45.5q101 0 152.5 -46.5t51.5 -133.5v-320h-103v76h-4q-37 -84 -160 -84q-76 0 -119 36.5t-43 101.5z"/>
<glyph glyph-name="aring" horiz-adv-x="541" unicode="å" d="M267 608q21 0 36 14.5t15 35.5t-15 35.5t-36 14.5t-35.5 -14.5t-14.5 -35.5t15 -35.5t35 -14.5zM267 559q-43 0 -73 28t-30 71t30.5 71t72.5 28q43 0 73.5 -28t30.5 -71t-30.5 -71t-73.5 -28zM366 204v45q-14 -18 -50 -23l-84 -15q-41 -6 -60 -22.5t-19 -47.5t20.5 -49.5 t56.5 -18.5q57 0 96.5 34.5t39.5 96.5zM45 130q0 65 38 100t121 48l99 16q41 6 52 13t11 28q0 37 -24.5 60.5t-71.5 23.5t-73.5 -23t-29.5 -63h-103q5 76 60 121.5t146 45.5q101 0 152.5 -46.5t51.5 -133.5v-320h-103v76h-4q-37 -84 -160 -84q-76 0 -119 36.5t-43 101.5z "/>
<glyph glyph-name="ae" horiz-adv-x="856" unicode="æ" d="M598 416q-47 0 -78.5 -31.5t-42.5 -86.5h231q-5 57 -33 87.5t-77 30.5zM236 70q56 0 93 33t37 98v48q-14 -18 -50 -23l-84 -15q-79 -11 -79 -72q0 -32 22 -50.5t61 -18.5zM64 333q6 84 63.5 125.5t142.5 41.5q118 0 165 -67q59 67 163 67q100 0 161 -63.5t61 -174.5v-36 h-347q4 -72 38.5 -112.5t90.5 -40.5q88 0 107 77h106q-11 -69 -69 -115.5t-145 -46.5q-133 0 -192 95q-59 -94 -195 -94q-81 0 -125 38t-44 101q0 64 39 100.5t124 49.5l95 16q40 6 51.5 12.5t11.5 23.5q0 40 -24 64.5t-72 24.5q-44 0 -72 -22t-31 -64h-103z"/>
<glyph glyph-name="ccedilla" horiz-adv-x="534" unicode="ç" d="M234 -86l25 75q-103 7 -162 74.5t-59 180.5q0 117 68 186.5t175 69.5q99 0 156 -51t66 -137h-107q-15 101 -115 101q-57 0 -94 -47t-37 -122t37 -122t94 -47q100 0 115 101h107q-9 -82 -60.5 -132t-142.5 -55v-26q44 -2 68 -26.5t24 -60.5q0 -43 -30 -69.5t-87 -26.5h-61 v59h52q50 0 50 38q0 37 -50 37h-32z"/>
<glyph glyph-name="egrave" horiz-adv-x="544" unicode="è" d="M243 568l-146 164h120l102 -164h-76zM280 415q-48 0 -82 -31t-44 -86h244q-12 117 -118 117zM38 243q0 115 68 186t174 71q104 0 166 -63t62 -175v-36h-359q4 -72 40 -112.5t95 -40.5q48 0 77 22t37 55h105q-11 -70 -69 -116t-151 -46q-117 0 -181 67.5t-64 187.5z"/>
<glyph glyph-name="eacute" horiz-adv-x="544" unicode="é" d="M242 568l102 164h120l-146 -164h-76zM280 415q-48 0 -82 -31t-44 -86h244q-12 117 -118 117zM38 243q0 115 68 186t174 71q104 0 166 -63t62 -175v-36h-359q4 -72 40 -112.5t95 -40.5q48 0 77 22t37 55h105q-11 -70 -69 -116t-151 -46q-117 0 -181 67.5t-64 187.5z"/>
<glyph glyph-name="ecircumflex" horiz-adv-x="544" unicode="ê" d="M280 415q-48 0 -82 -31t-44 -86h244q-12 117 -118 117zM108 568l128 164h89l128 -164h-95l-78 106l-77 -106h-95zM38 243q0 115 68 186t174 71q104 0 166 -63t62 -175v-36h-359q4 -72 40 -112.5t95 -40.5q48 0 77 22t37 55h105q-11 -70 -69 -116t-151 -46 q-117 0 -181 67.5t-64 187.5z"/>
<glyph glyph-name="edieresis" horiz-adv-x="544" unicode="ë" d="M334 600v104h102v-104h-102zM124 600v104h103v-104h-103zM280 415q-48 0 -82 -31t-44 -86h244q-12 117 -118 117zM38 243q0 115 68 186t174 71q104 0 166 -63t62 -175v-36h-359q4 -72 40 -112.5t95 -40.5q48 0 77 22t37 55h105q-11 -70 -69 -116t-151 -46 q-117 0 -181 67.5t-64 187.5z"/>
<glyph glyph-name="igrave" horiz-adv-x="255" unicode="ì" d="M90 568l-146 164h120l102 -164h-76zM73 0v488h108v-488h-108z"/>
<glyph glyph-name="iacute" horiz-adv-x="255" unicode="í" d="M89 568l102 164h120l-146 -164h-76zM73 0v488h108v-488h-108z"/>
<glyph glyph-name="icircumflex" horiz-adv-x="255" unicode="î" d="M-45 568l128 164h89l128 -164h-95l-78 106l-77 -106h-95zM73 0v488h108v-488h-108z"/>
<glyph glyph-name="idieresis" horiz-adv-x="255" unicode="ï" d="M-29 600v104h103v-104h-103zM181 600v104h102v-104h-102zM73 0v488h108v-488h-108z"/>
<glyph glyph-name="eth" horiz-adv-x="593" unicode="ð" d="M155 228q0 -67 39 -110t101 -43t101 42.5t39 110.5q0 69 -38.5 111t-101.5 42q-62 0 -101 -43t-39 -110zM209 512l-36 51l84 58q-50 25 -119 46l26 77q104 -30 173 -68l97 67l35 -52l-75 -52q76 -57 115 -144t39 -225v-2q0 -135 -69 -207.5t-184 -72.5t-183 66.5 t-68 173.5q0 105 69 172.5t170 67.5q94 0 141 -55h5q-32 111 -113 172z"/>
<glyph glyph-name="ntilde" horiz-adv-x="581" unicode="ñ" d="M124 591q2 53 27.5 85t72.5 32q32 0 79.5 -23t63.5 -23q34 0 42 48h54q-2 -53 -27.5 -85t-72.5 -32q-32 0 -80 23t-63 23q-36 0 -42 -48h-54zM73 0v488h104v-71h4q42 83 151 83q81 0 132 -48.5t51 -155.5v-296h-108v282q0 130 -104 130q-53 0 -87.5 -42.5t-34.5 -114.5 v-255h-108z"/>
<glyph glyph-name="ograve" horiz-adv-x="577" unicode="ò" d="M251 568l-146 164h120l102 -164h-76zM151 244q0 -76 37.5 -122.5t99.5 -46.5t99.5 46.5t37.5 122.5q0 79 -37.5 124t-99.5 45t-99.5 -46.5t-37.5 -122.5zM39 244q0 117 69.5 186.5t179.5 69.5q114 0 181.5 -68.5t67.5 -187.5q0 -117 -69.5 -186.5t-179.5 -69.5 q-114 0 -181.5 68.5t-67.5 187.5z"/>
<glyph glyph-name="oacute" horiz-adv-x="577" unicode="ó" d="M250 568l102 164h120l-146 -164h-76zM151 244q0 -76 37.5 -122.5t99.5 -46.5t99.5 46.5t37.5 122.5q0 79 -37.5 124t-99.5 45t-99.5 -46.5t-37.5 -122.5zM39 244q0 117 69.5 186.5t179.5 69.5q114 0 181.5 -68.5t67.5 -187.5q0 -117 -69.5 -186.5t-179.5 -69.5 q-114 0 -181.5 68.5t-67.5 187.5z"/>
<glyph glyph-name="ocircumflex" horiz-adv-x="577" unicode="ô" d="M116 568l128 164h89l128 -164h-95l-78 106l-77 -106h-95zM151 244q0 -76 37.5 -122.5t99.5 -46.5t99.5 46.5t37.5 122.5q0 79 -37.5 124t-99.5 45t-99.5 -46.5t-37.5 -122.5zM39 244q0 117 69.5 186.5t179.5 69.5q114 0 181.5 -68.5t67.5 -187.5q0 -117 -69.5 -186.5 t-179.5 -69.5q-114 0 -181.5 68.5t-67.5 187.5z"/>
<glyph glyph-name="otilde" horiz-adv-x="577" unicode="õ" d="M119 591q2 53 27.5 85t72.5 32q32 0 79.5 -23t63.5 -23q34 0 42 48h54q-2 -53 -27.5 -85t-72.5 -32q-32 0 -80 23t-63 23q-36 0 -42 -48h-54zM151 244q0 -76 37.5 -122.5t99.5 -46.5t99.5 46.5t37.5 122.5q0 79 -37.5 124t-99.5 45t-99.5 -46.5t-37.5 -122.5zM39 244 q0 117 69.5 186.5t179.5 69.5q114 0 181.5 -68.5t67.5 -187.5q0 -117 -69.5 -186.5t-179.5 -69.5q-114 0 -181.5 68.5t-67.5 187.5z"/>
<glyph glyph-name="odieresis" horiz-adv-x="577" unicode="ö" d="M132 600v104h103v-104h-103zM342 600v104h102v-104h-102zM151 244q0 -76 37.5 -122.5t99.5 -46.5t99.5 46.5t37.5 122.5q0 79 -37.5 124t-99.5 45t-99.5 -46.5t-37.5 -122.5zM39 244q0 117 69.5 186.5t179.5 69.5q114 0 181.5 -68.5t67.5 -187.5q0 -117 -69.5 -186.5 t-179.5 -69.5q-114 0 -181.5 68.5t-67.5 187.5z"/>
<glyph glyph-name="divide" d="M231 19v108h106v-108h-106zM56 210v88h456v-88h-456zM231 380v108h106v-108h-106z" unicode="÷"/>
<glyph glyph-name="oslash" horiz-adv-x="575" unicode="ø" d="M424 244q0 57 -21 96l-195 -238q31 -27 79 -27q62 0 99.5 46.5t37.5 122.5zM150 244q0 -59 23 -99l196 239q-34 29 -82 29q-62 0 -99.5 -46.5t-37.5 -122.5zM45 -12l58 72q-65 68 -65 184t69.5 186t179.5 70q84 0 145 -39l32 39h70l-61 -74q64 -70 64 -182 q0 -116 -69.5 -186t-180.5 -70q-84 0 -142 38l-31 -38h-69z"/>
<glyph glyph-name="ugrave" horiz-adv-x="577" unicode="ù" d="M253 568l-146 164h120l102 -164h-76zM65 192v296h108v-282q0 -130 104 -130q53 0 86 43t33 117v252h108v-488h-103v71h-4q-42 -83 -148 -83q-81 0 -132.5 48.5t-51.5 155.5z"/>
<glyph glyph-name="uacute" horiz-adv-x="577" unicode="ú" d="M252 568l102 164h120l-146 -164h-76zM65 192v296h108v-282q0 -130 104 -130q53 0 86 43t33 117v252h108v-488h-103v71h-4q-42 -83 -148 -83q-81 0 -132.5 48.5t-51.5 155.5z"/>
<glyph glyph-name="ucircumflex" horiz-adv-x="577" unicode="û" d="M118 568l128 164h89l128 -164h-95l-78 106l-77 -106h-95zM65 192v296h108v-282q0 -130 104 -130q53 0 86 43t33 117v252h108v-488h-103v71h-4q-42 -83 -148 -83q-81 0 -132.5 48.5t-51.5 155.5z"/>
<glyph glyph-name="udieresis" horiz-adv-x="577" unicode="ü" d="M134 600v104h103v-104h-103zM344 600v104h102v-104h-102zM65 192v296h108v-282q0 -130 104 -130q53 0 86 43t33 117v252h108v-488h-103v71h-4q-42 -83 -148 -83q-81 0 -132.5 48.5t-51.5 155.5z"/>
<glyph glyph-name="yacute" horiz-adv-x="493" unicode="ý" d="M207 568l102 164h120l-146 -164h-76zM186 0l-182 488h118l127 -376h4l127 376h109l-201 -556q-57 -160 -187 -160h-54v89h32q84 0 118 95l15 44h-26z"/>
<glyph glyph-name="thorn" horiz-adv-x="600" unicode="þ" d="M448 248q0 78 -37 121.5t-96 43.5q-57 0 -94.5 -43t-39.5 -118v-8q0 -78 37.5 -123.5t96.5 -45.5t96 47t37 126zM561 248q0 -118 -64.5 -189t-161.5 -71q-111 0 -154 85h-4q4 -65 4 -164v-129h-108v952h108v-153q0 -100 -4 -164h4q43 85 162 85q95 0 156.5 -67t61.5 -185 z"/>
<glyph glyph-name="OE" horiz-adv-x="1054" unicode="Œ" d="M161 344q0 -109 60.5 -178.5t189.5 -69.5h99v496h-99q-129 0 -189.5 -69.5t-60.5 -178.5zM44 344q0 155 95 249.5t270 94.5h585v-96h-371v-195h298v-93h-298v-208h380v-96h-594q-175 0 -270 94.5t-95 249.5z"/>
<glyph glyph-name="oe" horiz-adv-x="925" unicode="œ" d="M662 415q-48 0 -82 -31.5t-45 -85.5h244q-12 117 -117 117zM150 244q0 -76 37.5 -122.5t99.5 -46.5t99.5 46.5t37.5 122.5q0 79 -37.5 124t-99.5 45t-99.5 -46.5t-37.5 -122.5zM38 244q0 117 69.5 186.5t179.5 69.5q129 0 192 -92q63 92 183 92q104 0 165.5 -63 t61.5 -175v-36h-358q3 -71 39.5 -112t95.5 -41q48 0 76.5 22t36.5 55h106q-11 -69 -69.5 -115.5t-150.5 -46.5q-132 0 -191 90q-63 -90 -187 -90q-114 0 -181.5 68.5t-67.5 187.5z"/>
<glyph glyph-name="Scaron" horiz-adv-x="658" unicode="Š" d="M282 768l-128 164h95l77 -106l78 106h95l-128 -164h-89zM53 204h112q0 -59 43 -93.5t117 -34.5q78 0 121 30.5t43 85.5q0 46 -37.5 68t-109.5 35l-45 8q-41 7 -68 14t-61 21.5t-54.5 33.5t-34.5 51t-14 73q0 90 71.5 147t189.5 57q117 0 187.5 -54.5t70.5 -150.5h-111 q0 57 -40.5 87t-106.5 30t-107.5 -27.5t-41.5 -77.5q0 -25 11.5 -43t36 -29.5t49 -18t63.5 -13.5l45 -8q38 -7 66 -14t59.5 -22t51.5 -34.5t33 -51t13 -72.5q0 -97 -74 -155t-206 -58q-130 0 -201 57.5t-71 158.5z"/>
<glyph glyph-name="scaron" horiz-adv-x="509" unicode="š" d="M209 568l-128 164h95l77 -106l78 106h95l-128 -164h-89zM38 146h103q0 -41 31 -61.5t76 -20.5q105 0 105 72q0 27 -16.5 40.5t-53.5 19.5l-90 15q-144 24 -144 134q0 73 55.5 114t144.5 41q88 0 143.5 -41t55.5 -116h-101q0 37 -27 59t-71 22q-43 0 -69.5 -18t-26.5 -50 q0 -25 17.5 -39t60.5 -21l90 -15q65 -10 102.5 -41t37.5 -97q0 -77 -57 -116t-156 -39q-98 0 -154 40.5t-56 117.5z"/>
<glyph glyph-name="Ydieresis" horiz-adv-x="637" unicode="Ÿ" d="M162 768v104h103v-104h-103zM372 768v104h102v-104h-102zM260 0v266l-249 422h128l178 -310h4l185 310h119l-252 -417v-271h-113z"/>
<glyph glyph-name="circumflex" horiz-adv-x="573" unicode="ˆ" d="M114 568l128 164h89l128 -164h-95l-78 106l-77 -106h-95z"/>
<glyph glyph-name="tilde" horiz-adv-x="573" unicode="˜" d="M117 591q2 53 27.5 85t72.5 32q32 0 79.5 -23t63.5 -23q34 0 42 48h54q-2 -53 -27.5 -85t-72.5 -32q-32 0 -80 23t-63 23q-36 0 -42 -48h-54z"/>
<glyph glyph-name="uni0394" horiz-adv-x="652" unicode="Δ" d="M326 576h-4l-165 -486h332zM21 0l243 688h124l244 -688h-611z"/>
<glyph glyph-name="uni03BC" horiz-adv-x="582" unicode="μ" d="M168 11q12 -96 12 -162v-69h-109v708h109v-282q0 -70 26 -100t77 -30q53 0 86 43t33 115v254h108v-488h-103v71h-4q-41 -83 -147 -83q-47 0 -85 23h-3z"/>
<glyph glyph-name="pi" horiz-adv-x="599" unicode="π" d="M79 0v488h441v-488h-109v400h-223v-400h-109z"/>
<glyph glyph-name="endash" horiz-adv-x="556" unicode="–" d="M56 205v94h444v-94h-444z"/>
<glyph glyph-name="emdash" horiz-adv-x="840" unicode="—" d="M56 205v94h728v-94h-728z"/>
<glyph glyph-name="quoteleft" horiz-adv-x="255" unicode="‘" d="M69 421v110l43 157h54l-30 -149h50v-118h-117z"/>
<glyph glyph-name="quotesinglbase" horiz-adv-x="255" unicode="‚" d="M120 0h-51v118h117v-110l-43 -157h-54z"/>
<glyph glyph-name="quotedblleft" horiz-adv-x="448" unicode="“" d="M262 421v110l43 157h54l-30 -149h50v-118h-117zM69 421v110l43 157h54l-30 -149h50v-118h-117z"/>
<glyph glyph-name="quotedblright" horiz-adv-x="448" unicode="”" d="M282 421l31 149h-51v118h117v-110l-43 -157h-54zM89 421l31 149h-51v118h117v-110l-43 -157h-54z"/>
<glyph glyph-name="dagger" horiz-adv-x="455" unicode="†" d="M44 438v82h136v168h95v-168h136v-82h-136v-438h-95v438h-136z"/>
<glyph glyph-name="daggerdbl" horiz-adv-x="455" unicode="‡" d="M44 443v83h136v162h95v-162h136v-83h-136v-202h136v-83h-136v-158h-95v158h-136v83h136v202h-136z"/>
<glyph glyph-name="ellipsis" horiz-adv-x="813" unicode="…" d="M72 0v122h123v-122h-123zM346 0v122h122v-122h-122zM619 0v122h122v-122h-122z"/>
<glyph glyph-name="perthousand" horiz-adv-x="1152" unicode="‰" d="M973 60q67 0 67 112t-67 112q-68 0 -68 -112t68 -112zM973 -8q-76 0 -115.5 50t-39.5 130t39.5 130t115.5 50t115 -50t39 -130t-39 -130t-115 -50zM614 60q67 0 67 112t-67 112q-68 0 -68 -112t68 -112zM614 -8q-76 0 -115.5 50t-39.5 130t39.5 130t115.5 50t115 -50 t39 -130t-39 -130t-115 -50zM185 -12l348 712h75l-348 -712h-75zM180 404q67 0 67 112t-67 112q-68 0 -68 -112t68 -112zM180 336q-76 0 -115.5 50t-39.5 130t39.5 130t115.5 50t115 -50t39 -130t-39 -130t-115 -50z"/>
<glyph glyph-name="guilsinglleft" horiz-adv-x="333" unicode="‹" d="M194 48l-144 204l144 204h89l-114 -204l114 -204h-89z"/>
<glyph glyph-name="guilsinglright" horiz-adv-x="333" unicode="›" d="M50 48l114 204l-114 204h89l144 -204l-144 -204h-89z"/>
<glyph glyph-name="fraction" horiz-adv-x="75" unicode="⁄" d="M-174 -12l348 712h75l-348 -712h-75z"/>
<glyph glyph-name="Euro" d="M12 389l18 61h53q19 115 82 182.5t168 67.5q183 0 220 -203h-103q-15 58 -41.5 85.5t-72.5 27.5q-113 0 -141 -160h194l-18 -61h-183v-81h179l-18 -62h-155q25 -168 139 -168q43 0 69.5 23.5t41.5 73.5h104q-41 -187 -218 -187q-107 0 -168.5 69t-79.5 189h-89l18 62h65 q-1 10 -1 35q0 33 2 46h-65z" unicode="€"/>
<glyph glyph-name="trademark" horiz-adv-x="816" unicode="™" d="M4 619v69h314v-69h-115v-275h-82v275h-117zM363 344v344h114l91 -235h4l91 235h115v-344h-82l4 241h-4l-93 -241h-65l-93 241h-4l4 -241h-82z"/>
<glyph glyph-name="uni2190" horiz-adv-x="660" unicode="←" d="M335 54l-57 -52l-250 250l250 250l57 -52l-163 -161q64 4 165 4h295v-82h-295q-101 0 -165 4z"/>
<glyph glyph-name="uni2191" horiz-adv-x="660" unicode="↑" d="M134 247l-52 57l250 250l251 -250l-53 -57l-161 163q4 -64 4 -165v-295h-82v295q0 101 4 165z"/>
<glyph glyph-name="uni2192" horiz-adv-x="660" unicode="→" d="M382 2l-57 52l162 161q-63 -4 -164 -4h-295v82h295q101 0 164 -4l-162 161l57 52l250 -250z"/>
<glyph glyph-name="uni2193" horiz-adv-x="660" unicode="↓" d="M528 257l52 -57l-250 -250l-250 250l52 57l161 -163q-4 64 -4 165v295h82v-295q0 -101 -4 -165z"/>
<glyph glyph-name="partialdiff" d="M244 76q58 0 100.5 44.5t42.5 107.5q0 57 -31.5 90.5t-86.5 33.5q-60 0 -100.5 -42.5t-40.5 -113.5q0 -56 32.5 -88t83.5 -32zM18 193q0 114 70 180.5t170 66.5q53 0 96 -21t60 -57q2 28 2 41q0 109 -35.5 159t-90.5 50q-98 0 -119 -99h-106q18 87 76.5 137t156.5 50 q99 0 163.5 -73.5t64.5 -224.5q0 -114 -25 -197.5t-68 -129t-93.5 -66.5t-109.5 -21q-89 0 -150.5 55.5t-61.5 149.5z" unicode="∂"/>
<glyph glyph-name="product" horiz-adv-x="732" unicode="∏" d="M87 0v688h558v-688h-108v598h-341v-598h-109z"/>
<glyph glyph-name="summation" horiz-adv-x="539" unicode="∑" d="M19 0v53l223 286l-215 289v60h476v-89h-331l191 -254l-202 -256h354v-89h-496z"/>
<glyph glyph-name="minus" d="M57 210v88h454v-88h-454z" unicode="−"/>
<glyph glyph-name="radical" horiz-adv-x="598" unicode="√" d="M27 292v88l154 49l120 -311h4l198 570h105l-243 -688h-120l-130 320z"/>
<glyph glyph-name="infinity" horiz-adv-x="708" unicode="∞" d="M403 253q62 -85 118 -85q35 0 56.5 25t21.5 60t-21.5 60t-56.5 25q-56 0 -118 -85zM187 168q56 0 118 85q-62 85 -118 85q-35 0 -56.5 -25t-21.5 -60t21.5 -60t56.5 -25zM190 88q-73 0 -119 46t-46 119t46 119t119 46q94 0 166 -102q73 102 162 102q73 0 119 -46t46 -119 t-46 -119t-119 -46q-95 0 -166 101q-74 -101 -162 -101z"/>
<glyph glyph-name="approxequal" d="M52 64q0 80 38 121.5t95 41.5q39 0 76 -18.5t67 -36.5t53 -18q50 0 50 75h86q0 -80 -37.5 -121.5t-92.5 -41.5q-39 0 -77 19t-69 38t-53 19q-50 0 -50 -78h-86zM52 282q0 81 38 122t95 41q39 0 76 -18.5t67 -36.5t53 -18q50 0 50 75h86q0 -80 -37.5 -121.5t-92.5 -41.5 q-39 0 -77 19t-69 38t-53 19q-50 0 -50 -78h-86z" unicode="≈"/>
<glyph glyph-name="notequal" d="M56 316v88h261l74 138l70 -38l-54 -100h105v-88h-152l-66 -124h218v-88h-265l-74 -138l-70 38l53 100h-100v88h147l67 124h-214z" unicode="≠"/>
<glyph glyph-name="lessequal" d="M72 0v88h424v-88h-424zM72 324v89l424 175v-95l-318 -123l318 -124v-98z" unicode="≤"/>
<glyph glyph-name="greaterequal" d="M72 0v88h424v-88h-424zM496 413v-90l-424 -175v95l318 123l-318 124v98z" unicode="≥"/>
<glyph glyph-name="lozenge" horiz-adv-x="653" unicode="◊" d="M328 599h-5l-178 -253l181 -257h4l178 252zM276 0l-246 344l246 344h101l246 -344l-246 -344h-101z"/>
</font>
</defs>
</svg>
