<?xml version="1.0" encoding="UTF-8" standalone="no"?>
<!DOCTYPE svg  PUBLIC '-//W3C//DTD SVG 1.1//EN'  'http://www.w3.org/Graphics/SVG/1.1/DTD/svg11.dtd'>
<svg xmlns="http://www.w3.org/2000/svg">
<defs>
<font id="FaktPro-Light" horiz-adv-x="568">
<font-face underline-position="-50" font-weight="300" descent="-200" panose-1="2 0 0 0 0 0 0 0 0 0" units-per-em="1000" unicode-range="U+0020-25CA" bbox="-170 -240 1068 950" x-height="488" underline-thickness="50" font-family="Fakt Pro Lt" ascent="800" cap-height="688"/>
<missing-glyph horiz-adv-x="1000"/>
<glyph glyph-name=".notdef" horiz-adv-x="1000"/>
<glyph glyph-name=".null" horiz-adv-x="0"/>
<glyph glyph-name="nonmarkingreturn" horiz-adv-x="333"/>
<glyph glyph-name="space" horiz-adv-x="212" unicode=" "/>
<glyph glyph-name="exclam" horiz-adv-x="232" unicode="!" d="M89 0v96h54v-96h-54zM101 186l-12 326v176h54v-176l-13 -326h-29z"/>
<glyph glyph-name="quotedbl" horiz-adv-x="376" unicode='&quot;' d="M260 436l-8 162v90h48v-90l-9 -162h-31zM84 436l-8 162v90h48v-90l-9 -162h-31z"/>
<glyph glyph-name="numbersign" horiz-adv-x="596" unicode="#" d="M226 474l-44 -255h186l44 255h-186zM64 474v38h125l31 176h44l-31 -176h186l31 176h44l-31 -176h115v-38h-122l-44 -255h120v-37h-127l-31 -182h-44l31 182h-186l-31 -182h-44l31 182h-113v37h120l44 255h-118z"/>
<glyph glyph-name="dollar" d="M48 184h48q4 -71 56 -112.5t128 -41.5q79 0 128.5 41t49.5 111q0 56 -32 86t-105 51l-106 31q-69 21 -110 59t-41 111q0 74 52.5 122t137.5 55v107h48v-107q78 -7 130.5 -53.5t59.5 -119.5h-48q-7 64 -53 99t-113 35q-74 0 -119 -35.5t-45 -98.5q0 -58 31.5 -85.5 t96.5 -46.5l107 -32q84 -25 121.5 -66t37.5 -110q0 -83 -57 -135t-147 -58v-111h-48v111q-89 7 -146.5 58t-61.5 135z" unicode="$"/>
<glyph glyph-name="percent" horiz-adv-x="752" unicode="%" d="M576 27q48 0 73 39t25 106t-25 106t-73 39q-47 0 -72.5 -39t-25.5 -106t25.5 -106t72.5 -39zM576 -7q-68 0 -104 50t-36 129t36 129t104 50t104 -50t36 -129t-36 -129t-104 -50zM182 -12l349 712h39l-349 -712h-39zM176 371q48 0 73 39t25 106t-25 106t-73 39 q-47 0 -72.5 -39t-25.5 -106t25.5 -106t72.5 -39zM176 337q-68 0 -104 50t-36 129t36 129t104 50t104 -50t36 -129t-36 -129t-104 -50z"/>
<glyph glyph-name="ampersand" horiz-adv-x="682" unicode="&amp;" d="M174 546q0 -36 22.5 -69t73.5 -84q40 19 61.5 30.5t49 31.5t39.5 43t12 52q0 47 -34 78.5t-92 31.5q-60 0 -96 -32.5t-36 -81.5zM292 30q129 0 196 86l-232 231q-73 -35 -112.5 -73t-39.5 -98q0 -69 50 -107.5t138 -38.5zM56 172q0 73 45.5 118t126.5 84 q-53 56 -75.5 91.5t-22.5 78.5q0 65 49 109.5t127 44.5t125 -42t47 -106q0 -35 -14 -63t-43.5 -51t-55 -36.5t-68.5 -33.5l215 -216q44 76 44 180v14h44v-20q0 -116 -57 -206l118 -118h-57l-86 86q-82 -96 -226 -96q-113 0 -174.5 48.5t-61.5 133.5z"/>
<glyph glyph-name="quotesingle" horiz-adv-x="200" unicode="&apos;" d="M84 436l-8 162v90h48v-90l-9 -162h-31z"/>
<glyph glyph-name="parenleft" horiz-adv-x="266" unicode="(" d="M38 260q0 143 49.5 270.5t114.5 213.5h44q-60 -80 -111 -211.5t-51 -272.5t51.5 -273.5t110.5 -214.5h-44q-64 86 -114 215.5t-50 272.5z"/>
<glyph glyph-name="parenright" horiz-adv-x="266" unicode=")" d="M20 -228q59 82 110.5 214.5t51.5 273.5t-51 271.5t-111 212.5h44q65 -86 114.5 -213.5t49.5 -270.5t-50 -272.5t-114 -215.5h-44z"/>
<glyph glyph-name="asterisk" horiz-adv-x="444" unicode="*" d="M202 696h40l-9 -147l135 55l12 -37l-142 -37l93 -112l-31 -22l-79 121l-77 -121l-32 22l92 113l-140 36l12 37l135 -53z"/>
<glyph glyph-name="plus" d="M58 233v41h204v206h44v-206h204v-41h-204v-205h-44v205h-204z" unicode="+"/>
<glyph glyph-name="comma" horiz-adv-x="220" unicode="," d="M104 0l-22 1v103h55v-100l-36 -154h-29z"/>
<glyph glyph-name="hyphen" horiz-adv-x="396" unicode="-" d="M60 230v44h276v-44h-276z"/>
<glyph glyph-name="period" horiz-adv-x="220" unicode="." d="M82 0v104h55v-104h-55z"/>
<glyph glyph-name="slash" horiz-adv-x="402" unicode="/" d="M26 -12l308 712h42l-308 -712h-42z"/>
<glyph glyph-name="zero" d="M284 34q92 0 138 83.5t46 226.5t-46 226.5t-138 83.5q-93 0 -138.5 -83t-45.5 -227q0 -143 46 -226.5t138 -83.5zM284 -10q-117 0 -175.5 97.5t-58.5 256.5t58.5 256.5t175.5 97.5t175.5 -97.5t58.5 -256.5t-58.5 -256.5t-175.5 -97.5z" unicode="0"/>
<glyph glyph-name="one" d="M93 499l-21 36l220 153h36v-647h186v-41h-430v41h196v588z" unicode="1"/>
<glyph glyph-name="two" d="M66 0q4 110 41 169t123 113l76 48q5 3 24 14.5t24.5 15.5t21.5 15t21.5 17t17 17t16 20.5t11 22.5t8.5 26.5t2 29.5q0 65 -43.5 106.5t-116.5 41.5q-76 0 -124 -41.5t-52 -128.5h-44q4 111 67 161.5t153 50.5q91 0 149.5 -51t58.5 -139q0 -22 -4.5 -41.5t-10 -34t-18 -30 t-20.5 -24.5t-26.5 -23t-26.5 -19t-30 -19t-28 -18l-76 -48q-78 -49 -107.5 -94.5t-32.5 -115.5h386v-41h-440z" unicode="2"/>
<glyph glyph-name="three" d="M54 202h46q0 -83 49 -126.5t131 -43.5q83 0 133.5 40.5t50.5 115.5q0 71 -52 110.5t-132 39.5h-52v41h52q68 0 113 39t45 102q0 64 -44.5 100t-111.5 36q-69 0 -114.5 -38.5t-45.5 -113.5h-44q0 91 57.5 142.5t146.5 51.5t145.5 -48.5t56.5 -129.5q0 -59 -36 -101.5 t-91 -56.5q69 -13 112 -59t43 -119q0 -91 -64.5 -142.5t-167.5 -51.5t-164.5 54.5t-61.5 157.5z" unicode="3"/>
<glyph glyph-name="four" d="M86 233h284v381zM36 192v34l343 464h39v-457h110v-41h-110v-192h-48v192h-334z" unicode="4"/>
<glyph glyph-name="five" d="M60 176h48q8 -59 53.5 -101.5t124.5 -42.5q77 0 128.5 49.5t51.5 134.5q0 82 -49 132.5t-129 50.5q-100 0 -163 -95l-45 2l20 382h374v-43h-330l-16 -283h2q56 78 164 78q97 0 158.5 -60.5t61.5 -159.5q0 -107 -66 -168.5t-162 -61.5q-99 0 -158 52t-68 134z" unicode="5"/>
<glyph glyph-name="six" d="M122 211q0 -72 49 -125.5t127 -53.5t129 50t51 136q0 80 -49 130.5t-125 50.5q-79 0 -130.5 -52t-51.5 -136zM58 328q0 99 20 172.5t55.5 115.5t78.5 62t94 20q91 0 142.5 -49.5t60.5 -132.5h-47q-8 64 -47 102t-109 38q-87 0 -142.5 -79t-55.5 -249q0 -13 1 -23l2 7 q19 58 75 93t124 35q97 0 156.5 -61.5t59.5 -160.5q0 -104 -65.5 -166t-160.5 -62q-110 0 -176 81.5t-66 256.5z" unicode="6"/>
<glyph glyph-name="seven" d="M176 0l290 645h-408v43h460v-35l-292 -653h-50z" unicode="7"/>
<glyph glyph-name="eight" d="M284 379q69 0 114.5 39t45.5 102q0 64 -46 101t-114 37t-114 -37t-46 -101q0 -63 45.5 -102t114.5 -39zM98 185q0 -73 49 -113t137 -40t137 40t49 113q0 69 -50.5 111t-135.5 42t-135.5 -42t-50.5 -111zM50 182q0 68 41.5 116.5t114.5 61.5q-56 13 -92 58t-36 102 q0 81 57.5 129.5t148.5 48.5t148.5 -48.5t57.5 -129.5q0 -57 -36 -102t-92 -58q73 -13 114.5 -61.5t41.5 -116.5q0 -91 -62.5 -141.5t-171.5 -50.5t-171.5 50.5t-62.5 141.5z" unicode="8"/>
<glyph glyph-name="nine" d="M446 478q0 69 -49.5 123.5t-126.5 54.5t-128.5 -50.5t-51.5 -135.5q0 -80 49 -130.5t125 -50.5q79 0 130.5 52.5t51.5 136.5zM510 360q0 -194 -65.5 -282t-176.5 -88q-93 0 -146 49.5t-63 132.5h47q10 -63 50.5 -101.5t111.5 -38.5q192 0 192 328q0 2 -0.5 9.5t-0.5 13.5 q-18 -62 -74.5 -98.5t-126.5 -36.5q-97 0 -156.5 61.5t-59.5 160.5q0 104 65.5 166t160.5 62q110 0 176 -81.5t66 -256.5z" unicode="9"/>
<glyph glyph-name="colon" horiz-adv-x="220" unicode=":" d="M82 0v104h55v-104h-55zM82 384v104h55v-104h-55z"/>
<glyph glyph-name="semicolon" horiz-adv-x="220" unicode=";" d="M104 0l-22 1v103h55v-100l-36 -154h-29zM82 384v104h55v-104h-55z"/>
<glyph glyph-name="less" d="M74 234v42l420 180v-44l-372 -156l372 -156v-46z" unicode="&lt;"/>
<glyph glyph-name="equal" d="M58 129v41h452v-41h-452zM58 338v41h452v-41h-452z" unicode="="/>
<glyph glyph-name="greater" d="M494 276v-42l-420 -180v44l372 156l-372 156v46z" unicode="&gt;"/>
<glyph glyph-name="question" horiz-adv-x="466" unicode="?" d="M202 0v96h55v-96h-55zM206 196v28q0 58 21 94t60 68l25 20q34 29 51 55t17 67q0 58 -39.5 93t-100.5 35q-73 0 -114.5 -44.5t-41.5 -123.5h-48q0 95 54.5 152.5t149.5 57.5q84 0 137 -45.5t53 -122.5q0 -52 -21 -85.5t-60 -64.5l-25 -20q-34 -29 -52 -58t-18 -73v-33h-48 z"/>
<glyph glyph-name="at" horiz-adv-x="1032" unicode="@" d="M473 28q73 0 121.5 47.5t48.5 138.5v61q-14 -21 -61 -29l-115 -18q-109 -16 -109 -102q0 -45 30.5 -71.5t84.5 -26.5zM311 124q0 117 149 140l116 18q38 6 52.5 15t14.5 29q0 65 -33.5 98.5t-95.5 33.5q-61 0 -98 -31t-42 -91h-45q4 75 53.5 118.5t129.5 43.5 q86 0 132.5 -45.5t46.5 -132.5v-184q0 -58 27 -84t69 -26q64 0 105.5 62t41.5 184q0 176 -118.5 283t-295.5 107q-184 0 -303 -120t-119 -308q0 -187 116 -306.5t292 -119.5q161 0 250 98h54q-105 -134 -304 -134q-194 0 -322 130.5t-128 331.5q0 202 131 333t333 131 q194 0 325 -117.5t131 -308.5q0 -139 -54.5 -209t-138.5 -70q-51 0 -87.5 24t-46.5 76q-24 -49 -72 -76t-111 -27q-73 0 -114 37t-41 97z"/>
<glyph glyph-name="A" horiz-adv-x="618" unicode="A" d="M309 636h-2l-142 -378h286zM18 0l262 688h58l262 -688h-52l-81 215h-318l-81 -215h-50z"/>
<glyph glyph-name="B" horiz-adv-x="646" unicode="B" d="M360 645h-218v-263h222q71 0 111.5 39t40.5 100q0 124 -156 124zM374 339h-232v-296h232q83 0 125.5 42t42.5 112q0 64 -43 103t-125 39zM92 0v688h268q104 0 155 -44t51 -124q0 -57 -33 -99t-92 -56v-2q71 -11 111 -56t40 -109q0 -89 -56.5 -143.5t-161.5 -54.5h-282z "/>
<glyph glyph-name="C" horiz-adv-x="704" unicode="C" d="M50 344q0 151 89.5 252.5t232.5 101.5q113 0 187 -59t99 -159h-51q-24 81 -83.5 126.5t-151.5 45.5q-121 0 -195.5 -88t-74.5 -220q0 -130 74.5 -219t193.5 -89q183 0 237 172h51q-26 -100 -100.5 -159t-187.5 -59q-142 0 -231 101.5t-89 252.5z"/>
<glyph glyph-name="D" horiz-adv-x="688" unicode="D" d="M276 645h-132v-602h132q155 0 232.5 83.5t77.5 217.5t-77.5 217.5t-232.5 83.5zM94 0v688h182q175 0 268.5 -94.5t93.5 -249.5t-93.5 -249.5t-268.5 -94.5h-182z"/>
<glyph glyph-name="E" horiz-adv-x="600" unicode="E" d="M94 0v688h448v-43h-398v-272h322v-43h-322v-287h406v-43h-456z"/>
<glyph glyph-name="F" horiz-adv-x="564" unicode="F" d="M94 0v688h440v-43h-390v-283h314v-43h-314v-319h-50z"/>
<glyph glyph-name="G" horiz-adv-x="750" unicode="G" d="M634 0l-8 134q-68 -144 -252 -144q-143 0 -233.5 102t-90.5 252q0 154 92.5 254t237.5 100q115 0 190 -59t96 -151h-52q-18 71 -78.5 117.5t-155.5 46.5q-124 0 -201 -86.5t-77 -221.5q0 -130 76.5 -219t195.5 -89q105 0 176.5 59t71.5 169v49h-244v43h290v-356h-34z"/>
<glyph glyph-name="H" horiz-adv-x="704" unicode="H" d="M94 0v688h50v-316h416v316h50v-688h-50v329h-416v-329h-50z"/>
<glyph glyph-name="I" horiz-adv-x="238" unicode="I" d="M94 0v688h50v-688h-50z"/>
<glyph glyph-name="J" horiz-adv-x="514" unicode="J" d="M54 190v38h50v-34q0 -82 38 -121.5t102 -39.5q62 0 100 40t38 121v494h50v-498q0 -101 -51.5 -150.5t-136.5 -49.5q-88 0 -139 49t-51 151z"/>
<glyph glyph-name="K" horiz-adv-x="640" unicode="K" d="M94 0v688h50v-432l396 432h60l-276 -298l291 -390h-56l-268 355l-147 -159v-196h-50z"/>
<glyph glyph-name="L" horiz-adv-x="539" unicode="L" d="M94 0v688h50v-645h366v-43h-416z"/>
<glyph glyph-name="M" horiz-adv-x="870" unicode="M" d="M94 0v688h60l281 -621h2l279 621h60v-688h-50l4 607h-2l-274 -607h-39l-273 601h-2l4 -601h-50z"/>
<glyph glyph-name="N" horiz-adv-x="710" unicode="N" d="M94 0v688h48l424 -604h2l-2 604h50v-688h-48l-424 602h-2l2 -602h-50z"/>
<glyph glyph-name="O" horiz-adv-x="756" unicode="O" d="M102 344q0 -133 77 -220.5t199 -87.5q121 0 198.5 87.5t77.5 220.5t-77.5 220.5t-198.5 87.5q-122 0 -199 -87.5t-77 -220.5zM50 344q0 154 91 254t237 100q143 0 235.5 -100.5t92.5 -253.5q0 -152 -92.5 -253t-235.5 -101q-145 0 -236.5 100.5t-91.5 253.5z"/>
<glyph glyph-name="P" horiz-adv-x="616" unicode="P" d="M346 645h-202v-342h202q83 0 128.5 48.5t45.5 124.5t-45.5 122.5t-128.5 46.5zM94 0v688h250q106 0 166 -58.5t60 -153.5q0 -96 -60 -156t-166 -60h-200v-260h-50z"/>
<glyph glyph-name="Q" horiz-adv-x="762" unicode="Q" d="M102 344q0 -133 77 -220.5t199 -87.5q121 0 198.5 87.5t77.5 220.5t-77.5 220.5t-198.5 87.5q-122 0 -199 -87.5t-77 -220.5zM50 344q0 154 91 254t237 100q143 0 235.5 -100.5t92.5 -253.5q0 -85 -31.5 -157.5t-87.5 -120.5l135 -140l-34 -34l-141 145q-79 -47 -169 -47 q-145 0 -236.5 100.5t-91.5 253.5z"/>
<glyph glyph-name="R" horiz-adv-x="638" unicode="R" d="M352 645h-208v-308h208q81 0 125.5 44t44.5 115q0 70 -44 109.5t-126 39.5zM94 0v688h256q108 0 165 -50.5t57 -141.5q0 -81 -45.5 -133.5t-129.5 -65.5l191 -297h-54l-191 294h-199v-294h-50z"/>
<glyph glyph-name="S" horiz-adv-x="628" unicode="S" d="M63 192h49q0 -77 54.5 -118.5t147.5 -41.5q94 0 146 41t52 113q0 67 -45.5 96t-130.5 44l-46 8q-39 7 -65 13t-58 19.5t-50.5 31t-31.5 47t-13 67.5q0 81 65.5 133.5t172.5 52.5t172 -48.5t65 -139.5h-49q0 71 -52 108.5t-136 37.5q-83 0 -135.5 -38.5t-52.5 -101.5 q0 -28 10.5 -50t26 -35.5t41.5 -24t49 -15.5t57 -11l46 -8q48 -8 79.5 -18t65 -29.5t50.5 -54t17 -82.5q0 -90 -66.5 -144t-183.5 -54q-118 0 -184.5 52t-66.5 150z"/>
<glyph glyph-name="T" horiz-adv-x="570" unicode="T" d="M8 646v42h554v-42h-252v-646h-50v646h-252z"/>
<glyph glyph-name="U" horiz-adv-x="680" unicode="U" d="M80 270v418h50v-418q0 -115 55 -175t155 -60t155 60t55 175v418h50v-418q0 -142 -69.5 -211t-190.5 -69q-120 0 -190 69.5t-70 210.5z"/>
<glyph glyph-name="V" horiz-adv-x="598" unicode="V" d="M271 0l-259 688h52l235 -636h2l235 636h50l-260 -688h-55z"/>
<glyph glyph-name="W" horiz-adv-x="900" unicode="W" d="M202 0l-188 688h51l168 -635h2l188 635h59l187 -635h2l165 635h50l-186 -688h-62l-186 629h-2l-186 -629h-62z"/>
<glyph glyph-name="X" horiz-adv-x="574" unicode="X" d="M14 0l243 351l-235 337h57l206 -297l205 297h54l-232 -335l248 -353h-57l-219 313l-216 -313h-54z"/>
<glyph glyph-name="Y" horiz-adv-x="580" unicode="Y" d="M264 0v278l-250 410h56l219 -358h2l222 358h53l-252 -406v-282h-50z"/>
<glyph glyph-name="Z" horiz-adv-x="566" unicode="Z" d="M58 646v42h470v-31l-429 -615h425v-42h-486v31l428 615h-408z"/>
<glyph glyph-name="bracketleft" horiz-adv-x="304" unicode="[" d="M138 -188h146v-40h-190v972h190v-40h-146v-892z"/>
<glyph glyph-name="backslash" horiz-adv-x="402" unicode="\" d="M334 -12l-308 712h42l308 -712h-42z"/>
<glyph glyph-name="bracketright" horiz-adv-x="304" unicode="]" d="M20 -188h146v892h-146v40h190v-972h-190v40z"/>
<glyph glyph-name="asciicircum" d="M66 352l194 336h48l194 -336h-50l-169 299l-169 -299h-48z" unicode="^"/>
<glyph glyph-name="underscore" horiz-adv-x="500" unicode="_" d="M0 -72h500v-37h-500v37z"/>
<glyph glyph-name="grave" horiz-adv-x="540" unicode="`" d="M253 568l-128 164h57l107 -164h-36z"/>
<glyph glyph-name="a" horiz-adv-x="510" unicode="a" d="M384 216v63q-13 -20 -61 -28l-113 -18q-56 -9 -83 -33.5t-27 -70.5q0 -44 29 -70.5t81 -26.5q76 0 125 47t49 137zM52 125q0 62 36 95.5t113 46.5l116 19q37 6 52 14.5t15 27.5q0 62 -34.5 96t-95.5 34q-60 0 -97 -31.5t-41 -90.5h-46q4 75 54 118.5t130 43.5 q85 0 131.5 -45.5t46.5 -130.5v-322h-46v94q-22 -46 -69.5 -73.5t-108.5 -27.5q-72 0 -114 36t-42 96z"/>
<glyph glyph-name="b" horiz-adv-x="567" unicode="b" d="M132 244q0 -97 48 -154.5t122 -57.5q73 0 121.5 59.5t48.5 156.5q0 96 -48.5 152t-121.5 56q-72 0 -120 -54.5t-50 -147.5v-10zM84 0v732h48v-150q0 -152 -3 -199h2q23 55 70.5 85t109.5 30q92 0 151.5 -68t59.5 -182t-61.5 -186t-152.5 -72q-62 0 -108 29.5t-69 85.5h-2 l1 -105h-46z"/>
<glyph glyph-name="c" horiz-adv-x="506" unicode="c" d="M46 244q0 113 62.5 183.5t157.5 70.5q81 0 133 -46.5t65 -125.5h-48q-12 61 -51 95.5t-99 34.5q-73 0 -121.5 -59.5t-48.5 -152.5q0 -94 47 -153t123 -59q60 0 99 34.5t51 95.5h48q-13 -79 -65 -125.5t-133 -46.5q-101 0 -160.5 69.5t-59.5 184.5z"/>
<glyph glyph-name="d" d="M96 240q0 -96 48 -152t121 -56q72 0 120 54.5t51 147.5v20q-3 93 -51 147.5t-119 54.5q-73 0 -121.5 -59.5t-48.5 -156.5zM46 240q0 114 61.5 186t153.5 72q61 0 107 -30t68 -85h3q-3 48 -3 189v160h48v-732h-45v106h-3q-23 -56 -70.5 -86t-108.5 -30q-92 0 -151.5 68 t-59.5 182z" unicode="d"/>
<glyph glyph-name="e" horiz-adv-x="514" unicode="e" d="M264 456q-66 0 -111.5 -47.5t-54.5 -126.5h321q-3 84 -45 129t-110 45zM46 244q0 112 62 183t156 71q91 0 147.5 -62t56.5 -170v-21h-372v-7q2 -93 47 -149.5t123 -56.5q61 0 101.5 32t48.5 84h48q-10 -69 -64.5 -113.5t-133.5 -44.5q-104 0 -162 68.5t-58 185.5z"/>
<glyph glyph-name="f" horiz-adv-x="284" unicode="f" d="M104 0v449h-102v39h102v92q0 152 146 152h46v-41h-42q-53 0 -77.5 -27.5t-24.5 -85.5v-90h128v-39h-128v-449h-48z"/>
<glyph glyph-name="g" d="M96 240q0 -96 48 -152t121 -56q74 0 122.5 57.5t48.5 154.5v10q-3 93 -51 147.5t-119 54.5q-73 0 -121.5 -59.5t-48.5 -156.5zM58 -60h46q0 -59 43.5 -93.5t114.5 -34.5q176 0 176 206l1 87h-3q-23 -55 -70.5 -85t-108.5 -30q-92 0 -151.5 68t-59.5 182t61.5 186 t153.5 72q61 0 107 -30t68 -85h3v105h45v-470q0 -128 -60.5 -186.5t-161.5 -58.5q-92 0 -148 44t-56 123z" unicode="g"/>
<glyph glyph-name="h" horiz-adv-x="552" unicode="h" d="M84 0v732h48v-147q0 -145 -3 -192h3q21 52 66 78.5t102 26.5q78 0 126 -47.5t48 -148.5v-302h-48v296q0 160 -134 160q-69 0 -114.5 -51.5t-45.5 -146.5v-258h-48z"/>
<glyph glyph-name="i" horiz-adv-x="216" unicode="i" d="M84 0v488h48v-488h-48zM82 640v92h52v-92h-52z"/>
<glyph glyph-name="j" horiz-adv-x="216" unicode="j" d="M84 -96v584h48v-592q0 -116 -114 -116h-28v41h24q36 0 53 19.5t17 63.5zM82 640v92h52v-92h-52z"/>
<glyph glyph-name="k" horiz-adv-x="488" unicode="k" d="M84 0v732h48v-537l265 293h56l-182 -200l205 -288h-57l-181 253l-106 -117v-136h-48z"/>
<glyph glyph-name="l" horiz-adv-x="215" unicode="l" d="M84 0v732h48v-732h-48z"/>
<glyph glyph-name="m" horiz-adv-x="862" unicode="m" d="M84 0v488h45v-95h3q21 52 65 78.5t97 26.5q56 0 97 -28.5t58 -88.5q23 60 68.5 88.5t102.5 28.5q73 0 118.5 -47t45.5 -145v-306h-48v300q0 156 -125 156q-64 0 -108.5 -52t-44.5 -148v-256h-48v300q0 80 -33.5 118t-91.5 38q-64 0 -108.5 -52t-44.5 -148v-256h-48z"/>
<glyph glyph-name="n" horiz-adv-x="552" unicode="n" d="M84 0v488h45v-95h3q21 52 66 78.5t102 26.5q78 0 126 -47.5t48 -148.5v-302h-48v296q0 160 -134 160q-69 0 -114.5 -52t-45.5 -147v-257h-48z"/>
<glyph glyph-name="o" horiz-adv-x="540" unicode="o" d="M96 244q0 -96 48.5 -154t125.5 -58q75 0 124.5 58t49.5 154q0 97 -48.5 154.5t-125.5 57.5q-75 0 -124.5 -58t-49.5 -154zM46 244q0 115 63.5 184.5t160.5 69.5q101 0 162.5 -68.5t61.5 -185.5q0 -115 -63.5 -184.5t-160.5 -69.5q-101 0 -162.5 68.5t-61.5 185.5z"/>
<glyph glyph-name="p" d="M472 248q0 96 -48.5 152t-121.5 56q-72 0 -120 -54.5t-50 -147.5v-10q0 -97 48 -154.5t122 -57.5q73 0 121.5 59.5t48.5 156.5zM132 -94v-126h-48v708h45v-105h2q23 55 70.5 85t109.5 30q92 0 151.5 -68t59.5 -182t-61.5 -186t-152.5 -72q-62 0 -108 29.5t-69 85.5h-2 q3 -46 3 -199z" unicode="p"/>
<glyph glyph-name="q" horiz-adv-x="566" unicode="q" d="M96 240q0 -96 48 -152t121 -56q72 0 120 54.5t51 147.5v20q-3 93 -51 147.5t-119 54.5q-73 0 -121.5 -59.5t-48.5 -156.5zM436 -95q0 153 3 200h-3q-23 -55 -70.5 -85t-108.5 -30q-92 0 -151.5 68t-59.5 182t61.5 186t153.5 72q61 0 107 -30t68 -85h3v105h45v-708h-48 v125z"/>
<glyph glyph-name="r" horiz-adv-x="340" unicode="r" d="M84 0v488h45v-90h3q17 45 52.5 72.5t82.5 27.5q39 0 69 -19l-16 -43q-28 16 -62 16q-58 0 -92 -53t-34 -130v-269h-48z"/>
<glyph glyph-name="s" horiz-adv-x="462" unicode="s" d="M40 140h45q0 -57 40.5 -84.5t101.5 -27.5q65 0 102 26t37 78q0 40 -22.5 59.5t-73.5 29.5l-88 16q-60 11 -95.5 37t-35.5 84q0 65 49.5 102.5t127.5 37.5q75 0 125 -37.5t50 -108.5h-45q0 52 -36.5 80t-93.5 28q-58 0 -94 -26t-36 -72q0 -38 24.5 -57t73.5 -28l88 -16 q65 -12 97.5 -40t32.5 -87q0 -71 -51.5 -107.5t-134.5 -36.5q-86 0 -137 38t-51 112z"/>
<glyph glyph-name="t" horiz-adv-x="307" unicode="t" d="M96 136v313h-100v39h100v148h48v-148h139v-39h-139v-311q0 -53 21 -75t67 -22h51v-41h-57q-66 0 -98 32.5t-32 103.5z"/>
<glyph glyph-name="u" horiz-adv-x="545" unicode="u" d="M76 186v302h48v-296q0 -160 133 -160q68 0 112.5 52.5t44.5 147.5v256h48v-488h-46v95h-2q-22 -52 -66.5 -78.5t-99.5 -26.5q-77 0 -124.5 47.5t-47.5 148.5z"/>
<glyph glyph-name="v" horiz-adv-x="452" unicode="v" d="M201 0l-188 488h51l163 -436h2l163 436h48l-187 -488h-52z"/>
<glyph glyph-name="w" horiz-adv-x="698" unicode="w" d="M161 0l-148 488h49l127 -437h2l132 437h55l131 -437h2l127 437h47l-148 -488h-58l-128 440h-3l-129 -440h-58z"/>
<glyph glyph-name="x" horiz-adv-x="434" unicode="x" d="M16 0l175 244l-173 244h57l144 -206l145 206h52l-173 -243l175 -245h-57l-146 208l-146 -208h-53z"/>
<glyph glyph-name="y" horiz-adv-x="452" unicode="y" d="M33 -185h22q46 0 75 27.5t50 81.5l25 67l-192 497h51l163 -436h2l163 436h48l-221 -578q-24 -63 -59.5 -99.5t-96.5 -36.5h-30v41z"/>
<glyph glyph-name="z" horiz-adv-x="422" unicode="z" d="M30 449v39h358v-32l-294 -417h298v-39h-358v28l296 421h-300z"/>
<glyph glyph-name="braceleft" horiz-adv-x="360" unicode="{" d="M152 -80v201q0 63 -24 89.5t-86 34.5v33q62 8 86 34.5t24 89.5v194q0 148 142 148h46v-38h-44q-100 0 -100 -108v-208q0 -54 -24 -83.5t-77 -44.5v-2q54 -15 77.5 -44t23.5 -84v-214q0 -108 100 -108h44v-38h-46q-142 0 -142 148z"/>
<glyph glyph-name="bar" horiz-adv-x="256" unicode="|" d="M106 -240v1000h44v-1000h-44z"/>
<glyph glyph-name="braceright" horiz-adv-x="360" unicode="}" d="M20 -190h44q100 0 100 108v214q0 55 24 84t77 44v2q-54 15 -77.5 44.5t-23.5 83.5v208q0 108 -100 108h-44v38h46q142 0 142 -148v-194q0 -63 24 -89.5t86 -34.5v-33q-62 -8 -86 -34.5t-24 -89.5v-201q0 -148 -142 -148h-46v38z"/>
<glyph glyph-name="asciitilde" d="M70 188q0 65 30.5 99.5t79.5 34.5q37 0 74 -22t71 -44.5t63 -22.5q68 0 68 93h42q0 -65 -30 -99.5t-78 -34.5q-37 0 -74.5 22.5t-72 45t-63.5 22.5q-68 0 -68 -94h-42z" unicode="~"/>
<glyph glyph-name="uni00A0" horiz-adv-x="212" unicode=" "/>
<glyph glyph-name="exclamdown" horiz-adv-x="232" unicode="¡" d="M89 -24l12 326h29l13 -326v-176h-54v176zM89 392v96h54v-96h-54z"/>
<glyph glyph-name="cent" d="M272 -10v106q-93 8 -150.5 76.5t-57.5 175.5q0 105 59.5 174.5t150.5 77.5v98h48v-99q76 -7 125 -51.5t59 -117.5h-48q-11 61 -53 95.5t-109 34.5q-79 0 -130.5 -59t-51.5 -153t51.5 -153t130.5 -59q67 0 109 34.5t53 95.5h48q-10 -73 -60 -118.5t-126 -51.5v-106h-48z " unicode="¢"/>
<glyph glyph-name="sterling" d="M109 20q66 0 90 90q-50 38 -89 38q-29 0 -47.5 -19t-18.5 -46q0 -28 17 -45.5t48 -17.5zM68 339v34h95q-41 96 -41 151q0 79 49 126.5t133 47.5q80 0 126 -45t50 -131h-46q-7 136 -132 136q-60 0 -96 -35t-36 -95q0 -51 44 -155h182v-34h-170q30 -73 30 -123 q0 -47 -11 -93q7 -6 25.5 -21t27.5 -22t25 -18t27.5 -16t26.5 -9.5t29 -4.5q34 0 54.5 20t27.5 46t10 66h42q-3 -34 -9.5 -60t-20.5 -54.5t-41 -44t-65 -15.5q-16 0 -33 5t-28.5 10t-30.5 18t-26.5 18.5t-29 23.5t-26.5 22q-36 -97 -122 -97q-45 0 -71.5 25.5t-26.5 64.5 q0 44 29 72t75 28q37 0 92 -34q4 24 4 54q0 53 -35 139h-107z" unicode="£"/>
<glyph glyph-name="currency" d="M284 215q53 0 88.5 37t35.5 92t-35.5 92t-88.5 37t-88.5 -37t-35.5 -92t35.5 -92t88.5 -37zM121 156l-24 25l59 60q-36 48 -36 103q0 59 37 104l-59 60l24 25l59 -61q42 36 103 36q58 0 102 -36l59 61l24 -25l-59 -59q38 -48 38 -105q0 -56 -38 -104l60 -59l-24 -25 l-59 60q-42 -36 -103 -36t-104 37z" unicode="¤"/>
<glyph glyph-name="yen" d="M94 265v32h166v1l-236 390h54l207 -345h2l207 345h50l-236 -391h166v-32h-166v-100h166v-32h-166v-133h-48v133h-166v32h166v100h-166z" unicode="¥"/>
<glyph glyph-name="brokenbar" horiz-adv-x="256" unicode="¦" d="M106 -164v352h44v-352h-44zM106 336v352h44v-352h-44z"/>
<glyph glyph-name="section" horiz-adv-x="548" unicode="§" d="M318 357l-69 20q-62 -7 -101.5 -43t-39.5 -90q0 -53 29 -81t93 -48l64 -19q64 6 105 42t41 91q0 52 -29 80.5t-93 47.5zM68 -72h46q4 -58 47 -88t107 -30q66 0 108 33t42 85q0 49 -29.5 75t-84.5 43l-92 28q-78 24 -114 62t-36 102q0 60 39 101.5t101 54.5q-56 21 -88 54 t-32 92q0 72 56.5 116t141.5 44t140.5 -39t59.5 -116h-46q-4 58 -47 88t-107 30q-66 0 -108 -33.5t-42 -85.5q0 -49 29.5 -74.5t84.5 -42.5l92 -28q77 -24 113.5 -62.5t36.5 -102.5q0 -60 -39.5 -101.5t-100.5 -54.5q120 -42 120 -146q0 -71 -56.5 -115t-141.5 -44 t-140.5 38.5t-59.5 116.5z"/>
<glyph glyph-name="dieresis" horiz-adv-x="540" unicode="¨" d="M150 606v88h48v-88h-48zM344 606v88h48v-88h-48z"/>
<glyph glyph-name="copyright" horiz-adv-x="776" unicode="©" d="M222 348q0 77 46 126t120 49q61 0 99 -32t48 -86h-39q-20 85 -108 85q-56 0 -91 -41t-35 -101t35.5 -101t90.5 -41q88 0 108 85h39q-10 -54 -48.5 -86t-99.5 -32q-74 0 -119.5 49t-45.5 126zM80 348q0 -136 87 -230t221 -94t221 94t87 230q0 135 -86.5 224.5t-221.5 89.5 t-221.5 -89.5t-86.5 -224.5zM40 348q0 150 98 250t250 100q149 0 248.5 -100.5t99.5 -249.5q0 -151 -98.5 -254.5t-249.5 -103.5t-249.5 103.5t-98.5 254.5z"/>
<glyph glyph-name="ordfeminine" horiz-adv-x="375" unicode="ª" d="M275 492v38q-10 -14 -38 -17l-82 -11q-73 -9 -73 -68q0 -30 20 -47.5t56 -17.5q51 0 84 31.5t33 91.5zM38 431q0 85 107 100l86 12q27 3 35.5 9.5t8.5 23.5q0 40 -23 63t-64 23q-39 0 -65 -21t-30 -61h-41q4 57 42 86t94 29q61 0 96 -31t35 -91v-229h-42v58h-2 q-16 -30 -49 -47.5t-78 -17.5q-51 0 -80.5 26t-29.5 68z"/>
<glyph glyph-name="guillemotleft" horiz-adv-x="498" unicode="«" d="M205 48l-147 204l147 204h39l-132 -204l132 -204h-39zM254 252l147 204h39l-132 -204l132 -204h-39z"/>
<glyph glyph-name="logicalnot" d="M58 233v41h452v-246h-44v205h-408z" unicode="¬"/>
<glyph glyph-name="uni00AD" horiz-adv-x="396" unicode="­" d="M60 230v44h276v-44h-276z"/>
<glyph glyph-name="registered" horiz-adv-x="776" unicode="®" d="M412 486h-114v-139h114q38 0 58 19.5t20 51.5q0 31 -20 49.5t-58 18.5zM258 176v344h155q57 0 87 -27.5t30 -74.5q0 -38 -23.5 -66t-63.5 -36l93 -140h-44l-89 137h-105v-137h-40zM81 348q0 -136 86.5 -230t220.5 -94t220.5 94t86.5 230q0 135 -86 224.5t-221 89.5 t-221 -89.5t-86 -224.5zM40 348q0 150 98 250t250 100q149 0 248.5 -100.5t99.5 -249.5q0 -151 -98.5 -254.5t-249.5 -103.5t-249.5 103.5t-98.5 254.5z"/>
<glyph glyph-name="macron" horiz-adv-x="540" unicode="¯" d="M132 631v36h276v-36h-276z"/>
<glyph glyph-name="degree" horiz-adv-x="352" unicode="°" d="M176 663q-42 0 -69 -29t-27 -71t27 -71t69 -29t69 29t27 71t-27 71t-69 29zM176 427q-58 0 -97 39t-39 97q0 57 39 96t97 39t97 -39t39 -96q0 -58 -39 -97t-97 -39z"/>
<glyph glyph-name="plusminus" d="M58 0v41h452v-41h-452zM58 294v41h204v192h44v-192h204v-41h-204v-190h-44v190h-204z" unicode="±"/>
<glyph glyph-name="twosuperior" horiz-adv-x="352" unicode="²" d="M45 496q1 62 28 95.5t79 59.5l34 17q26 13 40 22t26 24t12 32q0 31 -21.5 48.5t-62.5 17.5t-68 -21.5t-28 -66.5h-40q2 63 41 92.5t95 29.5q57 0 91.5 -26t34.5 -73q0 -21 -7.5 -37.5t-25 -30.5t-30.5 -21t-39 -20l-34 -17q-75 -37 -76 -89h216v-36h-265z"/>
<glyph glyph-name="threesuperior" horiz-adv-x="352" unicode="³" d="M41 596h40q0 -37 26 -56t69 -19t69 17.5t26 51.5q0 33 -25.5 52t-67.5 19h-32v29h32q37 0 60 16.5t23 46.5q0 29 -24.5 45.5t-60.5 16.5q-38 0 -62.5 -19.5t-24.5 -54.5h-40q0 51 36 78.5t93 27.5q53 0 88.5 -25t35.5 -66q0 -30 -17.5 -51.5t-48.5 -28.5 q35 -7 56.5 -31.5t21.5 -58.5q0 -46 -37 -71.5t-101 -25.5q-62 0 -98.5 26t-36.5 81z"/>
<glyph glyph-name="acute" horiz-adv-x="540" unicode="´" d="M251 568l107 164h57l-128 -164h-36z"/>
<glyph glyph-name="mu" horiz-adv-x="556" unicode="µ" d="M425 0v95h-2q-22 -52 -66.5 -78.5t-99.5 -26.5q-85 0 -128 55q4 -110 4 -188v-77h-48v708h48v-296q0 -160 133 -160q68 0 112.5 52.5t44.5 151.5v252h48v-488h-46z"/>
<glyph glyph-name="paragraph" horiz-adv-x="582" unicode="¶" d="M278 0v277q-104 4 -163 60t-59 145q0 94 63 150t173 56h34v-688h-48zM432 0v688h48v-688h-48z"/>
<glyph glyph-name="periodcentered" horiz-adv-x="224" unicode="·" d="M82 200v104h60v-104h-60z"/>
<glyph glyph-name="cedilla" horiz-adv-x="540" unicode="¸" d="M232 -72l28 72h20l-11 -44q44 -1 67.5 -24.5t23.5 -56.5q0 -37 -25.5 -62t-76.5 -25h-50v32h48q66 0 66 55q0 24 -17.5 38.5t-50.5 14.5h-22z"/>
<glyph glyph-name="onesuperior" horiz-adv-x="352" unicode="¹" d="M70 731l-18 31l133 78h27v-308h104v-36h-258v36h112v257z"/>
<glyph glyph-name="ordmasculine" horiz-adv-x="401" unicode="º" d="M81 516q0 -64 33 -103t87 -39q52 0 85.5 39.5t33.5 102.5q0 64 -33 103t-86 39q-52 0 -86 -39t-34 -103zM36 516q0 80 46.5 129.5t118.5 49.5q74 0 119 -49t45 -130q0 -80 -46 -129t-118 -49q-75 0 -120 49t-45 129z"/>
<glyph glyph-name="guillemotright" horiz-adv-x="498" unicode="»" d="M58 48l132 204l-132 204h39l147 -204l-147 -204h-39zM254 48l132 204l-132 204h39l147 -204l-147 -204h-39z"/>
<glyph glyph-name="onequarter" horiz-adv-x="752" unicode="¼" d="M477 116h143v173zM430 82v28l197 236h36v-230h57v-34h-57v-82h-43v82h-190zM214 -12l349 712h39l-349 -712h-39zM70 579l-18 31l133 78h27v-308h104v-36h-258v36h112v257z"/>
<glyph glyph-name="onehalf" horiz-adv-x="752" unicode="½" d="M445 0q1 62 28 95.5t79 59.5l34 17q26 13 40 22t26 24t12 32q0 31 -21.5 48.5t-62.5 17.5t-68 -21.5t-28 -66.5h-40q2 63 41 92.5t95 29.5q57 0 91.5 -26t34.5 -73q0 -21 -7.5 -37.5t-25 -30.5t-31 -21.5t-38.5 -19.5l-34 -17q-75 -37 -76 -89h216v-36h-265zM202 -12 l349 712h39l-349 -712h-39zM70 579l-18 31l133 78h27v-308h104v-36h-258v36h112v257z"/>
<glyph glyph-name="threequarters" horiz-adv-x="752" unicode="¾" d="M477 116h143v173zM430 82v28l197 236h36v-230h57v-34h-57v-82h-43v82h-190zM206 -12l349 712h39l-349 -712h-39zM41 444h40q0 -37 26 -56t69 -19t69 17.5t26 51.5q0 33 -25.5 52t-67.5 19h-32v29h32q37 0 60 16.5t23 46.5q0 29 -24.5 45.5t-60.5 16.5q-38 0 -62.5 -19.5 t-24.5 -54.5h-40q0 51 36 78.5t93 27.5q53 0 88.5 -25t35.5 -66q0 -30 -17.5 -51.5t-48.5 -28.5q35 -7 56.5 -31.5t21.5 -58.5q0 -46 -37 -71.5t-101 -25.5q-62 0 -98.5 26t-36.5 81z"/>
<glyph glyph-name="questiondown" horiz-adv-x="466" unicode="¿" d="M266 487v-95h-56v95h56zM261 291v-28q0 -58 -21.5 -94.5t-59.5 -66.5l-24 -21q-34 -27 -51 -53.5t-17 -68.5q0 -58 39 -93t101 -35q73 0 114.5 45t41.5 124h48q0 -95 -54.5 -152.5t-149.5 -57.5q-83 0 -136.5 45t-53.5 122q0 52 21 85.5t60 64.5l24 21q71 56 71 130v33 h47z"/>
<glyph glyph-name="Agrave" horiz-adv-x="618" unicode="À" d="M291 768l-128 164h57l107 -164h-36zM309 636h-2l-142 -378h286zM18 0l262 688h58l262 -688h-52l-81 215h-318l-81 -215h-50z"/>
<glyph glyph-name="Aacute" horiz-adv-x="618" unicode="Á" d="M289 768l107 164h57l-128 -164h-36zM309 636h-2l-142 -378h286zM18 0l262 688h58l262 -688h-52l-81 215h-318l-81 -215h-50z"/>
<glyph glyph-name="Acircumflex" horiz-adv-x="618" unicode="Â" d="M157 768l129 164h44l129 -164h-47l-104 135l-104 -135h-47zM309 636h-2l-142 -378h286zM18 0l262 688h58l262 -688h-52l-81 215h-318l-81 -215h-50z"/>
<glyph glyph-name="Atilde" horiz-adv-x="618" unicode="Ã" d="M162 768q2 39 22 64.5t56 25.5q28 0 76 -27.5t66 -27.5q40 0 48 57h28q-2 -38 -22.5 -64t-55.5 -26q-29 0 -76.5 27.5t-65.5 27.5q-40 0 -48 -57h-28zM309 636h-2l-142 -378h286zM18 0l262 688h58l262 -688h-52l-81 215h-318l-81 -215h-50z"/>
<glyph glyph-name="Adieresis" horiz-adv-x="618" unicode="Ä" d="M188 768v88h48v-88h-48zM382 768v88h48v-88h-48zM309 636h-2l-142 -378h286zM18 0l262 688h58l262 -688h-52l-81 215h-318l-81 -215h-50z"/>
<glyph glyph-name="Aring" horiz-adv-x="618" unicode="Å" d="M308 797q25 0 44 17.5t19 45.5t-19 45.5t-44 17.5t-44 -17.5t-19 -45.5t19 -45.5t44 -17.5zM308 770q-36 0 -64 25.5t-28 64.5q0 40 28 65t64 25t64 -25t28 -65q0 -39 -28 -64.5t-64 -25.5zM309 636h-2l-142 -378h286zM18 0l262 688h58l262 -688h-52l-81 215h-318 l-81 -215h-50z"/>
<glyph glyph-name="AE" horiz-adv-x="1038" unicode="Æ" d="M533 633l-309 -421h309v421zM10 0l506 688h464v-43h-398v-272h322v-43h-322v-287h406v-43h-455v169h-340l-124 -169h-59z"/>
<glyph glyph-name="Ccedilla" horiz-adv-x="704" unicode="Ç" d="M332 -72l24 63q-136 5 -221 105t-85 248q0 151 89.5 252.5t232.5 101.5q113 0 187 -59t99 -159h-51q-24 81 -83.5 126.5t-151.5 45.5q-121 0 -195.5 -88t-74.5 -220q0 -130 74.5 -219t193.5 -89q183 0 237 172h51q-26 -98 -98.5 -157t-182.5 -61l-8 -34q44 -1 67.5 -24.5 t23.5 -56.5q0 -37 -25.5 -62t-76.5 -25h-50v32h48q66 0 66 55q0 24 -17.5 38.5t-50.5 14.5h-22z"/>
<glyph glyph-name="Egrave" horiz-adv-x="600" unicode="È" d="M303 768l-128 164h57l107 -164h-36zM94 0v688h448v-43h-398v-272h322v-43h-322v-287h406v-43h-456z"/>
<glyph glyph-name="Eacute" horiz-adv-x="600" unicode="É" d="M301 768l107 164h57l-128 -164h-36zM94 0v688h448v-43h-398v-272h322v-43h-322v-287h406v-43h-456z"/>
<glyph glyph-name="Ecircumflex" horiz-adv-x="600" unicode="Ê" d="M169 768l129 164h44l129 -164h-47l-104 135l-104 -135h-47zM94 0v688h448v-43h-398v-272h322v-43h-322v-287h406v-43h-456z"/>
<glyph glyph-name="Edieresis" horiz-adv-x="600" unicode="Ë" d="M200 768v88h48v-88h-48zM394 768v88h48v-88h-48zM94 0v688h448v-43h-398v-272h322v-43h-322v-287h406v-43h-456z"/>
<glyph glyph-name="Igrave" horiz-adv-x="238" unicode="Ì" d="M102 768l-128 164h57l107 -164h-36zM94 0v688h50v-688h-50z"/>
<glyph glyph-name="Iacute" horiz-adv-x="238" unicode="Í" d="M100 768l107 164h57l-128 -164h-36zM94 0v688h50v-688h-50z"/>
<glyph glyph-name="Icircumflex" horiz-adv-x="238" unicode="Î" d="M-32 768l129 164h44l129 -164h-47l-104 135l-104 -135h-47zM94 0v688h50v-688h-50z"/>
<glyph glyph-name="Idieresis" horiz-adv-x="238" unicode="Ï" d="M-1 768v88h48v-88h-48zM193 768v88h48v-88h-48zM94 0v688h50v-688h-50z"/>
<glyph glyph-name="Eth" horiz-adv-x="688" unicode="Ð" d="M276 645h-132v-279h164v-41h-164v-282h132q155 0 232.5 83.5t77.5 217.5t-77.5 217.5t-232.5 83.5zM4 325v41h90v322h182q175 0 268.5 -94.5t93.5 -249.5t-93.5 -249.5t-268.5 -94.5h-182v325h-90z"/>
<glyph glyph-name="Ntilde" horiz-adv-x="710" unicode="Ñ" d="M209 768q2 39 22 64.5t56 25.5q28 0 76 -27.5t66 -27.5q40 0 48 57h28q-2 -38 -22.5 -64t-55.5 -26q-29 0 -76.5 27.5t-65.5 27.5q-40 0 -48 -57h-28zM94 0v688h48l424 -604h2l-2 604h50v-688h-48l-424 602h-2l2 -602h-50z"/>
<glyph glyph-name="Ograve" horiz-adv-x="756" unicode="Ò" d="M361 768l-128 164h57l107 -164h-36zM102 344q0 -133 77 -220.5t199 -87.5q121 0 198.5 87.5t77.5 220.5t-77.5 220.5t-198.5 87.5q-122 0 -199 -87.5t-77 -220.5zM50 344q0 154 91 254t237 100q143 0 235.5 -100.5t92.5 -253.5q0 -152 -92.5 -253t-235.5 -101 q-145 0 -236.5 100.5t-91.5 253.5z"/>
<glyph glyph-name="Oacute" horiz-adv-x="756" unicode="Ó" d="M359 768l107 164h57l-128 -164h-36zM102 344q0 -133 77 -220.5t199 -87.5q121 0 198.5 87.5t77.5 220.5t-77.5 220.5t-198.5 87.5q-122 0 -199 -87.5t-77 -220.5zM50 344q0 154 91 254t237 100q143 0 235.5 -100.5t92.5 -253.5q0 -152 -92.5 -253t-235.5 -101 q-145 0 -236.5 100.5t-91.5 253.5z"/>
<glyph glyph-name="Ocircumflex" horiz-adv-x="756" unicode="Ô" d="M227 768l129 164h44l129 -164h-47l-104 135l-104 -135h-47zM102 344q0 -133 77 -220.5t199 -87.5q121 0 198.5 87.5t77.5 220.5t-77.5 220.5t-198.5 87.5q-122 0 -199 -87.5t-77 -220.5zM50 344q0 154 91 254t237 100q143 0 235.5 -100.5t92.5 -253.5q0 -152 -92.5 -253 t-235.5 -101q-145 0 -236.5 100.5t-91.5 253.5z"/>
<glyph glyph-name="Otilde" horiz-adv-x="756" unicode="Õ" d="M232 768q2 39 22 64.5t56 25.5q28 0 76 -27.5t66 -27.5q40 0 48 57h28q-2 -38 -22.5 -64t-55.5 -26q-29 0 -76.5 27.5t-65.5 27.5q-40 0 -48 -57h-28zM102 344q0 -133 77 -220.5t199 -87.5q121 0 198.5 87.5t77.5 220.5t-77.5 220.5t-198.5 87.5q-122 0 -199 -87.5 t-77 -220.5zM50 344q0 154 91 254t237 100q143 0 235.5 -100.5t92.5 -253.5q0 -152 -92.5 -253t-235.5 -101q-145 0 -236.5 100.5t-91.5 253.5z"/>
<glyph glyph-name="Odieresis" horiz-adv-x="756" unicode="Ö" d="M258 768v88h48v-88h-48zM452 768v88h48v-88h-48zM102 344q0 -133 77 -220.5t199 -87.5q121 0 198.5 87.5t77.5 220.5t-77.5 220.5t-198.5 87.5q-122 0 -199 -87.5t-77 -220.5zM50 344q0 154 91 254t237 100q143 0 235.5 -100.5t92.5 -253.5q0 -152 -92.5 -253 t-235.5 -101q-145 0 -236.5 100.5t-91.5 253.5z"/>
<glyph glyph-name="multiply" d="M89 425l29 29l167 -169l168 169l28 -29l-167 -169l168 -170l-29 -29l-168 169l-168 -169l-28 29l167 169z" unicode="×"/>
<glyph glyph-name="Oslash" horiz-adv-x="756" unicode="Ø" d="M102 344q0 -134 76 -219l376 461q-74 66 -176 66q-122 0 -199 -87.5t-77 -220.5zM654 344q0 132 -77 218l-376 -460q72 -66 177 -66q121 0 198.5 87.5t77.5 220.5zM66 -12l80 98q-96 101 -96 258q0 153 92 253.5t236 100.5q116 0 206 -75l64 77h42l-81 -100 q97 -102 97 -256q0 -152 -93.5 -253t-234.5 -101q-120 0 -207 74l-63 -76h-42z"/>
<glyph glyph-name="Ugrave" horiz-adv-x="680" unicode="Ù" d="M323 768l-128 164h57l107 -164h-36zM80 270v418h50v-418q0 -115 55 -175t155 -60t155 60t55 175v418h50v-418q0 -142 -69.5 -211t-190.5 -69q-120 0 -190 69.5t-70 210.5z"/>
<glyph glyph-name="Uacute" horiz-adv-x="680" unicode="Ú" d="M321 768l107 164h57l-128 -164h-36zM80 270v418h50v-418q0 -115 55 -175t155 -60t155 60t55 175v418h50v-418q0 -142 -69.5 -211t-190.5 -69q-120 0 -190 69.5t-70 210.5z"/>
<glyph glyph-name="Ucircumflex" horiz-adv-x="680" unicode="Û" d="M189 768l129 164h44l129 -164h-47l-104 135l-104 -135h-47zM80 270v418h50v-418q0 -115 55 -175t155 -60t155 60t55 175v418h50v-418q0 -142 -69.5 -211t-190.5 -69q-120 0 -190 69.5t-70 210.5z"/>
<glyph glyph-name="Udieresis" horiz-adv-x="680" unicode="Ü" d="M220 768v88h48v-88h-48zM414 768v88h48v-88h-48zM80 270v418h50v-418q0 -115 55 -175t155 -60t155 60t55 175v418h50v-418q0 -142 -69.5 -211t-190.5 -69q-120 0 -190 69.5t-70 210.5z"/>
<glyph glyph-name="Yacute" horiz-adv-x="580" unicode="Ý" d="M271 768l107 164h57l-128 -164h-36zM264 0v278l-250 410h56l219 -358h2l222 358h53l-252 -406v-282h-50z"/>
<glyph glyph-name="Thorn" horiz-adv-x="616" unicode="Þ" d="M346 527h-202v-342h202q83 0 128.5 48.5t45.5 124.5t-45.5 122.5t-128.5 46.5zM94 0v688h50v-118h200q107 0 166.5 -58t59.5 -154t-60 -156t-166 -60h-200v-142h-50z"/>
<glyph glyph-name="germandbls" horiz-adv-x="532" unicode="ß" d="M72 0v510q0 117 54 174.5t144 57.5q80 0 123 -39.5t43 -100.5q0 -36 -17.5 -65t-38.5 -44.5t-38.5 -38t-17.5 -46.5q0 -23 17.5 -43t43 -37.5t51 -38t43 -53t17.5 -72.5q0 -78 -52 -121t-130 -43h-74v40h74q57 0 95.5 31t38.5 89q0 35 -17.5 62.5t-42 45.5t-49 35.5 t-42 43t-17.5 57.5t17.5 58.5t38.5 42t38.5 41t17.5 56.5q0 44 -32 72t-92 28q-69 0 -108.5 -47t-39.5 -145v-510h-48z"/>
<glyph glyph-name="agrave" horiz-adv-x="510" unicode="à" d="M236 568l-128 164h57l107 -164h-36zM384 216v63q-13 -20 -61 -28l-113 -18q-56 -9 -83 -33.5t-27 -70.5q0 -44 29 -70.5t81 -26.5q76 0 125 47t49 137zM52 125q0 62 36 95.5t113 46.5l116 19q37 6 52 14.5t15 27.5q0 62 -34.5 96t-95.5 34q-60 0 -97 -31.5t-41 -90.5h-46 q4 75 54 118.5t130 43.5q85 0 131.5 -45.5t46.5 -130.5v-322h-46v94q-22 -46 -69.5 -73.5t-108.5 -27.5q-72 0 -114 36t-42 96z"/>
<glyph glyph-name="aacute" horiz-adv-x="510" unicode="á" d="M234 568l107 164h57l-128 -164h-36zM384 216v63q-13 -20 -61 -28l-113 -18q-56 -9 -83 -33.5t-27 -70.5q0 -44 29 -70.5t81 -26.5q76 0 125 47t49 137zM52 125q0 62 36 95.5t113 46.5l116 19q37 6 52 14.5t15 27.5q0 62 -34.5 96t-95.5 34q-60 0 -97 -31.5t-41 -90.5h-46 q4 75 54 118.5t130 43.5q85 0 131.5 -45.5t46.5 -130.5v-322h-46v94q-22 -46 -69.5 -73.5t-108.5 -27.5q-72 0 -114 36t-42 96z"/>
<glyph glyph-name="acircumflex" horiz-adv-x="510" unicode="â" d="M102 568l129 164h44l129 -164h-47l-104 135l-104 -135h-47zM384 216v63q-13 -20 -61 -28l-113 -18q-56 -9 -83 -33.5t-27 -70.5q0 -44 29 -70.5t81 -26.5q76 0 125 47t49 137zM52 125q0 62 36 95.5t113 46.5l116 19q37 6 52 14.5t15 27.5q0 62 -34.5 96t-95.5 34 q-60 0 -97 -31.5t-41 -90.5h-46q4 75 54 118.5t130 43.5q85 0 131.5 -45.5t46.5 -130.5v-322h-46v94q-22 -46 -69.5 -73.5t-108.5 -27.5q-72 0 -114 36t-42 96z"/>
<glyph glyph-name="atilde" horiz-adv-x="510" unicode="ã" d="M107 604q2 39 22 64.5t56 25.5q28 0 76 -27.5t66 -27.5q40 0 48 57h28q-2 -38 -22.5 -64t-55.5 -26q-29 0 -76.5 27.5t-65.5 27.5q-40 0 -48 -57h-28zM384 216v63q-13 -20 -61 -28l-113 -18q-56 -9 -83 -33.5t-27 -70.5q0 -44 29 -70.5t81 -26.5q76 0 125 47t49 137z M52 125q0 62 36 95.5t113 46.5l116 19q37 6 52 14.5t15 27.5q0 62 -34.5 96t-95.5 34q-60 0 -97 -31.5t-41 -90.5h-46q4 75 54 118.5t130 43.5q85 0 131.5 -45.5t46.5 -130.5v-322h-46v94q-22 -46 -69.5 -73.5t-108.5 -27.5q-72 0 -114 36t-42 96z"/>
<glyph glyph-name="adieresis" horiz-adv-x="510" unicode="ä" d="M133 606v88h48v-88h-48zM327 606v88h48v-88h-48zM384 216v63q-13 -20 -61 -28l-113 -18q-56 -9 -83 -33.5t-27 -70.5q0 -44 29 -70.5t81 -26.5q76 0 125 47t49 137zM52 125q0 62 36 95.5t113 46.5l116 19q37 6 52 14.5t15 27.5q0 62 -34.5 96t-95.5 34q-60 0 -97 -31.5 t-41 -90.5h-46q4 75 54 118.5t130 43.5q85 0 131.5 -45.5t46.5 -130.5v-322h-46v94q-22 -46 -69.5 -73.5t-108.5 -27.5q-72 0 -114 36t-42 96z"/>
<glyph glyph-name="aring" horiz-adv-x="510" unicode="å" d="M253 597q25 0 44 17.5t19 45.5t-19 45.5t-44 17.5t-44 -17.5t-19 -45.5t19 -45.5t44 -17.5zM253 570q-36 0 -64 25.5t-28 64.5q0 40 28 65t64 25t64 -25t28 -65q0 -39 -28 -64.5t-64 -25.5zM384 216v63q-13 -20 -61 -28l-113 -18q-56 -9 -83 -33.5t-27 -70.5 q0 -44 29 -70.5t81 -26.5q76 0 125 47t49 137zM52 125q0 62 36 95.5t113 46.5l116 19q37 6 52 14.5t15 27.5q0 62 -34.5 96t-95.5 34q-60 0 -97 -31.5t-41 -90.5h-46q4 75 54 118.5t130 43.5q85 0 131.5 -45.5t46.5 -130.5v-322h-46v94q-22 -46 -69.5 -73.5t-108.5 -27.5 q-72 0 -114 36t-42 96z"/>
<glyph glyph-name="ae" horiz-adv-x="844" unicode="æ" d="M598 456q-64 0 -109 -48t-53 -126h312q-2 81 -44.5 127.5t-105.5 46.5zM214 30q74 0 122 46.5t48 137.5v64q-15 -19 -61 -27l-113 -18q-56 -9 -83 -34.5t-27 -70.5t30.5 -71.5t83.5 -26.5zM70 336q6 80 57 121t127 41q67 0 110 -32t54 -95q23 59 70.5 93t109.5 34 q87 0 143.5 -62.5t56.5 -169.5v-21h-364v-12q2 -92 47.5 -146.5t120.5 -54.5q59 0 97.5 32t46.5 84h48q-10 -69 -63.5 -113.5t-128.5 -44.5q-71 0 -120.5 35.5t-72.5 99.5q-23 -66 -77 -100.5t-122 -34.5q-73 0 -115.5 37t-42.5 97q0 62 36.5 96.5t112.5 46.5l116 19 q37 6 52 14t15 27q0 63 -34 97t-96 34q-58 0 -96 -31t-42 -91h-46z"/>
<glyph glyph-name="ccedilla" horiz-adv-x="506" unicode="ç" d="M228 -72l24 63q-94 4 -150 73.5t-56 179.5q0 113 62.5 183.5t157.5 70.5q81 0 133 -46.5t65 -125.5h-48q-12 61 -51 95.5t-99 34.5q-73 0 -121.5 -59.5t-48.5 -152.5q0 -94 47 -153t123 -59q59 0 98.5 34.5t51.5 95.5h48q-13 -77 -63.5 -123t-125.5 -48l-11 -35 q44 -1 68 -24.5t24 -56.5q0 -37 -25.5 -62t-76.5 -25h-50v31h48q66 0 66 56q0 24 -17.5 38.5t-50.5 14.5h-22z"/>
<glyph glyph-name="egrave" horiz-adv-x="514" unicode="è" d="M247 568l-128 164h57l107 -164h-36zM264 456q-66 0 -111.5 -47.5t-54.5 -126.5h321q-3 84 -45 129t-110 45zM46 244q0 112 62 183t156 71q91 0 147.5 -62t56.5 -170v-21h-372v-7q2 -93 47 -149.5t123 -56.5q61 0 101.5 32t48.5 84h48q-10 -69 -64.5 -113.5t-133.5 -44.5 q-104 0 -162 68.5t-58 185.5z"/>
<glyph glyph-name="eacute" horiz-adv-x="514" unicode="é" d="M245 568l107 164h57l-128 -164h-36zM264 456q-66 0 -111.5 -47.5t-54.5 -126.5h321q-3 84 -45 129t-110 45zM46 244q0 112 62 183t156 71q91 0 147.5 -62t56.5 -170v-21h-372v-7q2 -93 47 -149.5t123 -56.5q61 0 101.5 32t48.5 84h48q-10 -69 -64.5 -113.5t-133.5 -44.5 q-104 0 -162 68.5t-58 185.5z"/>
<glyph glyph-name="ecircumflex" horiz-adv-x="514" unicode="ê" d="M113 568l129 164h44l129 -164h-47l-104 135l-104 -135h-47zM264 456q-66 0 -111.5 -47.5t-54.5 -126.5h321q-3 84 -45 129t-110 45zM46 244q0 112 62 183t156 71q91 0 147.5 -62t56.5 -170v-21h-372v-7q2 -93 47 -149.5t123 -56.5q61 0 101.5 32t48.5 84h48 q-10 -69 -64.5 -113.5t-133.5 -44.5q-104 0 -162 68.5t-58 185.5z"/>
<glyph glyph-name="edieresis" horiz-adv-x="514" unicode="ë" d="M144 606v88h48v-88h-48zM338 606v88h48v-88h-48zM264 456q-66 0 -111.5 -47.5t-54.5 -126.5h321q-3 84 -45 129t-110 45zM46 244q0 112 62 183t156 71q91 0 147.5 -62t56.5 -170v-21h-372v-7q2 -93 47 -149.5t123 -56.5q61 0 101.5 32t48.5 84h48q-10 -69 -64.5 -113.5 t-133.5 -44.5q-104 0 -162 68.5t-58 185.5z"/>
<glyph glyph-name="igrave" horiz-adv-x="216" unicode="ì" d="M91 568l-128 164h57l107 -164h-36zM84 0v488h48v-488h-48z"/>
<glyph glyph-name="iacute" horiz-adv-x="216" unicode="í" d="M89 568l107 164h57l-128 -164h-36zM84 0v488h48v-488h-48z"/>
<glyph glyph-name="icircumflex" horiz-adv-x="216" unicode="î" d="M-43 568l129 164h44l129 -164h-47l-104 135l-104 -135h-47zM84 0v488h48v-488h-48z"/>
<glyph glyph-name="idieresis" horiz-adv-x="216" unicode="ï" d="M-12 606v88h48v-88h-48zM182 606v88h48v-88h-48zM84 0v488h48v-488h-48z"/>
<glyph glyph-name="eth" horiz-adv-x="544" unicode="ð" d="M90 228q0 -85 49 -140.5t127 -55.5q75 0 125.5 55t50.5 141q0 88 -49.5 142t-126.5 54q-75 0 -125.5 -55.5t-50.5 -140.5zM184 546l-18 27l107 72q-61 38 -143 63l10 36q102 -29 169 -75l101 68l18 -27l-91 -61q77 -61 116 -154t39 -235v-12q0 -118 -64 -188t-162 -70 q-101 0 -163.5 67t-62.5 171q0 103 64.5 170.5t157.5 67.5q56 0 101.5 -24.5t70.5 -69.5h2q-27 168 -135 253z"/>
<glyph glyph-name="ntilde" horiz-adv-x="552" unicode="ñ" d="M129 604q2 39 22 64.5t56 25.5q28 0 76 -27.5t66 -27.5q40 0 48 57h28q-2 -38 -22.5 -64t-55.5 -26q-29 0 -76.5 27.5t-65.5 27.5q-40 0 -48 -57h-28zM84 0v488h45v-95h3q21 52 66 78.5t102 26.5q78 0 126 -47.5t48 -148.5v-302h-48v296q0 160 -134 160q-69 0 -114.5 -52 t-45.5 -147v-257h-48z"/>
<glyph glyph-name="ograve" horiz-adv-x="540" unicode="ò" d="M253 568l-128 164h57l107 -164h-36zM96 244q0 -96 48.5 -154t125.5 -58q75 0 124.5 58t49.5 154q0 97 -48.5 154.5t-125.5 57.5q-75 0 -124.5 -58t-49.5 -154zM46 244q0 115 63.5 184.5t160.5 69.5q101 0 162.5 -68.5t61.5 -185.5q0 -115 -63.5 -184.5t-160.5 -69.5 q-101 0 -162.5 68.5t-61.5 185.5z"/>
<glyph glyph-name="oacute" horiz-adv-x="540" unicode="ó" d="M251 568l107 164h57l-128 -164h-36zM96 244q0 -96 48.5 -154t125.5 -58q75 0 124.5 58t49.5 154q0 97 -48.5 154.5t-125.5 57.5q-75 0 -124.5 -58t-49.5 -154zM46 244q0 115 63.5 184.5t160.5 69.5q101 0 162.5 -68.5t61.5 -185.5q0 -115 -63.5 -184.5t-160.5 -69.5 q-101 0 -162.5 68.5t-61.5 185.5z"/>
<glyph glyph-name="ocircumflex" horiz-adv-x="540" unicode="ô" d="M119 568l129 164h44l129 -164h-47l-104 135l-104 -135h-47zM96 244q0 -96 48.5 -154t125.5 -58q75 0 124.5 58t49.5 154q0 97 -48.5 154.5t-125.5 57.5q-75 0 -124.5 -58t-49.5 -154zM46 244q0 115 63.5 184.5t160.5 69.5q101 0 162.5 -68.5t61.5 -185.5 q0 -115 -63.5 -184.5t-160.5 -69.5q-101 0 -162.5 68.5t-61.5 185.5z"/>
<glyph glyph-name="otilde" horiz-adv-x="540" unicode="õ" d="M124 604q2 39 22 64.5t56 25.5q28 0 76 -27.5t66 -27.5q40 0 48 57h28q-2 -38 -22.5 -64t-55.5 -26q-29 0 -76.5 27.5t-65.5 27.5q-40 0 -48 -57h-28zM96 244q0 -96 48.5 -154t125.5 -58q75 0 124.5 58t49.5 154q0 97 -48.5 154.5t-125.5 57.5q-75 0 -124.5 -58 t-49.5 -154zM46 244q0 115 63.5 184.5t160.5 69.5q101 0 162.5 -68.5t61.5 -185.5q0 -115 -63.5 -184.5t-160.5 -69.5q-101 0 -162.5 68.5t-61.5 185.5z"/>
<glyph glyph-name="odieresis" horiz-adv-x="540" unicode="ö" d="M150 606v88h48v-88h-48zM344 606v88h48v-88h-48zM96 244q0 -96 48.5 -154t125.5 -58q75 0 124.5 58t49.5 154q0 97 -48.5 154.5t-125.5 57.5q-75 0 -124.5 -58t-49.5 -154zM46 244q0 115 63.5 184.5t160.5 69.5q101 0 162.5 -68.5t61.5 -185.5q0 -115 -63.5 -184.5 t-160.5 -69.5q-101 0 -162.5 68.5t-61.5 185.5z"/>
<glyph glyph-name="divide" d="M258 31v96h52v-96h-52zM58 233v41h452v-41h-452zM258 380v96h52v-96h-52z" unicode="÷"/>
<glyph glyph-name="oslash" horiz-adv-x="540" unicode="ø" d="M444 244q0 87 -41 144l-247 -311q47 -45 114 -45q75 0 124.5 58t49.5 154zM96 244q0 -88 41 -145l247 311q-46 46 -114 46q-75 0 -124.5 -58t-49.5 -154zM48 -12l58 72q-60 71 -60 184q0 115 63.5 184.5t160.5 69.5q85 0 143 -52l43 54h37l-59 -74q60 -68 60 -182 q0 -115 -63.5 -184.5t-160.5 -69.5q-86 0 -143 51l-42 -53h-37z"/>
<glyph glyph-name="ugrave" horiz-adv-x="545" unicode="ù" d="M257 568l-128 164h57l107 -164h-36zM76 186v302h48v-296q0 -160 133 -160q68 0 112.5 52.5t44.5 147.5v256h48v-488h-46v95h-2q-22 -52 -66.5 -78.5t-99.5 -26.5q-77 0 -124.5 47.5t-47.5 148.5z"/>
<glyph glyph-name="uacute" horiz-adv-x="545" unicode="ú" d="M255 568l107 164h57l-128 -164h-36zM76 186v302h48v-296q0 -160 133 -160q68 0 112.5 52.5t44.5 147.5v256h48v-488h-46v95h-2q-22 -52 -66.5 -78.5t-99.5 -26.5q-77 0 -124.5 47.5t-47.5 148.5z"/>
<glyph glyph-name="ucircumflex" horiz-adv-x="545" unicode="û" d="M123 568l129 164h44l129 -164h-47l-104 135l-104 -135h-47zM76 186v302h48v-296q0 -160 133 -160q68 0 112.5 52.5t44.5 147.5v256h48v-488h-46v95h-2q-22 -52 -66.5 -78.5t-99.5 -26.5q-77 0 -124.5 47.5t-47.5 148.5z"/>
<glyph glyph-name="udieresis" horiz-adv-x="545" unicode="ü" d="M154 606v88h48v-88h-48zM348 606v88h48v-88h-48zM76 186v302h48v-296q0 -160 133 -160q68 0 112.5 52.5t44.5 147.5v256h48v-488h-46v95h-2q-22 -52 -66.5 -78.5t-99.5 -26.5q-77 0 -124.5 47.5t-47.5 148.5z"/>
<glyph glyph-name="yacute" horiz-adv-x="452" unicode="ý" d="M206 568l107 164h57l-128 -164h-36zM33 -185h22q46 0 75 27.5t50 81.5l25 67l-192 497h51l163 -436h2l163 436h48l-221 -578q-24 -63 -59.5 -99.5t-96.5 -36.5h-30v41z"/>
<glyph glyph-name="thorn" d="M472 248q0 96 -48.5 152t-121.5 56q-74 0 -122 -57.5t-48 -154.5t48 -154.5t122 -57.5q73 0 121.5 59.5t48.5 156.5zM522 248q0 -114 -61.5 -186t-152.5 -72q-62 0 -108 29.5t-69 85.5h-2q3 -42 3 -199v-126h-48v952h48v-150q0 -152 -3 -199h2q23 55 70.5 85t109.5 30 q92 0 151.5 -68t59.5 -182z" unicode="þ"/>
<glyph glyph-name="OE" horiz-adv-x="1036" unicode="Œ" d="M102 344q0 -134 77.5 -217.5t232.5 -83.5h118v602h-118q-155 0 -232.5 -83.5t-77.5 -217.5zM412 0q-175 0 -268.5 94.5t-93.5 249.5t93.5 249.5t268.5 94.5h566v-43h-398v-272h322v-43h-322v-287h406v-43h-574z"/>
<glyph glyph-name="oe" horiz-adv-x="910" unicode="œ" d="M660 456q-65 0 -110.5 -47.5t-55.5 -126.5h321q-2 84 -44 129t-111 45zM96 244q0 -96 48.5 -154t125.5 -58q75 0 124.5 58t49.5 154q0 97 -49.5 154.5t-124.5 57.5t-124.5 -58t-49.5 -154zM46 244q0 115 63.5 184.5t160.5 69.5q72 0 124.5 -39.5t74.5 -110.5 q21 69 72.5 109.5t118.5 40.5q91 0 147.5 -62t56.5 -170v-21h-372v-12q2 -91 47.5 -146t122.5 -55q61 0 101.5 32t48.5 84h48q-9 -69 -64 -113.5t-134 -44.5q-75 0 -125 39t-71 109q-21 -69 -74.5 -108.5t-121.5 -39.5q-101 0 -162.5 68.5t-61.5 185.5z"/>
<glyph glyph-name="Scaron" horiz-adv-x="628" unicode="Š" d="M288 768l-129 164h47l104 -135l104 135h47l-129 -164h-44zM63 192h49q0 -77 54.5 -118.5t147.5 -41.5q94 0 146 41t52 113q0 67 -45.5 96t-130.5 44l-46 8q-39 7 -65 13t-58 19.5t-50.5 31t-31.5 47t-13 67.5q0 81 65.5 133.5t172.5 52.5t172 -48.5t65 -139.5h-49 q0 71 -52 108.5t-136 37.5q-83 0 -135.5 -38.5t-52.5 -101.5q0 -28 10.5 -50t26 -35.5t41.5 -24t49 -15.5t57 -11l46 -8q48 -8 79.5 -18t65 -29.5t50.5 -54t17 -82.5q0 -90 -66.5 -144t-183.5 -54q-118 0 -184.5 52t-66.5 150z"/>
<glyph glyph-name="scaron" horiz-adv-x="462" unicode="š" d="M206 568l-129 164h47l104 -135l104 135h47l-129 -164h-44zM40 140h45q0 -57 40.5 -84.5t101.5 -27.5q65 0 102 26t37 78q0 40 -22.5 59.5t-73.5 29.5l-88 16q-60 11 -95.5 37t-35.5 84q0 65 49.5 102.5t127.5 37.5q75 0 125 -37.5t50 -108.5h-45q0 52 -36.5 80t-93.5 28 q-58 0 -94 -26t-36 -72q0 -38 24.5 -57t73.5 -28l88 -16q65 -12 97.5 -40t32.5 -87q0 -71 -51.5 -107.5t-134.5 -36.5q-86 0 -137 38t-51 112z"/>
<glyph glyph-name="Ydieresis" horiz-adv-x="580" unicode="Ÿ" d="M170 768v88h48v-88h-48zM364 768v88h48v-88h-48zM264 0v278l-250 410h56l219 -358h2l222 358h53l-252 -406v-282h-50z"/>
<glyph glyph-name="circumflex" horiz-adv-x="540" unicode="ˆ" d="M119 568l129 164h44l129 -164h-47l-104 135l-104 -135h-47z"/>
<glyph glyph-name="tilde" horiz-adv-x="540" unicode="˜" d="M124 604q2 39 22 64.5t56 25.5q28 0 76 -27.5t66 -27.5q40 0 48 57h28q-2 -38 -22.5 -64t-55.5 -26q-29 0 -76.5 27.5t-65.5 27.5q-40 0 -48 -57h-28z"/>
<glyph glyph-name="uni0394" horiz-adv-x="614" unicode="Δ" d="M306 644l-214 -603h427zM30 0l248 688h58l248 -688h-554z"/>
<glyph glyph-name="uni03BC" horiz-adv-x="556" unicode="μ" d="M425 0v95h-2q-22 -52 -66.5 -78.5t-99.5 -26.5q-85 0 -128 55q4 -110 4 -188v-77h-48v708h48v-296q0 -160 133 -160q68 0 112.5 52.5t44.5 151.5v252h48v-488h-46z"/>
<glyph glyph-name="pi" horiz-adv-x="570" unicode="π" d="M88 0v488h394v-488h-48v447h-298v-447h-48z"/>
<glyph glyph-name="endash" horiz-adv-x="556" unicode="–" d="M60 230v44h436v-44h-436z"/>
<glyph glyph-name="emdash" horiz-adv-x="840" unicode="—" d="M60 230v44h720v-44h-720z"/>
<glyph glyph-name="quoteleft" horiz-adv-x="214" unicode="‘" d="M80 436v100l37 152h27l-30 -148h22v-104h-56z"/>
<glyph glyph-name="quotesinglbase" horiz-adv-x="214" unicode="‚" d="M100 0h-22v104h55v-100l-36 -152h-27z"/>
<glyph glyph-name="quotedblleft" horiz-adv-x="378" unicode="“" d="M244 436v100l37 152h27l-30 -148h21v-104h-55zM80 436v100l37 152h27l-30 -148h22v-104h-56z"/>
<glyph glyph-name="quotedblright" horiz-adv-x="378" unicode="”" d="M234 436l30 148h-22v104h56v-100l-37 -152h-27zM70 436l30 148h-22v104h55v-100l-36 -152h-27z"/>
<glyph glyph-name="dagger" horiz-adv-x="420" unicode="†" d="M44 466v40h144v182h44v-182h144v-40h-144v-466h-44v466h-144z"/>
<glyph glyph-name="daggerdbl" horiz-adv-x="420" unicode="‡" d="M44 466v40h144v182h44v-182h144v-40h-144v-246h144v-39h-144v-181h-44v181h-144v39h144v246h-144z"/>
<glyph glyph-name="ellipsis" horiz-adv-x="667" unicode="…" d="M82 0v102h55v-102h-55zM306 0v102h55v-102h-55zM530 0v102h55v-102h-55z"/>
<glyph glyph-name="perthousand" horiz-adv-x="1104" unicode="‰" d="M928 27q48 0 73 39t25 106t-25 106t-73 39q-47 0 -72.5 -39t-25.5 -106t25.5 -106t72.5 -39zM928 -7q-68 0 -104 50t-36 129t36 129t104 50t104 -50t36 -129t-36 -129t-104 -50zM576 27q48 0 73 39t25 106t-25 106t-73 39q-47 0 -72.5 -39t-25.5 -106t25.5 -106t72.5 -39 zM576 -7q-68 0 -104 50t-36 129t36 129t104 50t104 -50t36 -129t-36 -129t-104 -50zM182 -12l349 712h39l-349 -712h-39zM176 371q48 0 73 39t25 106t-25 106t-73 39q-47 0 -72.5 -39t-25.5 -106t25.5 -106t72.5 -39zM176 337q-68 0 -104 50t-36 129t36 129t104 50t104 -50 t36 -129t-36 -129t-104 -50z"/>
<glyph glyph-name="guilsinglleft" horiz-adv-x="302" unicode="‹" d="M205 48l-147 204l147 204h39l-132 -204l132 -204h-39z"/>
<glyph glyph-name="guilsinglright" horiz-adv-x="302" unicode="›" d="M58 48l132 204l-132 204h39l147 -204l-147 -204h-39z"/>
<glyph glyph-name="fraction" horiz-adv-x="48" unicode="⁄" d="M-170 -12l349 712h39l-349 -712h-39z"/>
<glyph glyph-name="Euro" d="M27 411l8 30h64q17 117 78 187t161 70q164 0 204 -188h-46q-36 146 -156 146q-78 0 -127 -57.5t-64 -157.5h222l-9 -30h-218q-2 -22 -2 -67q0 -39 2 -57h209l-8 -31h-198q15 -105 63 -164.5t128 -59.5q113 0 151 126h46q-42 -168 -199 -168q-102 0 -162 72t-76 194h-89 l7 31h78q-2 36 -2 57q0 34 3 67h-68z" unicode="€"/>
<glyph glyph-name="trademark" horiz-adv-x="764" unicode="™" d="M6 654v34h290v-34h-124v-310h-41v310h-125zM345 344v344h55l133 -291h2l132 291h55v-344h-40l2 287h-3l-130 -287h-34l-131 287h-2l2 -287h-41z"/>
<glyph glyph-name="uni2190" horiz-adv-x="660" unicode="←" d="M289 41l-26 -23l-235 234l235 234l26 -23l-197 -195q31 2 156 2h384v-36h-384q-125 0 -156 2z"/>
<glyph glyph-name="uni2191" horiz-adv-x="660" unicode="↑" d="M119 293l-23 26l234 235l234 -235l-23 -26l-195 197q2 -31 2 -156v-384h-36v384q0 125 2 156z"/>
<glyph glyph-name="uni2192" horiz-adv-x="660" unicode="→" d="M397 18l-26 23l197 195q-31 -2 -156 -2h-384v36h384q125 0 156 -2l-197 195l26 23l235 -234z"/>
<glyph glyph-name="uni2193" horiz-adv-x="660" unicode="↓" d="M541 211l23 -26l-234 -235l-234 235l23 26l195 -197q-2 31 -2 156v384h36v-384q0 -125 -2 -156z"/>
<glyph glyph-name="partialdiff" d="M242 32q81 0 141 58.5t60 138.5q0 85 -51 127.5t-116 42.5q-86 0 -141 -57.5t-55 -147.5q0 -74 45.5 -118t116.5 -44zM30 192q0 109 69.5 178.5t174.5 69.5q64 0 119.5 -33.5t70.5 -96.5q7 54 7 96q0 129 -48.5 189.5t-124.5 60.5q-72 0 -114.5 -38t-56.5 -102h-48 q18 84 74.5 133t148.5 49q94 0 156 -72t62 -220q0 -188 -74 -302t-210 -114q-88 0 -147 55t-59 147z" unicode="∂"/>
<glyph glyph-name="product" horiz-adv-x="698" unicode="∏" d="M96 0v688h506v-688h-48v647h-410v-647h-48z"/>
<glyph glyph-name="summation" horiz-adv-x="510" unicode="∑" d="M28 0v28l229 314l-225 314v32h444v-41h-383l219 -302l-227 -304h403v-41h-460z"/>
<glyph glyph-name="minus" d="M58 233v41h452v-41h-452z" unicode="−"/>
<glyph glyph-name="radical" horiz-adv-x="588" unicode="√" d="M36 332v42l122 38l148 -359h3l229 635h48l-250 -688h-55l-152 361z"/>
<glyph glyph-name="infinity" horiz-adv-x="708" unicode="∞" d="M378 252q79 -118 155 -118q48 0 78 34.5t30 83.5t-30 83.5t-78 34.5q-76 0 -155 -118zM175 134q78 0 155 118q-77 118 -155 118q-48 0 -78 -34.5t-30 -83.5t30 -83.5t78 -34.5zM177 94q-67 0 -109.5 45t-42.5 113t42.5 113t109.5 45q99 0 177 -126q82 126 177 126 q67 0 109.5 -45t42.5 -113t-42.5 -113t-109.5 -45q-100 0 -178 126q-82 -126 -176 -126z"/>
<glyph glyph-name="approxequal" d="M70 84q0 65 30.5 99.5t79.5 34.5q37 0 74 -22t71 -44t63 -22q68 0 68 92h42q0 -65 -30 -99.5t-78 -34.5q-37 0 -74.5 23t-72 45.5t-63.5 22.5q-68 0 -68 -95h-42zM70 288q0 65 30.5 99.5t79.5 34.5q37 0 74 -22t71 -44.5t63 -22.5q68 0 68 93h42q0 -65 -30 -99.5 t-78 -34.5q-37 0 -74.5 22.5t-72 45t-63.5 22.5q-68 0 -68 -94h-42z" unicode="≈"/>
<glyph glyph-name="notequal" d="M58 338v41h269l83 149l35 -20l-72 -129h137v-41h-159l-93 -168h252v-41h-275l-82 -149l-35 20l71 129h-131v41h154l93 168h-247z" unicode="≠"/>
<glyph glyph-name="lessequal" d="M74 0v41h420v-41h-420zM74 296v42l420 180v-44l-373 -156l373 -157v-45z" unicode="≤"/>
<glyph glyph-name="greaterequal" d="M74 0v41h420v-41h-420zM494 338v-42l-420 -180v44l372 156l-372 156v46z" unicode="≥"/>
<glyph glyph-name="lozenge" horiz-adv-x="640" unicode="◊" d="M549 343l-229 307l-229 -305l230 -307h2zM298 0l-259 344l259 344h46l257 -344l-257 -344h-46z"/>
</font>
</defs>
</svg>
