<svg xmlns="http://www.w3.org/2000/svg" xmlns:xlink="http://www.w3.org/1999/xlink" preserveAspectRatio="xMidYMid" width="76.438" height="159.937" viewBox="0 0 76.438 159.937">
  <defs>
    <style>
      .cls-1 {
        fill: #b38428;
      }

      .cls-1, .cls-2, .cls-3 {
        fill-rule: evenodd;
      }

      .cls-2 {
        fill: #8dc63f;
      }

      .cls-3 {
        fill: #197b30;
        opacity: 0.3;
      }
    </style>
  </defs>
  <g>
    <path d="M36.583,120.200 C40.318,120.200 43.345,123.227 43.345,126.962 L43.345,154.365 C43.345,158.100 40.318,159.928 36.583,159.928 C32.848,159.928 29.820,158.100 29.820,154.365 L29.820,126.962 C29.820,123.227 32.848,120.200 36.583,120.200 Z" class="cls-1"/>
    <path d="M75.125,125.902 C75.125,135.728 58.308,143.694 37.562,143.694 C16.817,143.694 0.000,135.728 0.000,125.902 C0.000,124.748 0.240,123.620 0.684,122.527 L0.109,122.523 L36.063,0.007 L74.680,123.091 L74.654,123.091 C74.961,124.007 75.125,124.945 75.125,125.902 Z" class="cls-2"/>
    <path d="M37.562,143.694 C36.965,143.694 36.372,143.685 35.781,143.672 L35.781,0.966 L36.063,0.007 L74.347,122.287 C74.623,122.920 74.824,123.566 74.953,124.222 L76.430,128.937 L74.627,128.785 C71.716,137.240 56.234,143.694 37.562,143.694 Z" class="cls-3"/>
  </g>
</svg>
