<svg xmlns="http://www.w3.org/2000/svg" viewBox="0 0 845 592" enable-background="new 0 0 845 592"><style type="text/css">.st0{fill:#EEF4F6;}</style><path id="Combined-Shape" class="st0" d="M643.4 195.2c34.7 7.5 60.7 38.3 60.7 75.3 0 31.4-18.8 58.3-45.7 70.3h157.9c15.5 0 28.1 12.6 28.1 28.1s-12.6 28.1-28.1 28.1h-185.6c13.9 11 22.8 28 22.8 47 0 16.6-6.8 31.7-17.7 42.5h35.1c16.8 0 30.4 13.6 30.4 30.4 0 16.8-13.6 30.4-30.4 30.4h-213.1c-16.8 0-30.4-13.6-30.4-30.4 0-4.6 1-9 2.9-12.9h-101.1c-5.6 15.4-20.4 26.4-37.8 26.4h-175.1c-22.2 0-40.2-18-40.2-40.2 0-22.2 18-40.2 40.2-40.2h39.1c-.2-2-.3-4-.3-6 0-18.7 8.5-35.3 21.9-46.3h-28.7c-20.3 0-36.8-16.5-36.8-36.8 0-5.2 1.1-10.1 3-14.5-21.3-3.6-39.6-15.9-51.2-33.1h-40c-12.6 0-22.8-10.2-22.8-22.8 0-12.6 10.2-22.8 22.8-22.8h27c1.2-36.5 27.9-66.6 62.8-73.1-.9-3.1-1.3-6.4-1.3-9.8 0-20.7 16.8-37.5 37.5-37.5h49.4c6.4 0 12.5 1.6 17.8 4.5 8-14.7 23.6-24.7 41.5-24.7h215.4c7.3-17.9 24.8-30.5 45.3-30.5h56.6c-.4-1.9-.6-3.8-.6-5.8 0-1.9.2-3.8.6-5.7h-134c-23.3 0-42.2-18.9-42.2-42.2 0-23 18.9-41.9 42.2-41.9h220.6c23.3 0 42.2 18.9 42.2 42.2 0 8.1-2.3 15.6-6.2 22h51.6c14.3 0 25.9 11.6 25.9 25.9 0 2-.2 3.9-.6 5.8h11.5c27 0 48.9 21.9 48.9 48.9s-21.9 48.9-48.9 48.9h-142.3l19.6-19.6v-15.8l-58.1-58.3h-15.8l-238.9 238.8h-8.8l-120.6-120.5h-21.4l-55 51.2v14.5l194.9 194.9h18.9l54.9-54.9c65.6-65.6 182.8-182.8 229.7-229.8zm-310.6-124.2h-161.2c-14.6 0-26.4-11.8-26.4-26.4s11.8-26.4 26.4-26.4h161.3c14.6 0 26.4 11.8 26.4 26.4s-11.9 26.4-26.5 26.4zm-104.9 471.1h146.4c13.5 0 24.5 11 24.5 24.5s-11 24.5-24.5 24.5h-146.4c-13.5 0-24.5-11-24.5-24.5s11-24.5 24.5-24.5z"/></svg>