<svg xmlns="http://www.w3.org/2000/svg" viewBox="0 0 170 170" enable-background="new 0 0 170 170"><style type="text/css">.st0{opacity:0.2138;fill:#FF002C;enable-background:new ;} .st1{opacity:0.2138;fill:#FF7800;enable-background:new ;} .st2{opacity:0.4905;fill:#FF9300;enable-background:new ;} .st3{opacity:0.9557;fill:#FF9300;enable-background:new ;} .st4{fill:#FFEA00;} .st5{fill:#FFF470;}</style><path id="Oval-1" class="st0" d="M85 170c46.9 0 85-38.1 85-85s-38.1-85-85-85-85 38.1-85 85 38.1 85 85 85z"/><path id="Oval-1_1_" class="st1" d="M85 160c41.4 0 75-33.6 75-75s-33.6-75-75-75-75 33.6-75 75 33.6 75 75 75z"/><path id="Oval-1_2_" class="st2" d="M85.5 153c37.3 0 67.5-30.2 67.5-67.5s-30.2-67.5-67.5-67.5-67.5 30.2-67.5 67.5 30.2 67.5 67.5 67.5z"/><path id="Oval-1_3_" class="st3" d="M86 141c30.4 0 55-24.6 55-55s-24.6-55-55-55-55 24.6-55 55 24.6 55 55 55z"/><path id="Oval-1_4_" class="st4" d="M84.5 133c26.8 0 48.5-21.7 48.5-48.5s-21.7-48.5-48.5-48.5-48.5 21.7-48.5 48.5 21.7 48.5 48.5 48.5z"/><path id="Oval-1_5_" class="st5" d="M84.5 127c23.5 0 42.5-19 42.5-42.5s-19-42.5-42.5-42.5-42.5 19-42.5 42.5 19 42.5 42.5 42.5z"/></svg>