<?xml version="1.0" encoding="UTF-8" standalone="no"?>
<svg width="845px" height="592px" viewBox="0 0 845 592" version="1.1" xmlns="http://www.w3.org/2000/svg" xmlns:xlink="http://www.w3.org/1999/xlink">
    <!-- Generator: Sketch 3.6.1 (26313) - http://www.bohemiancoding.com/sketch -->
    <title>Combined Shape</title>
    <desc>Created with Sketch.</desc>
    <defs></defs>
    <g id="Page-1" stroke="none" stroke-width="1" fill="none" fill-rule="evenodd">
        <path d="M643.417139,195.24533 C678.101331,202.746836 704.09405,233.586368 704.09405,270.515227 L704.09405,270.528191 C704.09405,301.892288 685.339441,328.859027 658.442386,340.876205 L816.368087,340.876205 C831.905096,340.876205 844.5,353.471109 844.5,369.008118 C844.5,384.545128 831.905096,397.140031 816.368087,397.140031 L630.667804,397.140031 C644.541321,408.12411 653.451907,425.100976 653.451907,444.170782 L653.451907,444.177264 C653.451907,460.799231 646.686927,475.838732 635.763619,486.700459 L670.847686,486.700459 C687.629277,486.700459 701.232972,500.304154 701.232972,517.085745 C701.232972,533.867336 687.629277,547.471031 670.847686,547.471031 L457.796594,547.471031 C441.015003,547.471031 427.411308,533.867336 427.411308,517.085745 C427.411308,512.457458 428.45089,508.073064 430.301557,504.146475 L329.227942,504.146475 C323.607879,519.569236 308.815512,530.581674 291.449713,530.581674 L116.278134,530.581674 C94.0782393,530.581674 76.081237,512.584671 76.081237,490.384776 C76.081237,468.184071 94.0782393,450.187879 116.278134,450.187879 L155.332545,450.187879 C155.135648,448.209999 155.031933,446.206191 155.031933,444.177264 L155.031933,444.170782 C155.031933,425.513406 163.553588,408.847684 176.914201,397.849021 L148.208613,397.849021 C127.868298,397.849021 111.378406,381.359939 111.378406,361.019624 C111.378406,355.856556 112.445537,350.943863 114.363456,346.483303 C93.0799814,342.922958 74.7629207,330.632717 63.1946347,313.428163 L23.2108395,313.428163 C10.6248489,313.428163 0.421875,303.225189 0.421875,290.639199 C0.421875,278.053208 10.6248489,267.850234 23.2108395,267.850234 L50.1945939,267.850234 C51.438365,231.335223 78.0850453,201.28296 113.020832,194.796715 C112.170044,191.661763 111.708187,188.366378 111.708187,184.961605 C111.708187,164.258287 128.492209,147.474265 149.195527,147.474265 L198.597141,147.474265 C205.027478,147.474265 211.078606,149.095624 216.367266,151.947789 C224.386551,137.259137 239.972177,127.292763 257.886531,127.292763 L471.34276,127.292763 C471.99422,127.292763 472.640009,127.316261 473.284177,127.34219 C480.551527,109.452144 498.093155,96.8321218 518.592285,96.8321218 L575.234177,96.8321218 C574.812224,94.9788755 574.5894,93.0498962 574.5894,91.0688802 C574.5894,89.1193603 574.812225,87.2233185 575.220603,85.3969602 L441.27335,85.3969602 C417.961759,85.3969602 399.063731,66.4989329 399.063731,43.1865312 C399.063731,19.8749399 417.961759,0.976912559 441.27335,0.976912559 L661.870526,0.976912559 C685.182928,0.976912559 704.080955,19.8749399 704.080955,43.1865312 C704.080955,51.2609146 701.811377,58.8029477 697.879116,65.2162687 L749.507363,65.2162687 C763.785206,65.2162687 775.359974,76.7910369 775.359974,91.0688802 C775.359974,93.0498962 775.13715,94.9788755 774.715197,96.8321218 L786.210488,96.8321218 C813.214499,96.8321218 835.10568,118.723302 835.10568,145.726503 C835.10568,172.730515 813.214499,194.621695 786.210488,194.621695 L644.040773,194.621695 C662.64795,176.014519 663.676038,174.986431 663.676038,174.986431 L663.676038,159.165534 L605.510503,101 L589.676995,101 L350.843162,339.833832 L341.962127,339.833832 L221.400253,219.271958 L199.963718,219.271958 L145,270.456322 L145,284.960229 L339.898302,479.858531 L358.803938,479.858531 L413.669125,424.993344 C479.25905,359.403418 596.472009,242.19046 643.417139,195.24533 Z M332.823939,71.0046288 L171.554236,71.0046288 C156.947422,71.0046288 145.106073,59.1632803 145.106073,44.5564656 C145.106073,29.9496509 156.947422,18.1091127 171.554236,18.1091127 L332.823939,18.1091127 C347.430753,18.1091127 359.272102,29.9496509 359.272102,44.5564656 C359.272102,59.1632803 347.430753,71.0046288 332.823939,71.0046288 Z M227.931501,542.077845 L374.287295,542.077845 C387.824547,542.077845 398.798092,553.05139 398.798092,566.588642 C398.798092,580.125085 387.824547,591.09944 374.287295,591.09944 L227.931501,591.09944 C214.395059,591.09944 203.420704,580.125085 203.420704,566.588642 C203.420704,553.05139 214.395059,542.077845 227.931501,542.077845 Z" id="Combined-Shape" fill="#EEF4F6"></path>
    </g>
</svg>