<?xml version="1.0" encoding="UTF-8" standalone="no"?>
<svg width="521px" height="269px" viewBox="0 0 521 269" version="1.1" xmlns="http://www.w3.org/2000/svg" xmlns:xlink="http://www.w3.org/1999/xlink">
    <!-- Generator: Sketch 3.6.1 (26313) - http://www.bohemiancoding.com/sketch -->
    <title>Path 4</title>
    <desc>Created with Sketch.</desc>
    <defs></defs>
    <g id="Page-1" stroke="none" stroke-width="1" fill="none" fill-rule="evenodd" opacity="0.578183302">
        <path d="M0.593480905,262.427793 C0.593480905,262.427793 19.2089844,201.193359 71.6074219,190.775391 C124.005859,180.357422 185.265361,205.861387 217.476293,176.732481 C249.687225,147.603575 235.355205,62.0332621 269.26145,31.1699808 C303.167694,0.306699563 367.292675,-19.1386129 455.456762,29.4356058 C543.62085,78.0098246 517.187231,58.9121683 517.187231,58.9121683 L502.687231,77.8848246 C502.687231,77.8848246 475.43333,63.302795 433.148168,50.1465433 C390.863007,36.9902916 343.474615,33.2148417 314.693359,56.4414062 C285.912104,79.6679708 300.394537,132.173826 258.109375,181.919922 C215.824213,231.666018 182.874729,210.40826 127.003637,218.478575 C71.1325455,226.548889 41.4333247,268.1817 41.4333247,268.1817 L0.593480905,262.427793 Z" id="Path-4" fill="#312064"></path>
    </g>
</svg>