<svg xmlns="http://www.w3.org/2000/svg" viewBox="0 0 910.9 706" enable-background="new 0 0 910.9 706"><style type="text/css">.st0{opacity:0.1;enable-background:new ;} .st1{fill:#005E20;} .st2{fill:#C2DD9F;}</style><path class="st1" d="M792.9 203.7l-11.3-16.6c-1.6-2.3-1-5.4 1.3-6.9 2.3-1.6 5.4-1 7 1.3l.4.6 5.4-14.8c1-2.6 3.8-3.9 6.4-3 2.6 1 3.9 3.8 3 6.4l-12.2 33z"/><path class="st2" d="M903.9 171c-3.8 0-6.9-3.1-6.9-6.9v-4.1c0-3.8 3.1-6.9 6.9-6.9 3.8 0 6.9 3.1 6.9 6.9v4.1c.1 3.8-3 6.9-6.9 6.9zm-71 263c-3.8 0-6.9-3.1-6.9-6.9v-10.1c0-3.8 3.1-6.9 6.9-6.9 3.8 0 6.9 3.1 6.9 6.9v10.1c.1 3.8-3 6.9-6.9 6.9zm-19 29c-3.8 0-6.9-3.1-6.9-6.9v-4.1c0-3.8 3.1-6.9 6.9-6.9 3.8 0 6.9 3.1 6.9 6.9v4.1c.1 3.8-3 6.9-6.9 6.9zm-61-261c-3.8 0-6.9-3.1-6.9-6.9v-10.1c0-3.8 3.1-6.9 6.9-6.9 3.8 0 6.9 3.1 6.9 6.9v10.1c.1 3.8-3 6.9-6.9 6.9zm-46 445c-3.8 0-6.9-3.1-6.9-6.9v-4.1c0-3.8 3.1-6.9 6.9-6.9 3.8 0 6.9 3.1 6.9 6.9v4.1c.1 3.8-3 6.9-6.9 6.9zm-3-262c-3.8 0-6.9-3.1-6.9-6.9v-10.1c0-3.8 3.1-6.9 6.9-6.9 3.8 0 6.9 3.1 6.9 6.9v10.1c.1 3.8-3 6.9-6.9 6.9zm-35-23c-3.8 0-6.9-3.1-6.9-6.9v-10.1c0-3.8 3.1-6.9 6.9-6.9 3.8 0 6.9 3.1 6.9 6.9v10.1c.1 3.8-3 6.9-6.9 6.9zm-84 101c-3.8 0-6.9-3.1-6.9-6.9v-4.1c0-3.8 3.1-6.9 6.9-6.9 3.8 0 6.9 3.1 6.9 6.9v4.1c.1 3.8-3 6.9-6.9 6.9zm-28 23c-3.8 0-6.9-3.1-6.9-6.9v-4.1c0-3.8 3.1-6.9 6.9-6.9 3.8 0 6.9 3.1 6.9 6.9v4.1c.1 3.8-3 6.9-6.9 6.9zm-58 162c-3.8 0-6.9-3.1-6.9-6.9v-10.1c0-3.8 3.1-6.9 6.9-6.9 3.8 0 6.9 3.1 6.9 6.9v10.1c.1 3.8-3 6.9-6.9 6.9zm-25-12c-3.8 0-6.9-3.1-6.9-6.9v-36.1c0-3.8 3.1-6.9 6.9-6.9 3.8 0 6.9 3.1 6.9 6.9v36.1c.1 3.8-3 6.9-6.9 6.9zm-212-349c-3.8 0-6.9-3.1-6.9-6.9v-10.1c0-3.8 3.1-6.9 6.9-6.9 3.8 0 6.9 3.1 6.9 6.9v10.1c.1 3.8-3 6.9-6.9 6.9zm-2-36c-3.8 0-6.9-3.1-6.9-6.9v-10.1c0-3.8 3.1-6.9 6.9-6.9 3.8 0 6.9 3.1 6.9 6.9v10.1c.1 3.8-3 6.9-6.9 6.9zm-2 290c3.8 0 6.9 3.1 6.9 6.9v4.1c0 3.8-3.1 6.9-6.9 6.9-3.8 0-6.9-3.1-6.9-6.9v-4.1c0-3.8 3.1-6.9 6.9-6.9zm-27 165c-3.8 0-6.9-3.1-6.9-6.9v-4.1c0-3.8 3.1-6.9 6.9-6.9 3.8 0 6.9 3.1 6.9 6.9v4.1c.1 3.8-3 6.9-6.9 6.9zm-21-9c-3.8 0-6.9-3.1-6.9-6.9v-10.1c0-3.8 3.1-6.9 6.9-6.9 3.8 0 6.9 3.1 6.9 6.9v10.1c.1 3.8-3 6.9-6.9 6.9zm-29-647c-3.8 0-6.9-3.1-6.9-6.9v-36.2c0-3.8 3.1-6.9 6.9-6.9 3.8 0 6.9 3.1 6.9 6.9v36.1c.1 3.9-3 7-6.9 7zm-2 222.9v10.1c0 3.8-3.1 6.9-6.9 6.9-3.8 0-6.9-3.1-6.9-6.9v-10.1c0-3.8 3.1-6.9 6.9-6.9 3.8 0 6.9 3.1 6.9 6.9zm-23-210.9c-3.8 0-6.9-3.1-6.9-6.9v-10.2c0-3.8 3.1-6.9 6.9-6.9 3.8 0 6.9 3.1 6.9 6.9v10.1c.1 3.9-3 7-6.9 7zm-2 172.9v36.1c0 3.8-3.1 6.9-6.9 6.9-3.8 0-6.9-3.1-6.9-6.9v-36.1c0-3.8 3.1-6.9 6.9-6.9 3.8 0 6.9 3.1 6.9 6.9zm-103 73.1c-3.8 0-6.9-3.1-6.9-6.9v-4.1c0-3.8 3.1-6.9 6.9-6.9 3.8 0 6.9 3.1 6.9 6.9v4.1c.1 3.8-3 6.9-6.9 6.9zm-44 28c-3.8 0-6.9-3.1-6.9-6.9v-4.1c0-3.8 3.1-6.9 6.9-6.9 3.8 0 6.9 3.1 6.9 6.9v4.1c.1 3.8-3 6.9-6.9 6.9z"/><path class="st1" d="M332 291.8l-10.2-15.5c-1.5-2.3-.9-5.4 1.4-6.9s5.4-.9 6.9 1.4l1.1 1.6 5.2-9.6c1.3-2.4 4.4-3.3 6.8-2 2.4 1.3 3.3 4.4 2 6.8l-13.2 24.2z"/></svg>