<svg xmlns="http://www.w3.org/2000/svg" preserveAspectRatio="xMidYMid" width="1041.716" height="707.157" viewBox="0 0 1041.716 707.157"><defs><style>.cls-1 { fill: #c4e37b; opacity: 0.6; fill-rule: evenodd; }</style></defs><path d="M969.781 217.844h-180.195c44.775 7.701 78.851 46.691 78.851 93.664v.016c0 38.708-23.146 71.989-56.341 86.82h194.904c19.175 0 34.719 15.544 34.719 34.719s-15.544 34.719-34.719 34.719h-229.182c17.122 13.556 28.119 34.508 28.119 58.043v.008c0 20.514-8.349 39.075-21.83 52.48h43.299c20.711 0 37.5 16.789 37.5 37.5s-16.789 37.5-37.5 37.5h-262.937c-20.711 0-37.5-16.789-37.5-37.5 0-5.712 1.283-11.123 3.567-15.969h-124.74c-6.936 19.034-25.192 32.625-46.624 32.625h-216.188c-27.398 0-49.609-22.211-49.609-49.609 0-27.399 22.211-49.609 49.609-49.609h48.199c-.243-2.441-.371-4.914-.371-7.418v-.008c0-23.026 10.517-43.594 27.006-57.168h-35.427c-25.103 0-45.454-20.35-45.454-45.453 0-6.372 1.317-12.435 3.684-17.94-26.267-4.394-48.873-19.562-63.15-40.795h-49.346c-15.533 0-28.125-12.592-28.125-28.125s12.592-28.125 28.125-28.125h33.302c1.535-45.065 34.421-82.154 77.537-90.159-1.05-3.869-1.62-7.936-1.62-12.138 0-25.551 20.714-46.265 46.265-46.265h60.969c7.936 0 15.404 2.001 21.931 5.521 9.897-18.128 29.132-30.428 51.241-30.428h263.437c.804 0 1.601.029 2.396.061 8.969-22.079 30.618-37.654 55.917-37.654h330.281c33.327 0 60.344 27.017 60.344 60.343 0 33.327-27.017 60.344-60.344 60.344zm-559.547-152.562h-199.031c-18.027 0-32.641-14.614-32.641-32.641 0-18.027 14.614-32.64 32.641-32.64h199.031c18.027 0 32.641 14.613 32.641 32.64s-14.614 32.641-32.641 32.641zm-129.453 581.375h180.625c16.707 0 30.25 13.543 30.25 30.25 0 16.706-13.543 30.25-30.25 30.25h-180.625c-16.706 0-30.25-13.544-30.25-30.25 0-16.707 13.544-30.25 30.25-30.25z" class="cls-1"/></svg>