<svg xmlns="http://www.w3.org/2000/svg" xmlns:xlink="http://www.w3.org/1999/xlink" preserveAspectRatio="xMidYMid" width="1041.716" height="707.157" viewBox="0 0 1041.716 707.157">
  <defs>
    <style>
      .cls-1 {
        fill: #c4e37b;
        opacity: 0.6;
        fill-rule: evenodd;
      }
    </style>
  </defs>
  <path d="M969.781,217.844 L789.586,217.844 C834.361,225.545 868.437,264.535 868.437,311.508 L868.437,311.524 C868.437,350.232 845.291,383.513 812.096,398.344 L1007.000,398.344 C1026.175,398.344 1041.719,413.888 1041.719,433.063 C1041.719,452.238 1026.175,467.782 1007.000,467.782 L777.818,467.782 C794.940,481.338 805.937,502.290 805.937,525.825 L805.937,525.833 C805.937,546.347 797.588,564.908 784.107,578.313 L827.406,578.313 C848.117,578.313 864.906,595.102 864.906,615.813 C864.906,636.524 848.117,653.313 827.406,653.313 L564.469,653.313 C543.758,653.313 526.969,636.524 526.969,615.813 C526.969,610.101 528.252,604.690 530.536,599.844 L405.796,599.844 C398.860,618.878 380.604,632.469 359.172,632.469 L142.984,632.469 C115.586,632.469 93.375,610.258 93.375,582.860 C93.375,555.461 115.586,533.251 142.984,533.251 L191.183,533.251 C190.940,530.810 190.812,528.337 190.812,525.833 L190.812,525.825 C190.812,502.799 201.329,482.231 217.818,468.657 L182.391,468.657 C157.288,468.657 136.937,448.307 136.937,423.204 C136.937,416.832 138.254,410.769 140.621,405.264 C114.354,400.870 91.748,385.702 77.471,364.469 L28.125,364.469 C12.592,364.469 -0.000,351.877 -0.000,336.344 C-0.000,320.811 12.592,308.219 28.125,308.219 L61.427,308.219 C62.962,263.154 95.848,226.065 138.964,218.060 C137.914,214.191 137.344,210.124 137.344,205.922 C137.344,180.371 158.058,159.657 183.609,159.657 L244.578,159.657 C252.514,159.657 259.982,161.658 266.509,165.178 C276.406,147.050 295.641,134.750 317.750,134.750 L581.187,134.750 C581.991,134.750 582.788,134.779 583.583,134.811 C592.552,112.732 614.201,97.157 639.500,97.157 L969.781,97.157 C1003.108,97.157 1030.125,124.174 1030.125,157.500 C1030.125,190.827 1003.108,217.844 969.781,217.844 ZM410.234,65.282 L211.203,65.282 C193.176,65.282 178.562,50.668 178.562,32.641 C178.562,14.614 193.176,0.001 211.203,0.001 L410.234,0.001 C428.261,0.001 442.875,14.614 442.875,32.641 C442.875,50.668 428.261,65.282 410.234,65.282 ZM280.781,646.657 L461.406,646.657 C478.113,646.657 491.656,660.200 491.656,676.907 C491.656,693.613 478.113,707.157 461.406,707.157 L280.781,707.157 C264.075,707.157 250.531,693.613 250.531,676.907 C250.531,660.200 264.075,646.657 280.781,646.657 Z" class="cls-1"/>
</svg>
