<svg xmlns="http://www.w3.org/2000/svg" viewBox="0 0 196 191.3" enable-background="new 0 0 196 191.3"><style type="text/css">.st0{fill:#ECECEC;} .st1{fill:#F9F9F9;} .st2{opacity:0.49;fill:#FFFFFF;enable-background:new ;} .st3{opacity:0.71;fill:#FFFFFF;enable-background:new ;}</style><path class="st0" d="M172.6 62.1c-5.6 4.2-27-7.7-27-7.7s-21.4 29.2-27.2 35c-14.8 14.7-20.9 19.4-20.9 19.4l98.6 66.9-9.7 11.8s-28.6-4.3-114.7-48c-4 4-45.4 50.4-54.2 51.4-23.2 2.6-17-8.3-15-18.6 1.6-8 15.6-22.4 21-28.2 11.4-12.3 23.1-23.5 25.8-26.3-43.9-86.1-41.1-108.1-41.1-108.1l11.9-9.7 57.4 90.9 51.5-52.4s-11.4-18.5-6.2-24.7c1.3 0 9.3-7.3 9.3-7.3l21.8 27.7-.7 5.5 26.8 15.7s-7.4 5.4-7.4 6.7z"/><path class="st1" d="M132.2 38l-.2-20.5s5.8-5.6 9.7-8c3.9-2.4 9 20.1 9 20.1l.2 3.5c.4-.3-5.9 5.3-8.9 8.1-7.6 7.2-9.7 14.6-26.6 31.6-15.5 15.7-48.4 50.9-74.1 77.1-18.2 18.5-25.5 21.8-25.5 21.8.9 2.2-17.2 4.5-4.8-10.9 12.2-15.3 75.4-77.6 75.4-77.6l45.8-45.2z"/><path class="st2" d="M54.1 116.7s-40.8-74.8-42.6-104.1c.6-.8-.3-4.1-.3-4.1l9.9-8.2 58.4 91.9-25.4 24.5z"/><path class="st3" d="M97.6 109.8s-7 4.8-13.7 12.2c-6.7 7.4-9.7 14.7-9.7 14.7s70 40.2 112.1 47.9c1.3.5 8.4-8.9 8.4-8.9l-96-65.5"/></svg>