<svg xmlns="http://www.w3.org/2000/svg" preserveAspectRatio="xMidYMid" width="195.941" height="191.313" viewBox="0 0 195.941 191.313"><defs><style>.cls-1 { fill: #000; opacity: 0.1; fill-rule: evenodd; }</style></defs><path d="M172.538 62.082c-5.603 4.241-24.516-3.837-24.516-3.837l-50.68 50.574 98.599 66.899-9.739 11.826s-28.604-4.291-114.734-47.967c-3.957 3.957-45.421 50.366-54.225 51.349-23.214 2.593-17.004-8.33-14.959-18.623 1.599-8.048 15.575-22.399 20.981-28.219 11.426-12.297 23.147-23.538 25.778-26.308-43.676-86.129-40.833-108.05-40.833-108.05l11.825-9.738 57.37 90.875 51.547-52.354s-11.378-18.47-6.192-24.724c1.272 0 9.296-7.306 9.296-7.306l21.793 27.71-.736 5.511 26.869 15.712s-7.444 5.399-7.444 6.67z" class="cls-1"/></svg>