<svg xmlns="http://www.w3.org/2000/svg" viewBox="0 0 76.4 84.2" enable-background="new 0 0 76.4 84.2"><style type="text/css">.st0{fill:#B38428;} .st1{fill:#8DC63F;} .st2{opacity:0.3;fill:#197B30;enable-background:new ;}</style><path class="st0" d="M36.6 44.5c3.7 0 6.8 3 6.8 6.8v27.4c0 3.7-3 5.6-6.8 5.6s-6.8-1.8-6.8-5.6v-27.4c0-3.8 3-6.8 6.8-6.8z"/><path class="st1" d="M74.7 47.4c.3.9.5 1.9.5 2.8-.1 9.8-16.9 17.8-37.6 17.8-20.8 0-37.6-8-37.6-17.8 0-1.2.2-2.3.7-3.4h-.6l36-46.8 33 40.5c2.8 2.1 4.7 4.4 5.6 6.9z"/><path class="st2" d="M74.6 53.1c-2.9 8.5-18.4 14.9-37 14.9h-1.8v-65.8l.3-.4 28.1 35.8c6.8 3.2 10.9 7.7 10.9 12.6 0 .4 0 .8-.1 1.2l1.4 1.8-1.8-.1z"/></svg>