<svg xmlns="http://www.w3.org/2000/svg" preserveAspectRatio="xMidYMid" width="776.656" height="386.688" viewBox="0 0 776.656 386.688"><defs><style>.cls-1 { fill: #e7d8ab; opacity: 0.3; fill-rule: evenodd; }</style></defs><path d="M768.328 167.656c-4.599 0-8.328-3.728-8.328-8.328 0-4.599 3.729-8.328 8.328-8.328 4.6 0 8.328 3.729 8.328 8.328 0 4.6-3.728 8.328-8.328 8.328zm-62 42c-4.599 0-8.328-3.728-8.328-8.328 0-4.599 3.729-8.328 8.328-8.328 4.6 0 8.328 3.729 8.328 8.328 0 4.6-3.728 8.328-8.328 8.328zm0-68c-4.599 0-8.328-3.728-8.328-8.328 0-4.599 3.729-8.328 8.328-8.328 4.6 0 8.328 3.729 8.328 8.328 0 4.6-3.728 8.328-8.328 8.328zm-13-18c-4.599 0-8.328-3.728-8.328-8.328 0-4.599 3.729-8.328 8.328-8.328 4.6 0 8.328 3.729 8.328 8.328 0 4.6-3.728 8.328-8.328 8.328zm-14 18.016c-4.604 0-8.336-3.732-8.336-8.336s3.732-8.336 8.336-8.336 8.336 3.732 8.336 8.336-3.732 8.336-8.336 8.336zm-200 231.984c-4.599 0-8.328-3.728-8.328-8.328 0-4.599 3.729-8.328 8.328-8.328 4.6 0 8.328 3.729 8.328 8.328 0 4.6-3.728 8.328-8.328 8.328zm-13-18c-4.599 0-8.328-3.728-8.328-8.328 0-4.599 3.729-8.328 8.328-8.328 4.6 0 8.328 3.729 8.328 8.328 0 4.6-3.728 8.328-8.328 8.328zm-14 18.016c-4.604 0-8.336-3.732-8.336-8.336s3.732-8.336 8.336-8.336 8.336 3.732 8.336 8.336-3.732 8.336-8.336 8.336zm-5-308.016c-4.599 0-8.328-3.728-8.328-8.328 0-4.599 3.729-8.328 8.328-8.328 4.6 0 8.328 3.729 8.328 8.328 0 4.6-3.728 8.328-8.328 8.328zm-49-49c-4.599 0-8.328-3.728-8.328-8.328 0-4.599 3.729-8.328 8.328-8.328 4.6 0 8.328 3.729 8.328 8.328 0 4.6-3.728 8.328-8.328 8.328zm-66 139c-4.599 0-8.328-3.728-8.328-8.328 0-4.599 3.729-8.328 8.328-8.328 4.6 0 8.328 3.729 8.328 8.328 0 4.6-3.728 8.328-8.328 8.328zm-49-85c-4.599 0-8.328-3.728-8.328-8.328 0-4.599 3.729-8.328 8.328-8.328 4.6 0 8.328 3.729 8.328 8.328 0 4.6-3.728 8.328-8.328 8.328zm-13 18c-4.599 0-8.328-3.728-8.328-8.328 0-4.599 3.729-8.328 8.328-8.328 4.6 0 8.328 3.729 8.328 8.328 0 4.6-3.728 8.328-8.328 8.328zm-14-18c-4.604 0-8.336-3.732-8.336-8.336s3.732-8.336 8.336-8.336 8.336 3.732 8.336 8.336-3.732 8.336-8.336 8.336zm-32 258c-4.599 0-8.328-3.728-8.328-8.328 0-4.599 3.729-8.328 8.328-8.328 4.6 0 8.328 3.729 8.328 8.328 0 4.6-3.728 8.328-8.328 8.328zm-27 .016c-4.604 0-8.336-3.732-8.336-8.336s3.732-8.336 8.336-8.336 8.336 3.732 8.336 8.336-3.732 8.336-8.336 8.336zm-24 57.984c-4.599 0-8.328-3.728-8.328-8.328 0-4.599 3.729-8.328 8.328-8.328 4.6 0 8.328 3.729 8.328 8.328 0 4.6-3.728 8.328-8.328 8.328zm-27 .016c-4.604 0-8.336-3.732-8.336-8.336s3.732-8.336 8.336-8.336 8.336 3.732 8.336 8.336-3.732 8.336-8.336 8.336zm-56-219.016c-4.599 0-8.328-3.728-8.328-8.328 0-4.599 3.729-8.328 8.328-8.328 4.6 0 8.328 3.729 8.328 8.328 0 4.6-3.728 8.328-8.328 8.328zm-82 0c-4.599 0-8.328-3.728-8.328-8.328 0-4.599 3.729-8.328 8.328-8.328 4.6 0 8.328 3.729 8.328 8.328 0 4.6-3.728 8.328-8.328 8.328zm671 25.344c4.604 0 8.336 3.732 8.336 8.336s-3.732 8.336-8.336 8.336-8.336-3.732-8.336-8.336 3.732-8.336 8.336-8.336z" class="cls-1"/></svg>