<svg xmlns="http://www.w3.org/2000/svg" preserveAspectRatio="xMidYMid" width="968.783" height="871.658" viewBox="0 0 968.783 871.658"><defs><style>.cls-1 { fill: #e7d8ab; opacity: 0.2; fill-rule: evenodd; }</style></defs><path d="M968.773 411.008c0 47.119-34.286 86.209-79.266 93.738 2.37 5.508 3.688 11.574 3.688 17.95 0 25.103-20.35 45.453-45.453 45.453h-35.453c16.495 13.574 27.016 34.146 27.016 57.176 0 2.504-.128 4.978-.371 7.418h48.207c27.402 0 49.617 22.214 49.617 49.617s-22.215 49.617-49.617 49.617h-216.196c-21.439 0-39.701-13.599-46.634-32.641h-124.739c2.285 4.847 3.569 10.259 3.569 15.973 0 20.713-16.791 37.504-37.504 37.504h-262.907c-20.712 0-37.503-16.791-37.503-37.504 0-20.713 16.791-37.504 37.503-37.504h43.281c-13.482-13.405-21.831-31.966-21.831-52.48 0-23.535 10.997-44.487 28.119-58.043h-121.197c-19.179 0-34.727-15.548-34.727-34.727v-.015c0-19.179 15.548-34.727 34.727-34.727h86.877c-33.177-14.839-56.307-48.11-56.307-86.805 0-47.004 34.12-86.014 78.939-93.679h-180.259c-33.327 0-60.344-27.017-60.344-60.344s27.017-60.344 60.344-60.344h330.273c25.299 0 46.948 15.575 55.917 37.654.795-.032 1.592-.06 2.395-.06h263.422c22.118 0 41.358 12.308 51.253 30.447 6.529-3.523 13.999-5.525 21.939-5.525h60.961c25.554 0 46.269 20.715 46.269 46.269 0 4.203-.57 8.27-1.62 12.14 44.163 8.201 77.612 46.903 77.612 93.442zm-149.871-246.226h-199c-18.029 0-32.644-14.616-32.644-32.645 0-18.029 14.615-32.644 32.644-32.644h199c18.029 0 32.645 14.615 32.645 32.644 0 18.029-14.616 32.645-32.645 32.645zm-332.097-60.594h-165.3c.503 2.249.776 4.584.776 6.984 0 17.622-14.285 31.907-31.906 31.907h-183.977c-17.621 0-31.906-14.285-31.906-31.907 0-17.621 14.285-31.906 31.906-31.906h63.699c-4.847-7.911-7.644-17.214-7.644-27.172 0-28.77 23.323-52.093 52.094-52.093h272.258c28.77 0 52.093 23.323 52.093 52.093 0 28.771-23.323 52.094-52.093 52.094zm120.91 706.969h180.609c16.709 0 30.254 13.545 30.254 30.254 0 16.708-13.545 30.254-30.254 30.254h-180.609c-16.709 0-30.254-13.546-30.254-30.254 0-16.709 13.545-30.254 30.254-30.254z" class="cls-1"/></svg>