<svg xmlns="http://www.w3.org/2000/svg" viewBox="0 0 31.5 30.2" enable-background="new 0 0 31.5 30.2"><style type="text/css">.st0{fill:#C88023;} .st1{fill:#603913;}</style><path class="st0" d="M11.5 19.5c-4.6 0-8.3-3.7-8.3-8.3 0-4.5 3.7-8.2 8.3-8.2 4.6 0 8.3 3.7 8.3 8.3-.1 4.5-3.8 8.2-8.3 8.2z"/><path class="st1" d="M11.5 22.5c-6.2 0-11.3-5.1-11.3-11.3s5.1-11.2 11.3-11.2c6.2 0 11.2 5 11.2 11.3s-5 11.2-11.2 11.2zm0-16.5c-2.9 0-5.3 2.4-5.3 5.3s2.4 5.3 5.3 5.3 5.3-2.4 5.3-5.3-2.4-5.3-5.3-5.3z"/><circle class="st0" cx="20.2" cy="11.3" r="8.3"/><path class="st1" d="M20.2 22.5c-6.2 0-11.3-5.1-11.3-11.3 0-6.2 5.1-11.2 11.3-11.2 6.2 0 11.3 5 11.3 11.3 0 6.2-5.1 11.2-11.3 11.2zm0-16.5c-2.9 0-5.3 2.4-5.3 5.3s2.4 5.3 5.3 5.3 5.3-2.4 5.3-5.3-2.4-5.3-5.3-5.3z"/><circle class="st0" cx="13.4" cy="16.8" r="10.4"/><path class="st1" d="M13.4 30.2c-7.4 0-13.4-6-13.4-13.4s6-13.4 13.4-13.4 13.4 6 13.4 13.4-6 13.4-13.4 13.4zm0-20.8c-4.1 0-7.4 3.3-7.4 7.4 0 4.1 3.3 7.4 7.4 7.4 4.1 0 7.4-3.3 7.4-7.4 0-4.1-3.3-7.4-7.4-7.4z"/></svg>