<svg xmlns="http://www.w3.org/2000/svg" preserveAspectRatio="xMidYMid" width="56.312" height="65.937" viewBox="0 0 56.312 65.937"><defs><style>.cls-1 { fill: #b0791a; opacity: 0.5; fill-rule: evenodd; }</style></defs><path d="M34.879 22.598h20.752c.527 3.586.755 7.221.683 10.868h-25.197c1.591-3.554 2.839-7.19 3.762-10.868zm1.978-14.963h14.752c1.013 2.523 1.85 5.11 2.543 7.735h-17.871c.343-2.576.541-5.158.576-7.735zm11.105-7.627c.408.728.797 1.466 1.176 2.208h-9.418l8.242-2.208zm5.562 50.98h-34.001c2.872-3.121 5.501-6.539 7.786-10.294h28.451c-.456 3.456-1.21 6.896-2.236 10.294zm-5.945 13.761c-.236.41-.491.801-.735 1.203-8.13-1.028-16.582-1.574-25.261-1.574-7.378 0-14.591.397-21.583 1.146 4.133-2.001 8.07-4.445 11.735-7.308h39.13c-.966 2.211-2.051 4.394-3.286 6.533z" class="cls-1"/></svg>