<svg xmlns="http://www.w3.org/2000/svg" preserveAspectRatio="xMidYMid" width="77.875" height="91.25" viewBox="0 0 77.875 91.25"><defs><style>.cls-1 { fill: #b0791a; opacity: 0.5; fill-rule: evenodd; }</style></defs><path d="M48.016 89.062c-12.007 0-23.701.756-34.948 2.178-.338-.556-.691-1.098-1.018-1.665-1.191-2.062-2.283-4.154-3.292-6.267h56.635c3.977 2.785 8.15 5.242 12.482 7.339-9.673-1.036-19.652-1.585-29.859-1.585zm-45.536-23.359h44.168c2.913 3.654 6.088 7.011 9.454 10.108h-50.516c-1.239-3.335-2.28-6.708-3.106-10.108zm-2.494-18.175h35.401c1.098 2.347 2.294 4.67 3.614 6.956.732 1.268 1.499 2.503 2.282 3.721h-40.295c-.548-3.552-.881-7.117-1.002-10.677zm1.309-18.769h27.702c.838 3.793 1.943 7.556 3.29 11.272h-32.249c.185-3.786.604-7.551 1.257-11.272zm5.18-18.2h20.398c.049 3.565.316 7.139.792 10.703h-24.726c.959-3.634 2.134-7.21 3.536-10.703zm5.046-10.552l11.402 3.055h-13.03c.525-1.027 1.063-2.047 1.628-3.055z" class="cls-1"/></svg>