<svg xmlns="http://www.w3.org/2000/svg" preserveAspectRatio="xMidYMid" width="37.843" height="87.188" viewBox="0 0 37.843 87.188"><defs><style>.cls-1 { fill: #b0791a; opacity: 0.5; fill-rule: evenodd; }</style></defs><path d="M.813 66.937c-.421-2.45-.714-5.177-.816-8.228h37.841c-.102 3.051-.396 5.778-.817 8.228h-36.208zm.149-23.021h35.911c.432 2.952.74 5.868.894 8.691h-37.7c.155-2.823.463-5.739.895-8.691zm3.098-15.277h29.715c.755 2.992 1.449 6.077 2.053 9.175h-33.821c.604-3.098 1.298-6.183 2.053-9.175zm4.297-14.814h21.12c.865 2.66 1.771 5.604 2.655 8.712h-26.429c.884-3.108 1.789-6.052 2.654-8.712zm4.954-13.834h11.213000000000001s1.205 2.966 2.886 7.732h-16.985c1.681-4.766 2.886-7.732 2.886-7.732zm22.246 73.048c-3.15 9.901-8.39 13.035-8.39 13.035l-7.02.826v.29l-1.23-.145-1.23.145v-.29l-7.019-.826s-5.241-3.134-8.39-13.035h33.279z" class="cls-1"/></svg>